<mxfile host="65bd71144e">
    <diagram id="5vhF3MAIgd-XbwMrOzz-" name="페이지-1">
        <mxGraphModel dx="1945" dy="1345" grid="1" gridSize="10" guides="1" tooltips="1" connect="1" arrows="1" fold="1" page="1" pageScale="1" pageWidth="827" pageHeight="1169" math="0" shadow="0">
            <root>
                <mxCell id="0"/>
                <mxCell id="1" parent="0"/>
                <mxCell id="27" value="" style="shape=stencil(rVjLctswDPwaXzF8gQTPafofmYlTe+rGGSfp4+8L1UPFBKVVDp3JwZF2JTwWIKBdvHs9PLzsd8G9vl3O3/e/jo9vh138sgvh+HzYX45v+msX73fx7ul82X+7nN+fH6//vzxMyOnXj/PP6Qm/rzxHypj+3J/rBSFf/134eoWfjs838EBcOjhT5XW495R8h4/EAeCFOHX4QAGZk4m5w3sKfh0fUzO34R3Ep0SuGLxz63iOVLzBJ+BvDlSDsZ+Bv0VfzyaeKQE8k++fz5QzwFeKvf1CGTxf1P4e70MT1DIht3jPhEweZECEJPeKcMQgBdVR7VMWNOnA5xpI+piGSlkAIVF2fRISCXC6qos9IansIiAU8tITmBiZJE2Wc54dCYqSWKHybOQyoba+0AhZA41MqsT9GzJTAdpWQum1qmovQBpKMNJQuUOnK9W+u4hGCbzBO2fjKkwRO1H7zEltelwl9OpTeW3EtcaeoEW7QXCWAMWkcR3eUFAFVSum6RE4SpwtYcPp1Ptwk5o1RkjDK7ATfgiTgLNNS6jWIUy45sbMMRK42NOhzv15lVAsAXVXve1MIqTVyCfbgBJg71OL2RI2xGT6xjYhDz4I6q619aFbp1GmVQgyhBU7vVCjOA9jpqE0ht63JT69zZYA5a1hHYp6o4CSmcU+UaNDBW20AT8U9UajcUNcy0ZRD2Fi1L8Xa/R/E4zTCR8psnQGocwNnUxPubTRZ3p9TwcpahtiZ6zpqMZ5MEfKNAzgCWgcN6A0ZBhoPHk8lJn5REcmWNSFnJmxPDkUJR2OzZzIrfMsE3S878Oqg2VGPkTK/QERdZ5BJeptPcSN0VVLvg+rrhxopdEB36w00w6Hdg62mfalVfnakhL6evARLrlF2lQ4VxwV4HNJTZqzlGA15Npuz2lraVnbEqVXXoDFw0OWPWXg77TlVoMPwB7VjLNbd8JbujmhA1zhvDRzb74agOd735bUj3iimSTaHbQ0fxbhbmjYsOznxesDnoCzzuZqPkZX4OYDicJBa3d2blY4ULJreb9xFT7dW3iAtjszRsEpytmzW+ApNq5qcN10tjmr6LAxbOA47t7ajjUTLBw1qE24/vj44Pd0PJ2u3wtv79sPhHrp+nEx3v8F);lineShape=1;" vertex="1" parent="1">
                    <mxGeometry x="187.10304694567208" y="205.66075418484672" width="247.8664281965223" height="200.16680203048702" as="geometry"/>
                </mxCell>
                <mxCell id="28" value="" style="shape=stencil(lVrbch0nEPwavVLAwADPjvMfrrIcq6JILtnO5e8zRObo0LPbJ36Tzs7swlx7Gu7k3dfPH77c3+X49dvL8+/3fz18/Pb5Tn65y/nh6fP9y8M3++tO3t/Ju0/PL/e/vTx/f/r4+v+XD1Ny/vXH85/zDX+/6sWQy1TK8Z/XH0ZQ+e+HX1/FHx+ersRT0A7iMZ6L59DrJt6DjHPxEiRv4i1oORfXkGQT19DJYnrIuonXMIh4iqFlkI+JyEsou3wJiaw+aZB9PRKEmX7g+zN1lT0uA+RjJ/I11H095uxG5HvQDPI/NnQoLym0AfJsPWLm3t0bQyf7lb7M9yavxF8lhVpAvjD5EmoH+Uz8W1qoGeQTWX+1zzeQj5XIy8qlK3kSz9XSRVGe7Lf20Jw8iQdN/v2Jydv6cb9C1q8V498MRuJNm38/i2cdK13f5AeRb1Yf9uJm8U/81XLIKN9IMWyywvctfzNbTwldQb4xeV3p9//qT2sYb4XGW+uhYz388cNxeTb37/utqwAfy6fQd3kNSuzfJeR9v43Wh16W+d6aF12P4voHjZ/eQt/fnxJ1QB9Y4JJ5mOxgRIygVFZNPVZI2PJSpTV92AL2nLGuxoJuyPLRRcHaMrHqKKHAF0ZoJOxGDSnuaWCFieSZKcCSZuKQQBq66tpFodBKZAoKChYrpHWMhqVoAifm6Yaelsgd10ME8JFXuzpTgO4khVupI/aTtr55rDBC3h0nFvAEIJhC3RWspdPQGNjRioTB9jDW44uC0p6W4qUHXzQ67QrzE4AyLzjgdBOgYJ7jX4C+WcsthQiFWBeUPI2NvbJWjvMtXKE1aFzg/Ewh7gmheaGNs5TLMBuU9YqzKgCzh+GNwRTKSuGLgu2Khavg/GGIY7Ckti3ufjAIEVmOGkDeO7RhAhau1lF0X1JTWme687R1eVZnrMlBU5xtnndRsFLPfA/VfUEWEDrr6wW+wJucva/BF3TZ7Vghr8Z/UWjU06aQ9+Azz7DZwrCPwBweKRQwq1cAJ3llyDF6u/AAFwUzA1Nw48LsxMRKhifHXiotaSsDlIpmfetixwoV0YmVNhYapqBOgTUIU4AZbyowUG9DzL7pq5ZxppGb+wTfRHIKrDA1h5hmj2GTQ0XwYAqMqJkKbknU1RVLnykIX1IaqECnpbqGzWsFvqTiXE3ju64ue63A/aDOSjRHq0u5QYurKXS3h8Id111CVG7WLqjACtPcg49WvmmkIC8Q6tQPzkqD+wFHjts5iqMfn/1mUrvoYx1ixrfzHCM7D1NO+a59UtcbSe1SjhForSJBNMP1RhX4OQVFimIORrwHwUg9lJKS1uUSRF9ZSXjWRyNUAaGzX3MDgU3lnfEaEXlVwwKUR0jY2g3WUcSU0ayGZypDG4LROmEdMeuEbLtZDaVR8qTgFGSvKOwLrrh2Tr/ZittupekZZtbm0HfjexiYohbwrJKNiD2rCd2DRQ6gvpYoR2agUN2MQmdFQSvZFFQZxVQQTNucxWi4UZHaUA5ELYMLKKTFtJ2yLXvwKWfG/fhaO+3swx1N2ETNUtQUALnazF6YwsABueZbNAIMyJN3YPPuwB43mY0bXwC2RelQM1w+lBsze0cGuCTaFE0B4LpwHDpcuZfGycSGxVjKKgtnClBbJdM+beE9dk9L5BmnOLPnzukcRQ4rK0UClqJQZnIJyilX/ILwjCtuD4k7ThC4ztMrRhgJnoakTo9XJzsDx5ktZLaHtB5fkeussY+I59upLCh7xs5AF01CaTVrWQW+kOiZuHVR6HEp8iUVR1RwbJIXDL606VtECJA55gQ2fw/kEJTPlZ7apLljLR/CiGfCHH/coRqbfooj+mmZb+6QOPPBJGMNznxQj0Ehk/khsetTnLKfh7jAlywC5Vi+4qEvP/xRcWdq1P7zkBsvGbCEmYfoFeQ7O3Q/OKRnpyxVkE+KCzkcy0e8FBIpgpyXGPBQnGEp69hwKSTSWXtewoCSFRLZ77zkgfLseGVeIkF5Vq8kYd9I9NB6XoJxl2yIPbM/bKQz87zjg5cAWPykgWSHUPskXdjhqv4weUH/Fjo6WnuAE7RKwXvH5SgdDhQ5uUarVUF6l5/NiZv111h7vFdHT9NUjJhZZitW2uxpdfLElBGvl92UB5458ftQEa1j8qyVRqR0E7/vE5E4MflMzB/x1DLx+1bupNbkWel37+d0QMRGx2nN6Mg0WvejY8bo0PCTtzxvitsfbxdKPz08Pr7eR71+jhdQ7afXy6vy/l8=);lineShape=1;" vertex="1" parent="1">
                    <mxGeometry x="166.26227067757736" y="144.97459089522806" width="362.5392634242198" height="339.8740344083229" as="geometry"/>
                </mxCell>
                <mxCell id="29" value="" style="shape=stencil(lVjbchshDP0av2oAAYLnNP2PzMSpPXXjjOPe/r7autgg1qeTt42js7odjsRu+OF99/S23QT3fj4dv25/7p/Puw1/2oSwf91tT/uzPm34ccMPL8fT9svp+P31+fL329NiuTx9O/5Y3vDrgiuRsl9Qwf2+/OLJu78/fL7YH/avvX2hWgf7RBzu29dALg32lUIF9pHYjfEwVQGATElGQKUYAaCQzwNAUxDkQd83psyBCqiRd47cmER05FFM6mKMKQpVDwBCMgJSooiSiOTDAMiBfAGNrpTHuuYCO61MKiNAuAW5CpBKlUdAoYQAkWocAEUbAXIQ17h2BWQqgH05NyZcAbXxfR0QKI9lVcIzAGibZKRGTVTSfYAyJ5kDJJRB0pEtvxfGA/IpILEFZATwU9K1sWsVwNLe1wH++VwHeKsyCigAoEc4FAuooEpeazJ5gABPcfJQQNLXtvY5A3vfqNwXFUjApDFL10CJHMXJHtGCyRlWYN5J897ZM1JJnk6CtFmx3mM30S43QVgHaEh5AoDDyZFctSEFkAPrMAsWkNDRCdNZE0g7PZw2hwKFfvEw9bkCVdUc/Kh5yzRCSWuVpuMvuA9pPmu402nUi26k3iOTZV+FSi9t0nT2SPPCiiAFUNWP2msCznRBJQ3VKE3E8LCourTUUWB0tglS7Wnv0ekpoAlRN4BpPkOABjB60A0gAs1LsUlQt2Mg0UvVqp5uMQF4yGw3gGVPAjlksQvrsomBkDSAMu96yIMyZ+T2sk2CTuerQvQLKwopt322W4kLqlIkGYebLt0JAbydhl5VBJyHVBo3b/eGiKZtsstkggEl14h2u/egaaX29ppBDr3f2/gdCSKq8q4Y+wjmQsp2pdJdF4yFrJRhY49Wtnxtz83eIfvSbhOdPainhCaHnT3gtGSrj66tufcuF2zjYVB/VSqzTjl4Fykr/ULb4Ifv2f+114fbpf5lfzhcvgn0/7cfAfSnywcEfvwD);lineShape=1;" vertex="1" parent="1">
                    <mxGeometry x="429.57932789605434" y="380.08738208593877" width="8.299235997255892" height="118.57681124129772" as="geometry"/>
                </mxCell>
                <mxCell id="30" value="" style="shape=stencil(lVjLctswDPwaXzEgQYLkOW3/IzNxGk/TOOOkr78vVJeKCMnr5CbLWBIEsOBCO7l5ebh93u8iv7yejt/2vw53rw87+bSL8fD0sD8dXu1pJ593cnN/PO2/no4/nu7Ov59vJ8vp6fvx57TC7zOuNSplQkX+c37D1PTfiy9n+8fD08I+MBPzABAqchkwbZAG+0qhQvucB/sQqAYI+L/eDFCSBgCV4giItkMGAKU0umRnYBCkZiEZd5DU32wD2LuUAmm6DKhKccxCslOBNNR5vQ7IiVK5DChKdXRJGe5QIrGMgEwCoqSF1AGsVkDiVLxLRSghAFNtI2BO5SYgV8ojG0qlxgCgFEaABTqAKGXxtVSFInLJ+Ob4k2F5J+1RnwGFcgSA6BlXjYOgWqWSjmFtgTJwSTLxGCVjSAalIbbeWN4tUwJhfWsqM6D0uG2HlWIY7RtVQIdINXl7BV0pEDdvj9jDFNz6tTfmC/ZcvX0EKbCuLj4+FQW0J3RhjxKQPNPMPoCyLhvrM4onU+IVADgUxPPGABFQOVhJRA/IyCWlsgI0QLRQSFZJQ1Q2wLoqUJWaS+5ytrIT5FKisOKBAu7bZazZAxqIUvU9e6Egtpv2BnMaSLT4lj0pDshMX3kWIsg0104tB8iflT4ye3TnsO++UxWhHFNb2WewfupSZckD4L+SruxRJ21dRryXydFLl6lVICZ/FNB6/GZ7xRWhlF1zTP3NdnO0ZuSYH+EOlgR365viQ6rZaKNOV+D7QGKXsDNAoeQU7Tp/BqTez7briP0VWGPXAduARNGdgWFvSXO/XagvpFxMG7nZwvRdQIDke7wpSHQp5OLZZhoVXQoaSVYqmMGhda7lWZhb/YKwluDzMJ0KiCmLiXPJZgUGHcPSJOMONo0gnW0StoxRsnlHgUtWmzJm2gRBA1Gq89/LmQ1dO7WX2nIqBASa+OUAV3dwFwkebM3epQEPztP6Y1DxZD4dIDp7uL7Nzc3Zo8o2e9cwGEoL63AuZaZx0dAc/SjF14bs5P1HusJ6uuPNFXvtAvad/pi68/bwvNULiyvxbL5R4Hy9DSjvq4ePfgm6bm8Pb5+d7g+Pj+evVsv//Wcqe3X+xCWf/wI=);lineShape=1;" vertex="1" parent="1">
                    <mxGeometry x="164.43439831148112" y="222.58587587590716" width="25.57384252972406" height="148.5162143027577" as="geometry"/>
                </mxCell>
                <mxCell id="31" value="" style="shape=stencil(lVjbUhsxDP2avGpsyxf5mdL/YIZQMqWECent7ys347CWsyfhbVl0Yut2dLQbvnt/fnjbboJ7Px7237e/d4/H5w1/2YSwe33eHnZHfdrw/YbvnvaH7bfD/ufr4+nvt4dm2Z5+7H+1X/hzwlWhxA0V3N/TG0/e/X/x9WT/sntd2BchHwZ7ppDX7XOhXAb7SFLW7VOhNP5+phLW7WOmWgd7IQH34UJutPeeIgOAI3YjIFKu64BQyJsTNMbgSuqhyAAIgQo6QYjHE9qZAnzw1gd9E0FUWZNkspwoewAQymMZcaUSQd5Cj8m5Lrj/xGWAXsmPAHUaARL5sfKSphL4oCf40YfExCCszYcxrClTRABno5Q0SqhaNaxp7AYmB8LK2Z6Q9UoJZjqPPuRKFQGY/HilwhRRabBljJI7J6wB8ljeRaOEAJrpsTQk4LBOHSda3qiBqu04wT2tpRFGp6vyKgJomsY8VO5vLhOloxhHQCJBgEoy+lBrz8waoDoLYOBDksmH2qvrMiDZ4aMAxHzJdxZaACoigdLb5UzGzpEDd9LM8eREBXfSiTLHtYITtOVCnrxGTe0t9Skg4ZlVxAICHhBh8gHyjE79kVxVSAiaKHlKtXIbGhCuz/0FICElkKbqE8jG2kFOPnNCij2ISx9AHpqYSVOUAFdqy1kAzkNWH4oFoEzrCW4qPui0knWwgIKc1gk1VauABopiR9CVjlOlIKMP15pa+Xuub8QbOlJ4ChNiVw691m7kPu3ROp3AaMp9FqBKm6cJUUH1BZUn5gSmBAC+9EpYTLkAwqrSWaY5mkH1+dBdXExqtA94R8mcgMV07WN5KTZAAylFjHm+ombETqyCRaU6YBq0CTKUhGBprEk+BIh2BWqiEpSqz3aINtmKklCsvkpYhfpKcXS6SW+0M03qp4l7cCUFuJHG2voA8qY+GBWqtFNQlNjSGGPKqLaS2o6FVuMugpdLHKikYGOqW2IAdeF61dy4hp4pd7nnInqhMC3SCRRFoTpmzGMJrWVqOFt6BG7cuzMFpHmmORW7VFwTq+bTRIAToXg71hz8MqFEUqqxR6NfiYqtvUfx16a09g7EU4m2srUH9SDZrs94iEu18XRQG+nwCt76CyiiTUcbf1QPquUM8boe4Mv2tXPghz3aIRei5gOA9oSmOGyAkMj57Le/6/b68PGh8Wn38nL6Trn8v/0wqa9OHzX5/h8=);lineShape=1;" vertex="1" parent="1">
                    <mxGeometry x="145.66267047139013" y="185.00608456769726" width="10.195613773788637" height="196.1544724652764" as="geometry"/>
                </mxCell>
                <mxCell id="32" value="" style="shape=stencil(lVnbUhsxDP2avGpsyzc90/Y/mAFKphQYoLe/r9yMw0q7e2jeks3RWncdOQe+er2/fr49pPD69vL07fbX8ebt/sCfDikdH+9vX45v+unAnw98dff0cvv15enH483p+/P1QI5P359+jjf8PslJp5aHVAp/Tk8icf/34MsJ/3B8XOC7UOgGn0gywDNFMfhMgffxrRFHgy+UIsAHKsXgK3WgT2XK1t5Ove3jS6UUrH8iJSCQhRJbAbUYaJQT9WoF2vTxpgA3ivaEFOaZ2wKRxMWMqQCnpjZz4CygXgUqpbOJU4ADtEGzrCYrwJQSEAgUbRy4zkzZFIgaB5sYLDOU2wKaCC5TI3XgVhUQG7icKVWsUrMClQowWgWqU6lTBScML9k4lEANRVrLx6pUEjV8QrMqlUwdB05cQdf5ZE+gO5X6zN89gWpPqJEyCNwoFyeQKeLANZt8VWsQJ1+wyad9KqATOrENXEvQS9ojii2gVqihXKq+UbY+n2wLFMr2hB6pgEamfS45AX0iQIB9TfcKm3FMFN0JQoxs0GFmBURrGrlVc8n2Vsmz2+4JRNsqpcLUkBmlM77BCu0rhYQKaGOaNjbMMWjqAYHzrwuFkE/DNG+BR/NNO0z1DmooZjNnFnjUJJOft4pnkEQ6Z1YBY/D+THzR+8vG+5H+lUK8xD+Vcl35H2Sont49HsW3zl8XeDRzCvVV/gjQJ5O4+PY5tHbwPj87nLJnPrrEo6bi59PQB3Wt6e0FPoACDp5LjYIH+gdPpRSfL8Qjf671wYxZ7U0eX6B/JHh8RvN+Zst/1iOv8qfO2bmXbyt7kT+LJziKR/lf/eRWPMr/rXpMaGO5EM+eesiZ2O74p6zyBy0HK1ogBdKz6smWZDiP2iqfdVcA72+eLnbM89Ub1j9KOtAAFj9Q+weMIPoBqbyJUcEkv2IqM8uIyrE/QblfRayG/Yqp7BKRdqVybshUgUFWAbFRUIYcMLt0Y3JwcKRSmV1kyfLRPrcSGHsEGgSFiu1EY1PBKhV3Qp6O3lXJrWcJr5jFp8bY5z6Iw2pjhGtB9uN77KTIhkzVLbEZz1cVsAWkezW0ofiJo5t7QAVU/ObOFeeSTlRrA+NbLN3n3Kqfzivh9lDjmZuLGxSUrdqWglVpDEZEY5nYXUzJvFPZFhB/bRSxSrn4wGkfSaCmx9WBjYNuR4gq19Xy1OD+pz0lW410WKPLxOwLlGcz3x4Nuv3Z+lSLgD5jcjiDYVbIilsHmNiDSQSPB/YOpigej/Tp/jI3zNLbwzv/4Fs+XVWjx0fgz7Haejwj/WV2z3c8onaKF++fCpf71XIc4PXBUKg5PBqbindXVxFyd8Wn5PCo9156u/8xXj+8/5Vwd3x4OP0Tsfzd//Wgj05/W/Dnvw==);lineShape=1;" vertex="1" parent="1">
                    <mxGeometry x="135.84393293691323" y="176.71844283722294" width="59.123606926460525" height="198.7065778573699" as="geometry"/>
                </mxCell>
                <mxCell id="33" value="" style="shape=stencil(rVjbbhoxEP0aXkfj69jPafofkUIKKoWIkF7+vuOihfWYPQipb8syx/bczpz1Kjx9bF7e1yvPH6fj4fv61/b1tFmFLyvvt/vN+rg96dMqPK/C09vhuP52PHzuX8+/31+aZXv6cfjZVvh9xtVKUhvK85/zG6YS/734erbfbfdz+0AxdPaBclm2L5Eqd/aFnCzbi1Apnb3z5NMyIFfifgMnlNwyIBUq0gHUBeFlQCwU+hAFJgE+h0Lc+6BvUlgGaExy6gAxU6oAoAeIHSBFiiBtLlJ2HSC7ac/bAKb23xwgVMEOQtJvIIESSHSmYuwLSUb2tbcvgQIqJMqm7oQ8OL8muc9Z5SntC/bSx0c7gz1oHHJm/UQenN854r4mqhCDALkweKA+oZoYWk0BEbjsKkU3AMCRtEzrAEggSF57PVgAKlNtXVOmCkD81Xq9b2ZlQAZ5UICNUqWAfFCGFAtIKEre9mYjZXQkZwlJARUcSRNXe7pwzBNt3kYUm+q7CG3Q9NChEkl4xG3lsJIfCawC4nAklDoFpOFIqDjUBzaZwOWnURoBkIeFIlsAaiHNXB0Ad5o0Di2EaEDLrwyADEpDC7wOXQ0LXDVFtoCKjhQGoqmQ7W/soOQGZnrzYaglpBpalIZaKmgHnib4vIH+JyBRijaqqPaU+YYJ5JGMGWgpUQBKzE38MB+hqBcmTTQb0Uj0qJIdJQAoOyZn7C8jdcHeKM8mYUB8hmmoEgk1WrD5VQlWQDzF5ks1XkKUHaZymalIj6jCWQ9Up6IIBTcpkJkS9sDl6GxfqtZGdJc8ub7NWthAkLJKDDPZZHpzO6pu+MBwWAmLpQqZCPO2ksyWgAMs0+op9etfGHzJvoqx9yBp9SLcr/bok63Gaahe7Rmtn6wUZqycs+1LrESaTh7Og9YXOzEZDv3GmkN8AG010WHXR13WBks09uhL5Mr6V/uENAgPxMWU8QaP3RHctdeH64XE23a3O99nzP+3Fxj66nz5EZ7/Ag==);lineShape=1;" vertex="1" parent="1">
                    <mxGeometry x="137.30216672971846" y="165.09554626782813" width="36.78775792155852" height="225.6864877079173" as="geometry"/>
                </mxCell>
                <mxCell id="34" value="" style="shape=stencil(lVjbUhsxDP2avGpkW7490/Y/mCGUTClhAr39fbUNDpZ2OYW3ZFda63p05F26erq7ftzvIj89n47f9r8ON893u/RpF+Ph4W5/Ojzrr136vEtXt8fT/uvp+OPh5vz/8XqRXH59P/5cvvD7rBeYiXlRi/zn5RFx+/fgy1nh/vAwKfROwcoLSQfyjViMfKcegXwlLtYeoRCAQqZSrUKjjixK1KxFiwsCFALVbBQSUwQmtU5ifUiZegEKhboLaqAEstDER1XKyMu2AlOzJ2QmSW8r1EopWAWNUgUKibI1KTcSkOnSKdsolUgBRKlkEmuSPqkgSiX42tYzI/AhaxCtDzXCEzSI1SkUkvy2ggh1q6CZiSBxSYu5WQWtX1DeKfkGbZpKkOmor20DdaYMfFCEaLYftKUy8CEUqjZxXQMNTgiRxPqgMJKAQhvtdZHvVEGiI7VkMeMVBzcVVii54BQoDI2gi6lQAbXNHpNUPgJMCquc4aqIA0Mn+QK+HweEzikGkJeor76fQfPLSM9sD+rMMWQm+Q7sz75rNJ4J5LcMQJ/kKwIvCraAdAyhis4rfzPssTyQcJJvID7qnZMvxAgl/IRaOhI2TM4reVAPOjJX8UFj/0I6JvkC5NkPfZWPAOTYDyfNb4P9/pL9uX5Av4cRvUke4ckWhFYQz0hl3Y+g/rWbeCUP7JHxdu5HYE8ec3TGH9iP3l9ldWh0b8QzY3kXn0wM7P+4fHL12WC/91X8K+xHJbm8KjjEYoPycKcQBwZsV5D4kbTQVODCQnItRihNjUih+CZuOmeBSRL9VK195GVboa7olg4GxM+SN6kGXKd1wOyFMirzACYpZ42OY2riAJIWDaItPaWpAlqzsp9NaiTCCmXi3ZaGhqEBMF24vtsmOkycctZsTRKFawC/ylndNiEB4mPLnqHpCoUIS2ujvy5b3X8WTR4NPK2BaATqGujCqotmBVFSSIz2hJCwSbKa+viA7FmIkka0u2e/ZjJM88IhopNHWe7FO8xwA1R5B0kMAUblHatjfDVQB8C9yjOyv/rlDC8FOgMkfeT7bR1/aH/3XcNwKVD54u0X/P3m44lI18ZlEY+5/l4FfLv0DgX98XqZdXu4vz/fhc3v/eWXPjpfnKXPfwE=);lineShape=1;" vertex="1" parent="1">
                    <mxGeometry x="143.800455618461" y="245.09532928105227" width="68.62086807246237" height="145.86334552631502" as="geometry"/>
                </mxCell>
                <mxCell id="35" value="" style="shape=stencil(lVfLctswDPwaXTEkSALCOU3/IzNxak1dO+M4ffx9qWokWWC0ndxkeRcEiMVDXXp4Oz69HjoOb7fr5fvh1/B8O3bpS8c8nI+H63CrT1167NLDy+V6+Ha9vJ+fp9+vTyNyfPpx+Tla+D3xzKiPI4vDn+lNIin/Xnyd8KfhfIfvjSxt8FEoB0Bg4rAhsFDUfYImYtt6pBT6fYIkKltC7klln1AShS1BAik4IQeyLUEzRdsnsFHe3mrfU2RAWByYCabUgxNiPcERatAREJQ4bwlGCQQds8/DqBUQQ6y3JFtphEABaEOpaHMCCDpTCR5fQMxMQfwdIfuhsV+zBvxfortLGieEF4cXSkCo3KSsUEE6JXX4TAbwVWLF4wVlOBI3hJKhhop4giKCUhYfMiNZG0nyBJTjmgQftJDi0rSmNAWoYpSFc6mnDHpq7Of+dqfriEqzUEqeoMClyL7jVYKBJtyTNB4ZaqmUm0oWYJ+bdmewP9YcRH+lqHnVFLgk114D7bPzR0iATj+Lt3lcLPNA5pGypyHZXqgyTEBiPw+KzWPx417BzdSssgaVVqLPWSpkIGZp6qDKBI0DUd8fq9AZxKBCxZ1AGeF1XlWWA0gRfhkXKz6i5Sj45SjM3eljfJpFvOIZ2Ze5SFZ8ABmoS4epx4MEWJPiQBGpOlPy9lGjG4skOrwByY1FXtz9F+T/sg6seoB9NDQTnLFDn9yW/4+vD+tq/jKcTtNmf/+/X+Xrq+kzID3+BQ==);lineShape=1;" vertex="1" parent="1">
                    <mxGeometry x="213.43082845236904" y="211.71289468518762" width="12.383540739800992" height="47.67840606453217" as="geometry"/>
                </mxCell>
                <mxCell id="36" value="" style="shape=stencil(rVrJblw3EPwaXQnuy9lx/sOA5UiIYhmynOXvU8yA1GPxvVIC5DbSdA3JZi/V3bwLH74/fPp2f+ft99eX51/v/3j8/PpwF3668/7x68P9y+MrPt2Fj3fhw5fnl/tfXp5/fP18+/vbpy7ZP/32/Hv/hT9vOG9C6iBv/7r9wxmX//nHzzfxp8evB3FncljEi7FBifu2/nowOSl5R7up72zHrtvxwdh2LW9Nq6t8NV7u367yIZgg9xPsKl/lfqDOuMhH3Ie7lvfG5lU+mSb06U1a9RObcfZaHtori3zCilI+u1U+mlqu5aPxq35SGRq4kK+rPWRrvDhvMmnVZ/Ymiv1k0786ysfhDxfylX4/mVqv5YuJtP8yNHAqX9n+czVR2Gdj+8zNVPH7bqpv+i9MVhzAwULXGyuwEeXB+HpVaYmmqBWiSbRCNkn5WGYjLVU7ZTFl3VK1497PAc2E1W2q025mTaUVglRrd+T14mo0UZwBnuZohWS8sGy4jl1Db4XehKvBd2xiQBFagjOQsVaYuwh23RvWm651xMtzQB2WMwEIX2KFgHtd/bNZ44SWgjNl1VJDChIXh/hPHt288eLiQhobmACYhlBryCOCTkCU5o0UE+nQSZp3aKYUBlSxQoR5k5by8JBzgNvOkGXej8EUUiuIhUiEMbJPd4AwDSTK6hjg1AqFw0wHqFxVTdoAKtin3VoBEMaXHNMXABRdSMjPbVtB+ENKJuyHVmfI25bycKlzQB0J+WhLwlrTzGgHay1iS6AIjUxDk5IMtZKWwojn54AtGLdJtM4BCO4EcJI3d1pBGaiNmzkHFGbaCMZJ3AOIBUU+JBQV7ovlSgE5rgh/KHuOcyapFYJpq4uWJh2oYMcEmATtHFA4VJbJPs4BbeMaCPfC48AsyOPAyJQ/VBB+opTa46B18jhYl8pAuFfyOBh8UmfIIxtMll4lq6yzSJuAyQ3OATDmVUuIVFFEPqRxoqEInkX4A/yrUOVTJROAB1MG6hlDnAExgms37Q+IQkQd4tzkOSANsjOryTY2eQWgyBfKMMdzQOb6DXQlqy3NBHUoiFUBB0BbDw3KpUhiq+zTXpesAFBN5qv0uNa2psHM3FcAKpp8lVUlAORxfQV1hmby1pfIwqcBqNuWmoitALTMalVMwFk7Kv8DQnG4vsR6atBxVSr2Q2yAKAITAET6gtX23UbCOQAUFQCAGzj2Pb1yh8jqsFFHw+B4BnXVlSMZAKoeAIACU7CyidMBq5b6Tb8DKAzwSksb2fBV9k0AaJsHycDUuMzqPqpNg4rRDlBbahwru1PrFU4O/Y6PBlarqjg6oDFAMaxTwHthgxKEHUTzfwPQxQUv6T1Mg9JoiKbpFESZvZfY6qZn6Xno4qr2D9KoXwHI7FapNbHxgTuochfcIdEKcQT0K3aSqFNcdBDw3IaLbZSnVwwrEOlzo2i54nBujUspyrxbt1CZdPXaSx5qXzepJTBdMr7sB/04B8QRqw8NYBVmwNYpi6LwUp1B1EjUeyzOOKFWlChUcaCOUtG7VG70oY5qaoW8banKtkMvqqh6tbq29Jzjut5UX30b/NSk6+PG5t2blQpQtxXaKB7PAXlkg0ONr5pkeaP3cFrFdHNgf0BYyOoMfhC2Q69FxSUUhnFvkqlD260TUkbmvmr/cEdKk2+4vFvv4Y2/X7WwYmaA8rg0y7YDIAstvc3EDgA14jhp9LXRUf23rUQdyHpwp8Gp1aQP1W3Z1NTEIZBwiP90gFohnBxCRYHoTwBqKIIsm7YzyCaw5fngG/e9apVz467KRN3nvVuLVs4HMgem3g9VE4i4jSySrJrCNpFretYUthSEwCQHO23r3uMq1byscreyOUnv++CVAHbY7zkgcTSu2lp9HOz/AJDzsqmTCaiyW+k380YKkuMvx9ZadavcW+7OICuqjOL2AVuQ/uAKc7g+GVUPKBKz9aonci7wnAZkQ1mr83xo8BXVGnTbsBb8x4lDz/RxIFiKOtQxVzowOEWMC4eMYuWjlGkEB0qpSGvirknvMKsRDd8xmIrqXm0D/DyHpOfxhfUP2qE8LTBPSpp++u1RSpL78cNHpryOXo5DCyolLU/2ELMsiS03A6Pej+VwHfSjJsvn7UNtYf97I7DKGYgdtznlg2SdW12IsGSFx9tRBE55nZ622UGWLevtzZrONFuynBzjQpwqfysfHDlOMla6rmPTt2N+dSFeeO+K3DieC2mKuY1VdTvYs5tYOUPy3HOxOpnut6q6fdtUzsqmlOdeiJVZ8T8+unxXHB/e3nd+eXx6uj0PPX7P70Hxr9tb0vDxbw==);lineShape=1;" vertex="1" parent="1">
                    <mxGeometry x="173.77795627172554" y="378.43403365753306" width="260.9222358054176" height="146.81731503642482" as="geometry"/>
                </mxCell>
                <mxCell id="37" value="" style="shape=stencil(lVnbbhw3DP2afSVESdTlOU3+w0CcelHXDhynTf4+VBaaDqmZs+ibPUuORPLw8DKX9OHb08PXx0sM397fXv96/Pf6+f3pkv64xHh9eXp8u77rX5f08ZI+fHl9e/zz7fX7y+fb/18fhuT46+/Xf8Ybftz0aqbehlYMP29PEmX+/eDTTf75+rKXDxSTky/hXL4UYjbymUIB8kzVy9d+Li+Fqr2/UI1AnonFyBfq+Vw+q3+ikW+UwX1SI7HyHCgloBDnz5tCpAhO0AtLtwqZUgMKTLlaBX0FuBJXCtan3KiCoLFiJhgFPZNBFNQnNVuFNK06VGjUnHyBTqrTwE2+UxAAO8ouC5h6BTCi4uSFAkgD/dWiQnGSgLyC3jo0MxVgb16yRojh+5vFUNb7QP8E+37RtAeIaBSLlW8zj44BwZSsg0qCDuKFt0qlBDykoI7W5NKhCdyp2StVhlQR47zAppBhEBQV0Ua5FkiO6tZqyatq2IBC2sh8Yy+euX2s0Ck6hTxDfwwk8XzXNkY+I2Dn1tYh9KRSt7ncGZecNMO0KShYEbg7icVSF0og0hpXsYHrhRKgCw1TFK9QgFtbmj7ZXQkRmHrdMUy/k6Ft1tVNIVIARuvPLqc1cB1EWk10aG2VMrhSr7OO7RQiiHRvFKpXYHRC83VHFVB17t3zkipUdKW+nNBmx3Sm0KtXaCDSvXvm0zgI4NZxJRu4HmYTdGq0eAVUfYZbXQLxjMyZAkevENGVFDkLCURk9NIXqg130OpTNJAgLImvoSMfkJe0M01eAdHMOMHSjEKjYBtC9wowDmWauIO3oBO2/NqnKDqh+s5tpCiKdPOt2zgBo5WXE2DgtO7HxUsoDn2ZATQOQIFDmN3gPtSYNtpKrthqsYV6wBUlRJvg3CcE5sr/qZBnSduXIJQQvNQsgcNeW1uBOiePYwXtiy25DqoCcNX2yE0ygz1RZdcrWYVd8I810nKnPsntuD1RsC1GRAC/Eqk57sPdxhii3QkZdkwS5hC8ax4EtYl5Zti+BqGxeCH8O8yUtnqw61xhu77MNC3C0V77e1e0WoDtiU7NDhvaByJo6FzONg5VZjtxOnhbLym6EmABHby7NbqGyTwng5zrHRSNgppv33uXAtsf8VErCeZb8rRXNouOg0bs1kN1lu1jB/kKKhnukzQRbNeg8w1qu4N/f26QtpdCogMXqujBd8SZof+DH98SZlSe8+Ymn+Y8d+L/bPGQwtxGncS3WX/GCrlO/KIkZljLlTktHtQDqM4y+w5JsxpNDCy+u9AnqC2My0ZVs7ohSItfVo1Lop2kBs0VZhjjVL3NeEga5G5NxuOzVg+3isHLP1lm2wj3KmVJ4u3Bsbz4mS3c24G7QhDg+2umVr086hBk9oo7ebSOWJIgzDpyLL9tmXb2ovsUPw8GOAPXZapguLtQebdN5cmqp/I+vqiGDXlHEnBmUXm3NYtUAP5V3k0gEXJKFb96ScQIP+Kb0gQ3ZuObTnXyEM93vwHpH/99QPpyfX6+fX/a/+4/OOmj28eq9PEX);lineShape=1;" vertex="1" parent="1">
                    <mxGeometry x="260.8840017633977" y="443.32273011862526" width="85.81909048639591" height="89.12129409808063" as="geometry"/>
                </mxCell>
                <mxCell id="38" value="" style="shape=stencil(lVjbclsxCPwavzLohqTntP2PzMRpPE3jjJPe/r6oHh0bjs9m+ubYbCRgWUC7dPf2dP+630V+ez8dv+1/HR7en3bp0y7Gw8vT/nR410+79HmX7h6Pp/3X0/HHy8P579f7YTk+fT/+HP/h9xlXqMYBivzn/AVTkH9ffDmbPx9ersxDoJqMfaCcgX2jZO0ThbptP+7TjH2hxNv2KVGz9pU6sM+RWOz9eXp0E1CYYreARAV4XBplBxCKwGURCi6kjRoA1Ehic6ZJSAhQSazTmoXStwEtUw4W0IgLAHRqFjASA67UIwUbpVSpgrD2TCkbwEgl8KGL9yELlQgAjYINawnEgBq9U3aAQhkVDzMxW0SnDhB6hCs3yZOPW04U67U0ishrIbZxrQFnbvl5ARR4pVaoWx9qg4nQn2sxgBZIQFFXpmJPUAILCKtEiu6ESqWBos7ENtWdodPKtWCjpIyv4EqpU3InFMi+FCnZou6VIvBBlTRYagx2gTyoSNTsAR2dEKdWXwOQ2rOnxrgSyHRQnVmdEDHAVdyoEBBW1V5JPqxImBTgOqiWVEcn9NkOrgABhVWp5hJXqKCwak8uHhCAfGviXE2r3HZA75hXmVa2YvLJCpBBlKKQZB8lBpnWxu+vJJjedarQVaaRLinAJ67Not3yodjhRNmKalqj5K/UYaPWPHhqaMWhK6kKWR+umtIWmVL1RzR0hE6QK9lIwIlRENHHtQJ+j5JbFTUHXNTuSvVD2VixLwOnhzA5NS6zi22F1XeUAsfEAVipAAS0OckvgDQnnNsdRUXChZUhmXQCcx2laaCBCmRVdweQ2Ylv991VjbYE5VuK74qN5zy+NUw3q5U6LcNhununa6YCuKQ39icE2EZ1mGYrG1Lh0jRmEQfIk79bANfkhOd4vQVwNV1kLna3fdAVxs73JcImpwNYsD5k3eTQypHnaLEA0tyLbgPilK1l5ehwk1PmuDk0CVw5qvYsB1iqfIt8Lqyjx4ATlAhu3R1THaqH6FVDO4CAE3TSdbP00HMkAjKVdOkoFW5Buui5GS5kLJWrJShEeCWVSpfpjke4PC98eURA60Pz41WBTI1+CshQkYJvbhkucOzLQOUGEILn1HUxT8BVnoRf2PDBf3fTdoQtiudUenlMqqCNr9a8MB8RNgLphBq/9ARfWgz7QPQPVbhM0tz+LuZo6so3zEFk/vMV70Nz/XB5MHw8PD+f3xuvf/cPjPrV+XEyff4L);lineShape=1;" vertex="1" parent="1">
                    <mxGeometry x="319.17454219045885" y="441.3436999028688" width="44.366729060429634" height="78.76213908306113" as="geometry"/>
                </mxCell>
                <mxCell id="39" value="" style="shape=stencil(lVbLbhsxDPyavRKkqOc5Tf8jQJzaqGsHjvv6+2q7kG1xrTFyW6+HFMWZ4XLSp4/ty/tmcvxxPh2/b37vXs/bSb9Mzu0O281pd65Pkz5P+vR2PG2+nY4/D6/L7/eXGTk//Tj+mjP8WeJKpqhzlOO/y5tEmf+/+Lrg97vDDT4HKrnDS6Ys44AUSfqAekJK44AYiEMXoJlUxwFBSaQL8AWe4IUcdwFRyINL14ptkzzlOA4Qpfm/m4BcKIITlHJ/51JIA8KLWjwqyJH6njVmYlCQUEj2gAQOYMrZ4gVcgEljj8/kYH42+PQgP/eaKFW4QBNsCSuVYYfw0RBWKQQirZLLFs8FEcaGYEcJSbRVe4OPIL+u+NXW4fueIScWDz1GMdp+JsCXX+knUAb1+5VhEnFG+LDSm8D8Vm9Vz9DAutJ/Anqo7PT9fGxIS3BpLRvghS1ewYWZgtgGBZCfSbwlIHhoSFNPbCNglN/cN0DCmLwhwLcZOegPrwyssP+fxNeC+gbl6jnkYE/FfJVyM9F9yWXyvYdDaE27/6FkK1KvUBPRtStePsVVhoDkpOT7sTX3Daio9sT1bRWBH7J5LPQlMZRpVZkXgxcwt65j5IpHtqz4FCwe5c+t41e8ovozlWjwBXBcXW4YEIqAsXJZlS6MtUEwwpcer814AxusjO/JA83NY82oGh5Q8aFvaIS73DzH+/ypLagjAj61ID/G14frNv622++XZf72f7u911fL5q/P/wA=);lineShape=1;" vertex="1" parent="1">
                    <mxGeometry x="268.3308273856135" y="460.90408160657375" width="51.6224503956912" height="34.38622548168769" as="geometry"/>
                </mxCell>
                <mxCell id="40" value="" style="shape=stencil(lVjbchoxDP0aXjW2ZVn2c5r+R2ZCClMKGUJvf19tqQFr2cP0bbPRWcnSkXTMip8+Ni/v61UKH6fj4ev65/b1tFnxp1VK2/1mfdye7GnFzyt+ejsc11+Oh+/71/Pf7y+T5fT07fBj+sKvMy4mqmlCpfD73xtK+vfF57P9bru/sU9CUQb7Rikt2zNTrOP3M0XgIEcqOgIaaV0GSKDaBkAqlOMyoARKPAAsSGYAqNQcwELKywAt1MIAyAJDqpl4zKqdSsMyoMUe8QUgMKSmFMY6TGkAaY0hUBgPUTKVBlxU0rFypVFAMTHVMgCUKaA0FapjSJbpAtinlUoeADVQBHm1UqsDMPQg6kOqlukC+G3cGLPUAmXQEFx8B1neGgBYvxQHaLCno/aOvAFUUAdrYXY9emXLfUQkkZkL0HPGHPb2DBxY0t33K2VAVuneL/YKqyAkY5lbIQbcLhTGodSkT52F+MXFkykBGrXeijekEMBTm/OcPCCABEUb9GUGQB6UWvQABixKlwF0S2yQ05RmpMiQRAZoxVehARZNABeSwhFmgOh4USniQ7MrXMNprTNmW+0BM6xwvtKtn2qJGnnW/g2E1LxkMHsBZ1Yq7HOkgHo28LIvQkUzuHu/6U2F9jrrTYHx+ImdSUAF6p1GUEDT6tXCA3s7gGucWuGBeZbRKpCl05IaS1zjozXo5IWtXgakK8WrCxW4pPQy3y6ARElAVnmmeLQvxiWAO3RJUIRpozgCpFICRLKInbYVpoTkiPQALkLSWgHMIwsgjJXOCY75bGt1HJGMhaRJX7fJJ/4CD6n5mWpDE7WP3UB07J9YoIdJjjhAwjPVL+cMyxZmKYI6eKabua+tJXOXz+5uwdwJkQhbf3ZPiBTRaKE81ip0AX2fDP7qhe8U0iXZ1RxJZfUKBGvM6iUdlvpxtokDTLxJWBVnr2D+/O/N+rG9PVyv8W/b3e78K8Dt//21316dfzLg5z8=);lineShape=1;" vertex="1" parent="1">
                    <mxGeometry x="315.1328067570498" y="460.6211883676724" width="24.658616804362964" height="61.98202139720979" as="geometry"/>
                </mxCell>
                <mxCell id="43" value="" style="shape=stencil(rVfLbhsxDPwaXwlJFCnpnKb/ESBObdSNA8fp4+9L19B6qV1PUaC39S7HfM2Q0oYf3ndPb9tNCu/n0/Hr9sf++bzb8KdNSvvX3fa0P9vThh83/PByPG2/nI4fr8/X329PF8vL07fj98s//LzilIpcQCn8ur5IlOqfF5+v5of968w8RmrN2UchbQBQiKt3oBTlPiBlytkBuFCL9wGcKAcHkEABhJQD1eIAipPOjcR7KEwRAKRSUgeoVjcAUCVNHlBJy32ABcC+b808BABo1NgDrAygrDWT+D5UpQQ8NCti9FWqVDMAMGXPpWKdVgDI/fMMIKCsTSmXEVASABSqOubAoA+t9r5OgEYZ5dB6AFNZrQ9IQMHY7NlXUy/cXRe+rtbLCFptgOg7V4UEZx0W3IB1NX77MtXSZb4OEIplBCgYG0YmbSOAkYfUGzvLQRgA4gIgxKisgcqQNFNFCgqkw9hIcM5YSMGL2sgkiBqRqh8bRteEGsdjp00QcArkTv+Z5GDjZKEgA6CyGnPSGFJEIdUewCzpgDUqC40yVlxbznuUdOsrbUYNOMnauEaNfFDTlfJADe1/8X8A9ll9DqZyAYor2lfadHa4zbZ1RKA8uJiiXN+jiZqnqxG4AYDkTv9Z1gq4kdd2EOIG66ggW/ZIcmlxYhLuWa1viNaHRAfkSIoAkYpvdWpQctL3+NS4CsdM6MepKQNikHEYK5ThbljsQ4ZzO1D0DUuk0HzQfuzbdL2WFGQwD+j8PFZ+crfOBZI4mKOz8+JQiOWV+ySfmYOtLxTGYBgEI8tUK5Jup8itkOiQ84/3lr+a28PtivSyPxyuN6z59/FKZa+u1zF+/A0=);lineShape=1;" vertex="1" parent="1">
                    <mxGeometry x="275.33008247986186" y="488.32275691604923" width="43.1601277364357" height="40.02108814406665" as="geometry"/>
                </mxCell>
                <mxCell id="44" value="" style="shape=stencil(lVfLctswDPwaXTEE+D6n6X9kJk7tqWtnHPf194WqoRJC5npyky2sCGCxS3LyD2/7p9fdJO7tejl/3/0+PF/3k/8yiRxO+93lcNWnyT9O/uHlfNl9u5x/np6X369Pc+T89OP8a/7CnwXHFNwMEvd3+SMLhfL/n69L/PFw+hBfbHyMMJ4LudIBfKYaxgDR74UOIJkkjgE+kE8dgDMFPwaEQLlfoZKr43itMMa+BOI8jk+RinTxrvXgZnyOJMHGO0CB5i8mnyTj+OpJ+njWBUCDammvVwAToxUKZe4B0mq6DagktQesRY0A2aRUyDME1H4qRCjhlGo/qPPcoS5pSrmngSlhgDeA2EZ31NbSi82Xe8RxP0l+XfM2IFuxKQAWnSj3xKmcYVtTE+8KUKaBnKuqxxiGo4K6FO3wSWomNQT0PKgLFjR8iVzfJXWYCBxDAdHoIRADC1Ae2EiUqSIesh0NBTjEtBp3tYCMulSJTQ2eMuKhUnK2Sw5rurLlgcEssVuNcUXEe0UUIznXzHAEiMZbwz2ASUkFIYjqsnGBCrcHpTptAAEp6NMA2Yg6EgOA7kDR8FDguM5bXO8C8zYPVkjpBtPIXOPGNjSlAoYpRLsrKtMVzJL2xOyKwVMAW5DakO9XiB4WzbWZRAOkgP3e1ly4HVVuZ2QFN4sc+Ji0+t4PDvhooj5a7QIVLMDkyyYhUICj2ndUZz0Ckl17u8ZHeJZ09iRWBVKs3egPGQU3dONfRf0LaH/7fYH7ubMyy5oP8GxnT7ZZZxYMnGtH9zU+tAwH/H7udnE/Xh/erzIvh+NxuQl9fG+vPvrXcm3yj/8A);lineShape=1;" vertex="1" parent="1">
                    <mxGeometry x="208.76146593470048" y="308.7946723179441" width="65.89371956770196" height="9.96012707243517" as="geometry"/>
                </mxCell>
                <mxCell id="45" value="" style="shape=stencil(lVjLbhsxDPwaXwlRb53T9D8CxKmNunHguK+/7yy22lhce4zcNhuOJZEzQ2o34eF99/S23Xj3fj4dv29/75/Pu034svF+/7rbnvZnPG3C4yY8vBxP22+n48/X5/nvt6cpcnr6cfw1/cKfGacS3ATy7u/8okbR+c3XOf6wf72ITxJ1iC9ZcrwdX8XnMV4lpdvxqqJhAOQsyRNAFB9HgEokJ9AiwQ+AlCWQI3jXf28BqGSyJSSp1QEQvZRwGxCctDGrIUolWQpYoQ0AXyQSQMQKYx1wqloJACuMWdIkjhFDxZUR4EQbASSbVl6G7MSNhQ79xfX4ZKmtNL44S1VHD1ySFDXxbP+liQtmP/+1dF05XuIY7yWTfNbUC7qwrifgenwTNTqQSuJbED9yrkog+2lFchrPC9kQyrUqaSywQjZshSZ+PDHMoBAVAFAMAGZAtqRu4cCFbhgCSxgpg6ZMmQCksQzQgS80TXUUGgqRiLsAYIgHv3GEeaicaxbATLtl0bRagVVupU2cgXIjSg42SzFTgPe2DndWUFM4R12+xZW/gPFMQHHFviiNOAaylMwKvrPrVh2CWUFp40GlQ7SAO1wyJoktBZYluF62h3YcYG0j3xOQaW3aJDBqAGAEBKtldWidOQsg3TMBy6UilW0JVmro3Tj5ip3DoLjItrTI5QIQuKY/CfC2P+DQjN61dp+70LSSFdDhzASAFlfZCmoVBxNIxJdKtYeemi4x4+KlmkpDQKTSufYkXgAq0XQO1gRwBk8OnVZ9HWxlZoxBzBlApQJKIIIhH2pPnA/DZDINJUshacW4atKKCTqTLGEgNk0xVjoKBLWNHWkoREBIYh5XQGUisUowp5iLSen3guvDxmo6Abs8A2S7pVJEGSB0U1lGOJXGFGeT1Fz3zutZtc46DSusCrZfTVZLmOd7TT/uGHxI91YLWIA5BsSrNp4x2105sBKeut5dl/jcB5sb8d7sh18MnR314Mrsmrcab1HgSvqOs/mEiTP3Wl2da6Y9wfUryBKf6KXqs58v7sfj4eNbycv+cJg/tVz+335bwav5u0x4/Ac=);lineShape=1;" vertex="1" parent="1">
                    <mxGeometry x="197.22169220131423" y="342.8143115681537" width="80.71105153592362" height="24.993969200472748" as="geometry"/>
                </mxCell>
                <mxCell id="46" value="" style="shape=stencil(lVfZctswDPwavWJIggf4nKb/kZk4taeunXGcHn9fuC4TA5I2kzdZxgrXLghOfPeyfXjeTCm8nE/H75tfu8fzduIvU0q7w3Zz2p31aeL7ie+ejqfNt9Px9fB4/f38cLG8PP04/rx84fcVlyp1vqBS+PP/DbX678XXq/1+d7ixZ6acjX0jAfY5+e/HQjGuA0ogERtQooQAjVK3AKHe1gGVKVgPXKgyAAjVagCaVQZJt0w9WECn0tcBEik3A9CsIgI04mgANVNO64CefNItEgsAFEq2cU07HQBAI04GIFroAgBCzVJJs+ogpBgCBVvXnolRTJ2izbpXCqCu+nexMWlaDXlIo4pvAMw+mZVJg2wIEH2rb+qwTL9CpXkXFXSiBcrdJ9EAoFaqwZcpg5CUneyyLtSQ5tiPgc5jkiwDCrHlq7YmAjapqoutaw9D58tVYoo2aemDLcsAnRvWgyg3gEglj7FyAxBE1zAUdhNSBlVSvTTxSWfkQSg6LkXIb6Wa2JC0cVBB3U9XpUbBg8aVVd8kBFDmOIAM/i73QdvkQtJOA2ropEszxXVQVp2lmT1AQOOazu+Zh4gU1/x01SohLqlExQ2BOibPqkSdpjOVDzT9OUDyfbh0BoUUxzLyBsgUkAeVvA2pdQpA00X8mNGxwEAPJc9O6gqHQBa/PBRMDV1Gis2h4I2JK2Ur0ZxHZ5YB0XtggSeQbpXVetBPZFDWpB7c1legB90i3dYXBbJVj10bUYzQQfBjrJCANusgthXKcC2eLTIMGxCouRWXBOSaPEcjVL6K0JUGTpbmj/IwDtKVrc0faoEioHPksWa+20MmzDobxoa1XJzgBakBgj0hzY79OEbxsr0uIr6cgqj/yRvYx/b68H7de9rt99fb4u3//nqor65XS77/Cw==);lineShape=1;" vertex="1" parent="1">
                    <mxGeometry x="268.80611139352527" y="349.2863813418444" width="15.906290717863158" height="51.51997201618474" as="geometry"/>
                </mxCell>
                <mxCell id="47" value="" style="shape=stencil(jVfZbhsxDPyafSUoUedzmv5HgDj1oq4dOE6Pvy+3C7kW5R34beNoJB4zQ2mSp4/9y/tu8vxxOZ++737Nr5f9JF8m7+fjfneeL/o1yfMkT2+n8+7b+fR5fF3/fn9ZVi5fP04/lx1+r7gqVPyC8vxn/SU4Su7fL19XwGE+3gBKpsI9wBPnbUAuFEMPEGLZBqRKpVpAiQCgEaceECgCQAwkBpBI6jYgRAqlA0Tf6nYXINGGlCI5EJIvFHIHyIE8KKurVPsTSqIATnBMpQdU7UwCnW7nt/WOmZhBWW3OekAB64XE9esjZJKzJSqVPKAqk/TULo4KIN41u2sLhDLcP4rtcQIscrYBsUCpKet74UQhD0iXyBuSMqxnodrXP1SKIB6nDTAJOIoFAMQyIiZiBIjke+knTxGk7BI5IxsmHyDA90mrPwVACg0p9KxQnaEuuKFtVb0ClzX1fasZ9qE2J7mur/CA1Ha7WR+Q2xGb/XUHwCP1f7O/a/66oZtkdBkoQJ2Z/bM6HeixMsB4b2m02tClGB0zrKeQ6+PXeZIBq2Mj2I0uC4j/7nrk7MMMFx0OaNh4O5LVCxIQgQzWqOMHpSDZTlhluYCQdMJKL2RlIaqRNAq09Qy9d7wj4Fk2XkIYzoLxluPadHjwGuWhJsd7mqcK6qOj1AxXoQjyVYnnfr3eV4CG1aJqbxIZznq9ClRTHwdFqR6VDEB1gXyX75EUyeAOQlmHJvIY1GLGqA1D2iLNnR6sq2hnQBJj41T8AXViYIbe+BmdIM0NH3wiPPCm0I//L5K3+XBYHzS3/7cvGP1pff3I818=);lineShape=1;" vertex="1" parent="1">
                    <mxGeometry x="248.24612185292813" y="396.43936549290856" width="35.818098673436225" height="11.540993137570467" as="geometry"/>
                </mxCell>
                <mxCell id="48" value="" style="shape=stencil(lVjLctswDPwaXzEkwRfOafofmYnTeOraGSd9/X2hulQEyNpObrLMJQgssAC147vX54eX/S6F17fL+ev+5+Hx7XnHn3YpHU7P+8vhTZ92fL/ju6fzZf/lcv5+erz+fnmYVk5P384/ph1+XXGVcp9AKfy+vsjUy98Xn6/Lj4eTWS7BLI883txc3ymKWa/7t769PgYKyQC4UKkAkLyFzNQEAApxNIASsIVOYkNUdAveBqRExQapCGVgQaPK2QAqU43bAA4UmwW0EbfbgOyP1MIg/jZAfJQaUwdHykqTJa41YuB0SRSs0z1SagDQqDgA41xdpUbHxNVKMXqAgLBOQbRO90oBWGiFYl8BkAWhmldHAmHVmDgeOi6g3qmKD6vkbYBo1HlFHOBBCiWbfD1QBUeSSjV5QAdRkkayOlJDAKEQvNPQBxn7LcKKsjWGsDKhCYxN+LjqG2BCAcmmq0QSBOiUrBPKZUVU15FrM0DlG8i9Uv3PxRlQRpnfBmSKxVuooIIkkUTvQwHCNMWk+CihBqF/c/M8wHTV9Hc12oagbwGKDasmU0DEJa/Gmq4B+cCUHSDCjjLx6nwIsFFrajjipqJGR2orYYo4SipMTivTeLNVD95ChtKnAJfeqsbQaVnpjIyWsQXIroDioHLL6WLVWKmMKEqNspUZpTJjrfwYQBtEsfUwMQOyVaMenNMCVWPd5BbqudlHVyYENd5ASTwADg/zqLAAIPmuwafrxCVIJp0i3eitNdWAD1n8mDi1YsBcTivpmwfH21NfHT1tURAFFDXPIrGo0QYs6KibLHFKPhqAUhw9cAboDQWN622o+2LUTSCXoqar9UG5LwgQfX7XCNW4+z6t1CPeip/IcofCx76iucO2rq3ApoWy0oHDmtnu0ocpWE0+ZUw2W8utbGdYaMqmLUwmxoe3u6cxgm/ExrW1ublvLO+W2jAuKbez2Y9HWo8gEdhrEFbF7K8vYVyANpZ3vzvKMpWr5iKTgatljKLvcc/o7uUnHIbC8+HPFv9Zrg/vX0ieDsfj9QPL8n//RUVfXb/G8P0f);lineShape=1;" vertex="1" parent="1">
                    <mxGeometry x="207.17368370721078" y="366.82678357321015" width="67.14569997012723" height="40.885996620971355" as="geometry"/>
                </mxCell>
                <mxCell id="53" value="" style="shape=stencil(lVfZchpBDPyafVXNqRk9O85/uMo4UCHgwjjH30cbMoAE2y6/cah3NOpuSTvlh7f10+tqSuHteNh/X/3aPB/XU/4ypbTZrVeHzVE/Tflxyg8v+8Pq22H/vns+fX99miPnTz/2P+cn/D7hInGdQSn8Of1QMmX+98vXU/x2s7uKr9S6ic+JpC7Hx0QtGUAUquAA/TtGC4hUyjIgFWrZAJgqyCgJSTDxeoO0HJ8Ldfv8MDK8G18iheLiQwDxbRTwks//Gt9ngClYCoSCLMdzJmm2oEwdJNSC51hLXBCgjb/PoshU8jKgZ4oWoEXr4M69UxYLUBWBlKRTtypqqiLAmgixvXRjCIjhTOtA9DSYXzqiWWH0Rg1fQqzyRKUBqJZGbE8QxgDVkjtBKAEipFCyJ1zV4T4iUXFyVW4aAISbW2uWgIl+U1eJ1DAgWMd1hi1G5Se2ifUwzlw6IVvPtUoJyS9QtimpCwvoSvMV2XY9hhYStaQDFBLQiEUzrh4AiePxvKuUGOu7WJOy9mZ0B6HiqlTG/FoCuJSUuAg6kwK6bTS9UscnuCopMxFZrvv5poVmJA0dZzYlfQSjPqM0OT/IGAFL0nB+uBR6SXyOOO08EaUUxog6AzLuM58F6Ehp1nE9Qqabis9ZNMO53pJvAuoHNINU/WLvoKM7gjtw8O274FZZsx+88xwFgMJ+8GamjJaTMBx8NdoZb0sheQDSUmpefJpSBwbS9cgZSJNEc1fXHXaACueDLpyuSvW8Y94njsT1sTJ2zIV4N3X57PGFpdttlNzgilvGvLyKR+MqeaEytnPylHGFK2v0S4PupCifG9FxhPmEYaszX/2D+HDDL+JL422rqBGaQIe5zUd9XEB9gu8sKlAGNv7sS9vH8frh8ob4stluTy+Y1//7N0r96fQ2mh//Ag==);lineShape=1;" vertex="1" parent="1">
                    <mxGeometry x="368.7949427908982" y="300.1855972640042" width="51.86919866303265" height="16.30386312922178" as="geometry"/>
                </mxCell>
                <mxCell id="54" value="" style="shape=stencil(lVfZctswDPwavWJIgudzmv5HZuLUnrp2xnF6/H2hqlQMyFpN3mQZK+JYLMCBH972T6+7Ibi36+X8fffr8HzdD/xlCOFw2u8uh6s8Dfw48MPL+bL7djm/n56n369Po+X49OP8c/zC7wkXKKQRFNyf6UVxVMO/N18n++PhdGPfyFdlnwultG7vuf89A+RNA4BCjRUgVap+HSAh5KABTAxCCKV/rwNioRDXASzfcxrgupP3AZWaDpojNXBCjFR0DGOiASA5Yl2HwFSASykTa5d8hYAc7AlenAR1yNVSyXuKoNKFbeGk0BnYV+KsqUQV5KgGS71EDvhTM/miq0YRfL95qk3Zb7ROtsx25Bywl07wxr4heyloNf6nAuwbRR1vgYwQexOvD7ANvJsDvCFdRiltVPQRIVIAnBBAMH0gb3CSki4C4yCkCllXgTGNpMyG1gKIiBeJsuEd98rfB8TO+xngqKCgY9e3OUsZyksTB4weOdj8jS1XRS0aKpy4pOvQKG3ErD2K3cXVpOqQfc/yatU0VR155E/pU+zDPm7wTidI1AnZC401KTLmdbPNL+rrQYLuNWfuU2jtiKYBEgMUSBEY05zSTIgUMgD0CSwaC7aLtlgWZNAmdEJeTOZEaUO0PwcI5BYAD1ySsRMXegHnVFhkKREDbsvgzGwBKK0ymZuZJLmfuTb7i3EJz3LZLpqe5THAfkuFnHYpSt5ADMn3fpmnv8c7WLIKIGeiFuXFPJTVtoCghZus6yDLNqr0uBBpESvSoqDSga0q1Y0RXfv3ZkCBuiqybi4AsgYhl5plhig5Imuwy/mNUK0ATJ1HnQJV8Haei/1/aq3YO50hEZ0ImOrs+JdR5EAJnN1gREE8iNdZf+q8963Z6/zUBFcqZxutSoFBozl7ORK5ifD72dw4E5TseYzN9gxva76PmNned/lb48+nbsDb9vLwcd1+ORyP02399n97PZdX09WeH/8C);lineShape=1;" vertex="1" parent="1">
                    <mxGeometry x="369.2087563710422" y="332.6641360906581" width="71.33708314909427" height="12.308762404913978" as="geometry"/>
                </mxCell>
                <mxCell id="55" value="" style="shape=stencil(lVjLbhsxDPwaXwlS1POctv8RIE5jNI2DJH39fbk1tFlR3gl6W685kkgOOdQe9Ob14fb5eAj8+vZy/nb8dbp7ezjop0MIp6eH48vpzZ4O+vmgN/fnl+PXl/OPp7vL7+fbxXJ5+n7+uazw+4IToaALKvCfy5tAuf178eVi/3h62tgXqmkwb5TqvnmmUAZzSZTLvn0idqdR0rRvHynWwV4DMTh+JB3Xj0IJ2pc82CezB+dJlMb1s9lnFJ8SB/vClMH6leK4finUQDyFqbYBUJViAAClJiOg9BxeBxRSB2jUwA5BfM6aUAEcsiDlcYemFECQVEkcSSN0OrJ3uiVSBoBGUjygRsALC2L0gALCmq0SqgcIAJRAib3TDMJazIeR2y1g7sUpD0IMolQr1XEHo0YA1WAuxjFxFUep5d4dNoCIAMbWMAEANVrtVNsAsgJAI3ZOZ5gHA+TkAQUdyerL7VB6Se0CRrZaZsIHR5oSx4Aai9PVA5CMtPUAK5e4F+1u4pIHKOKSUWPaQVFYV+ZsAIwybeKg3ukkEOC0dqkQvAOLBzBoMwaQuXtjQHL1kLEP1oVcphNs95YHjh6Q0JEyteYBER3JJHAqUbiDRV0mH9AOzUuWRSkierdJdi0PSHaZeyvdphp3gToBKujGBlAHaNiJ2keXbUHgXpnmCkIAIRkLwpQdsa9O8+TCRwRg3+/bOk1cV0WdACu99oQ6OWVfFWBvFPCdrPUp8/qwYXkd2bdhy94841K9bAG8VvGS0nDDt8E4VR+mAgBS+5y9HYAQQH1nsvGkoYbvR2mjt4LmaiLryiF21du5CoTRgVLhIBA8L4rA3i1eEe3qUEB5spcru5pkIOpTg4n4asL9IrVerQQ2SfaMsAhUcJ516F9ZHfvd8jpH/fq1K9FOeutIH4FCWEjG6HDH75g7QWA4dhZfXkwBdS0/yjOevoiLN0dC0Gm7MQc8sCukTIdHPOZ5/YSkTzwxGfNG+h3iPbPormb22pw9areLvSMy9vc/v6B8bG8P759r7k+Pj5evPdv//ecde3X5NKSf/wI=);lineShape=1;" vertex="1" parent="1">
                    <mxGeometry x="373.93657195375977" y="342.58766079316865" width="59.949575047224926" height="72.29070722910114" as="geometry"/>
                </mxCell>
                <mxCell id="56" value="" style="shape=stencil(hVfZctswDPwavWJIghee0/Q/MhOn9tS1M47T4+8LVZViQPLmTaa5xLHAEhz44W3/9LobUni7Xs7fd78Oz9f9wF+GlA6n/e5yuOrXwI8DP7ycL7tvl/P76Xn6/fo07hy/fpx/jif8nnAsVNuISuHPtJISZfm38nUCHA+nW0CgwBYg1Ot9wHieBahNLvcBsVGxgJIpZmChULOAmqhFEEOlHixA5qg2AVko2Sy1SNzvA0YHsrfw/4hNgJ4nDoCD7oGidakk6oC42kiqAWSmAmIolaRb4tqct20AkxQLKDOV24BIxbrESxq2AVp81qXUKAOmlbhqXRrLMUELHA1AyzGjLCUKDsAUkYVMxbok1ABvpVG1MSsLIKk1UnC1Shn0p9YZWxI6NeC/1lGyzRMjNiCrlBZIWgvzeQtpWuxAMRRQkgUUiqg9hYqNQUkQBGgewJkCcEmz2qxLKjqCAJpESxt3YlQX3feCAhIuPAnepYy6LXnVY6YEmC5r4lRXgWLk9e2jqocBYgFRLaAsqU5bXY0Z9zNTtZdJDNRQ0JWKuP5hUN1FQ7AGtD9ByJWJgzsf6YvuT94ftL+rXEWfUgEBCHsOWAsFKFIMYa6Cm7sqAJ+k+IuhpVnVtoMovt10pQKfGs9ls6iwdiyqi0ZsLYjMK9ul2ld5/cjD9ljS/RwjfU71vdGqWxMSIaDPxC5ZWi7Uzf1r3nSKASKWqLr7vFIC5+vN4XU4wHYeLdja61SBhGll+vaHzamqHm0EAZKs8TkR/pRil1E9HxCmo7JjOMLxJcf5zlgYgH2TV4wV2MrjyGjz2eDwovvF+qNqiobOvBIXHacyKDkFZGeh4hASFWehQ4HXnCY3dAY4aW++qQqqis8fYfrx8YR7ORyP0wvw9n//5NOl6bnIj38B);lineShape=1;" vertex="1" parent="1">
                    <mxGeometry x="204.39707258742737" y="439.2913514025579" width="27.637388711229505" height="18.642636408198314" as="geometry"/>
                </mxCell>
                <mxCell id="57" value="" style="shape=stencil(lVddcxshDPw196oBBAKe0/R/ZCZO7alrZxynH/++unq4WLJvp3k7n9mDRbuLmPjhbfv0uplSeDufjt83v3bP5+3EX6aUdoft5rQ769PEjxM/vBxPm2+n4/vh+fL79WkeOT/9OP6cv/D7guuBSp1RKfy5vOFEHP+9+XoB7HeHK0CtlJMFZEoAUPr4ewF0Cn0dkDMFMYBcSPI6gANVO0NhymBJuuLcDEAqSQFLalTYAGqkCpakpKsFSCFu6wBJFLPlEMYn7s8QSLoBpEQdkFYO1VY6KqsEAVwsgCHp3CnbwmmhAecSqVsKhQJSksrAMaCO9jRQtLoIlIDwJFMTNz6CDZLurRApg+9XJg5W2JQEjBeKdnyjCCSh1nQqjWk4Y9XLVnRRPxEAoFCzABVdAFtUEzWn0kIV1awNES+ARhksSYvGDtCpgCqoNV3iKSAhLxeKjkOFXlZdi9VFwhGpxknWaaq8gPOInfI0XpA1dVsdQIMfcwhWe0KpgvF5zL9QoAYYlDam//CaIF0wJT8+IFlU6sWNb2D9KlSXFTohdoKTncBs/Oz41qhZL7MyAmHRkw+LItQAg1a9hjRvCtoiIbbGaZrvgIPWzJ8HMg7e+yrVPbFOiwGXWY9+F3k6BUqwKOPIWEjouYiENCJ32aUKnRZufBNgBpfRqSxnwqL0+wTUOE6oEdZZmx22VVBpo2Znbp5cFQT2XzX7Jem5k8CpoNKrdpPmNELiDjd5txR+zQ3NtQpxNFj3AWXY/YoDqnOvFK2QovatwD693ZDWSEUc+ijTVcMm4GS7MstS6gibeZ3Cdc6qjY5Yayw5gIwmaG2bXBOp57kgwI0h1OMMWHe+Se4I9f3pK89/APTh44b1stvvLxe06//9jUxfXW5z/PgX);lineShape=1;" vertex="1" parent="1">
                    <mxGeometry x="388.6031850287043" y="435.4970551477411" width="20.469877531502107" height="20.27523526125333" as="geometry"/>
                </mxCell>
                <mxCell id="74" value="" style="shape=stencil(nZzJkh3HDUW/htuKyjlzLcv/oQhRJsM0qaAoD39vwHS9fnVR75RCu2Yz0ZUDhosLZL4rP/z24adf37/L+2/fvn75+/t/ffz524d35S/vcv74+cP7rx+/2U/vyo/vyg+/fPn6/m9fv/z++efv//71Jx/pP/3jyz/9L/z7u1wa28gulff//P83W9//94u/fh//6ePn8/h9yfhVYXzf9nkan48PXo+v2+qn8WWb9PfrVtppfN1ah/FlG/tpfNtqwvF7OY3vW1kwPm8lncaPrRUYn7ZWT+Mnr3ffxnk+9psyXgusbZ3nYzNMcAArnG89fnM5fm55nMf3LcMCxlbP+pAmblDX9eZ9WzhezssUiA6sbUX0s+EB1G2e7cV3APazbvm8n2XfOpyXqfv5vIppII6X+Ze2NTDgvK3zeZVxaMiL8f1sL3U/VvRifD7Pp5rBk4FtS8a3LZMD2rqMH4eGvBhfz/bV9i2RgW35rD8tb23S+P3sf1pFh7irPbax5UbjRR/awvPd1Z932zH8+/2sD908JDhQG3/ez272AvoZx89tB32w8ef9H3ZeuN5+3v9h/o3//ll/hvk3PK8h/tzWi/szZD5j6zgfOd+xbvRhne1x2hdh/9Ox24/xGfczHdbxGG8eBu1L7H1aAKYAudXz/kzbTxwv+jPHjX+Y8vfnVtFf7We8MRfaS9Z4t3j/s8a7lXC9WfHJenjsF/4/nc93VfSHZatn+1r92IEX48fS8QvjXT37nzWOE38Rf3X+A/1PD+PngTBf4I2SdTzhpan+wcY3mL/Br1RUgBTIEV+YESECA2yi0i5AIbWqzZtAJVBc1amYQCajb4pa7dQWfeGBmp/VggUEF7jekZ8YYUp9q7Stc0tiyYz8TGBMFUg0pRVsrSJ2MgEJ3svAHxibCUi2ZN6lwBosfEg6th76+0ogn6c0HxbySkASMnPYBGBNoIoHbugxTKDJF8phIa8EBMNaDCywrS4gU9rRKeWQlXkUJxS+H6r2DBN4DWIPox/6ey0QArkBnUGqkfTgRjli+yuBLtAlHWDmlcAK2I6whQfb8zkYeCRw7dmKoE3bVjrpcoC/h0A/EqpXAk34AHMCJFD1HAxgU0A3AYm4PSPizE0hlUH+SYvuBwJ8COxsQP3QnKckBM9hqLs3AUKdFnblHNrkc5hqopZHDcJVS52ACSDwCX6p9SOXvBZIYdHtiBjXAllVwwQSnIMJjJBsVjjpUjTGNdNfMFETEPrK0t9KcLIcQfYhkDB/KVUBtCXkhc6hHSHw6QuE+ExA1NvWQHHav9B1lyhOu0DScyDvbYsWz2e6RL7VBGawB0qbTUCgg5soraFq4mxeg0zUBNo5AvWHe34pcN4l83yUipmAWFznkOUC8oXOqlGVLbP4QCDRBUIEIpBYAh/t/AXvknxhJHYzYQ0jH77w5S6d7WEwp+4CsgbmtOJJj4bpQNRWgz/oKmuAP+tY1SsTLWeLMwg32WvMABIz+dYemI+C2NsExKZnRehQhnLNhox3cjMzIOOGZExZakCzI26tj2LDkwDRfzVpDmTpAOXTNSvAsoSDvHctB8J7EiBGpgbPNxms16aezwQaqEbtYVvXQetcC4xDEZ4ECErXoTSyC4DF1RlyoIWYry4tXLgArSHkor5oYn72cHCG0ahUkzQdcAEAJy0kHH5wYHEGFHoUgEW3ophvLsRLBhRyOLhCuxTQjGsrqLchiz1MiSKQ4WABiSaw0xqmhiyzOOI0DYpIpugmCq6yR5Z7YlnaoUj4Ap2DQRFh4ebEbe2h8Od+idYQz4EhnEER9a0DqVaDIiNQLRMWbVAkB2dM52BQRCgvEyCsYcgisj90cG/I4g/Gh9FDjHuUlK8FZmCwBqqGIQuN0wNz0ZmCqxxHGnUtkEPRfxz6ey1QAiFlyStsqyELVY2OEWhG+NORm/G/J4vmwpir2q4ClPiZuTRZdEVewz3pUgGCcGu/gHCEl1asjuVtgbaawGoqQG5mZWUSTbuooWWVUFDbEd2venAMTwJEhKyQi5qFEPW4mkK4wRBudZ2SpQNUxF2BkPKEg056qOczx0NYY41QV+Y+Ei9Dnd2MpWUURb0OFdhQ4ipXsIfOpJoJaC/Ao0jySkAqTb1h4mcCArB6xbRsrcNtPZObtK1Lt7UnbNhaSxuAnAghEw1faIw1XCC0cOCUpiavhtEoPriAfKGx15ihS6QiN+OqIRxZwbYtryDKFxIWjly9hQ298UtTM8W2IxJwe8gqcLOtyhnv3As3FfOZAEG4qN4uwLokiV/bkcEygRKmhAcXipAmQJSXC4SDozzuQiBhS83FlBIfXFx0Yke2Au+dsAvt4uASElIXqpGQdXjrCngSICh9od6JD25q64UnzKze0USpt/LCCezIe7tAUG+C0m+dDc8myoseoZyAyjc14ahMlLsuRSfAypfDoonnW0sJWt8lnpIWXXbWpT8hIOi+5SOIvRKY8oV65yqFLnKmAzuf92CjXES5khhYL/NJydFxq83FKhZWd9fShMDxDJ+EYAFDTDf6KnDdMBl1WK+luWLvHNqXsmSGK9H3rVDYWXeLzmebG4kTggcB9YS+7zyTCNS7Lyi+b0gCr9DpPpgqt6RG0LenTbRL/fjvp8SMuERLzJSMv3HHVbvhJvcXWTaqjGtGq16hQj2528ESZGWYCifI6WBwn1kB2qXIS1c8uBnatryDiQijGRgmbsJ0IjAI0KLno1numTAiOqcFooIb9HxPIvnIHJYyGxMbw5wlGypAUHcmbV4wAdLWsa6ahWENYwYClTsrna0Ma6AGDOdDw5SoZOG0RPhCZ05Xmb6J1KCzxmFK1GrTQ6OkKzysoY9QL5sY494C1EOAqZBeFZ5MbrP3+kCoyBF06OHiy01xymscYUrk+doKreF8NaJNDbuLW238KkpobscCW9f01QRwDY+O2YcA54rOY4T+eUoIWgmLTkiFeM0vTIm8hlcVhwoQ6dWCX1qJi4Sh/3QlbIl9S2GeBagGvq6mBCZa50GM/1GBoTFucV+LCWhrcsIKRO1BWxPipdo0z1o73n2rVS+PmUCjbQ3O2E2Uux2yBPaF3rsm3SX3fNQYtoKb4QsNZV4IEIdlAnqFhityZYQ6fuc7LrHm17krsYXqLt8qLOHascGVmw4mIVscrtAXSgjs3FNuAnIzz+AKdv8U1VavorCAtp51BOsuIJ1kDb23CchJG1xZvEtiD4Ovj7rA+RwGez4XkDWwiXoPrfRjT6yyu0BsMuRdUoHOzZ5xSjf9p0XbI/pNr1pRzNf5WmUpGqcd39zo0vngGrc8RW01fHNjQHr1t2MlyAQkUzS4UlhbpY5v6IOIkFK0r6VlZL5LDZ33+a6HVlnjgojMBESXWuO++LjojlUU71qP50BfSErmNL5DW0K7UONMseyh43tijSPHOs1C1fD7CUG9qaCQA79kBkQJh7+kIKVURsZ+iyM0cFNAyaEs3/kuag5h9/6uyxKBhljDBARgvbVZXQuU8IWBIPHigs/kBw+i9+bu0PwguJ4iEFVGTUAK/yOjeuesvtXCLt4uy1rjuAnsOfS1jI7MSU5aLxvcq2YC2iK+0FXmdHFpD7c1hWbPjHmcCUgOdAMSXSD0Y1Nrgd+OD7QdnnR43mJOfs4jaRS1DIWgtF/wD1nWzT1CvX1csNYUn3xYXAnyS6zhDjvtUgpt7n6ZmB4RmMpVroG0XQr317xewNeV9UL0xJJ26oGmmNjylJq+XLEW3z5uWi3zug3V1+rB3z4JEF3kN9mnClBPud+VLypA6u238cOiiUmcemH0qWh4zYYqA/xWM7zmcpS59yXTdQZlZ31PKZkOV/cX3m0OCdZiMje+XzGwNp0DI8iljaTE7KoIcJNmxd4Aie/zSOXbC0g4n8g3ZjIzbc83f0qGf9XZzu/naNcs90fvgfno2HwQL/Rwk+2u4WAW9Fv7RX2PfHUw4Ml3k3f1QYOB+a6O2i/e43wk1vj7P7ifWiauCLJ3jZaD32cLLQ237yNpw+Xd+0syH3/fiecfrrfTA3+73oroCVuu94vEi9Ki0NLdmATbQ9NURRoivCXhCTnqj3RmVo4XSTPTyj27Ac/VhucbUHJlQiFpZaFy91PW+ZSBmCBr/1ZpfO1S6bu3S/EvxksHg+X+FB/D/SyL+HhPTuefG9d2VN/8RT66RqSZmWssjpd4akiTAFDoczcYSOcVaoqpcEuVMsApcfzd9UG9xfq5H2nkwyHeQkphELAFxjBrFjIK/bM/GCoPJmLjRYoKyu+z1YO4fSgExjt/20kfbKV458cvD4byfAKrxG+6pKEGwP4kvuvE+DwNdXDcsp1GnD91pdj4qeOJdXPzG7o/N5lkkfGIb6cCIH5f9Go84U8fLw6C8fxU/U+cmw/tGONiehpq7wnZtj/xwPHNePvh7TXlXz5++vT9Mebn/9fXl+1X319uLj/+Fw==);lineShape=1;" vertex="1" parent="1">
                    <mxGeometry x="107.27739774959468" y="457.8417731750412" width="396.0149233072757" height="244.73318313504205" as="geometry"/>
                </mxCell>
                <mxCell id="75" value="" style="shape=stencil(lVvZchw3DPwavbJ4E3x2nP9wleVIFUVyycr192lGxdFMc6a3/CavgR0eQKMbmL1Ln348fPl+fxf9j7fXl9/v/378+vZwl365i/Hx+eH+9fENf92lz3fp07eX1/vfXl/+fP76/u/vX4bl+OuPl7/GN/zz7ued2XCK/t/3D4Ir6f8Pfn03f3p83plHVzuZB39tXpyPB3PvSrw2b65UMg9iMcG76Mnei9WE5GLm78/CHss3sk9N2DcXCtk3sd3QXQ58ml0cfnDG9k2sJ2aXjvbRZXW51bXj+ScXgrDvLkayt3JtnwJ/f3ZVrCdll4/nX1wR60nNpeN6qsvi/PN2/dO+zQM7t4+uHaPfXKjCvvD5mOsi3jLi/7iePtPt3L47O8Y/MkJdcAmuUwCFucRzh8Q3FqLzIuRKmRmyc+hiD6U6oydk58WhFnOJEAvHrBz6XMDmUF0Vm65hZu3moO+5JlfpHnAzYtO1uHa86JHaakk2E3FzSK4LqGuel4RciMohOX88JQRrVQ5lQvmW/GF+xblDc/14cQnnJo7VEMwER9iDCYfIxSwh4UQ+2ALwGeVPbNqa80eEz1mWHDOGjFxlDenY9PHiMu5BOSCnj/dQvOsChXtyKR0dkkygnl0hGC7zk3MHhPcxWkuThaEvhacCmkU+9DbPZHOILong6+YyOWQZfL3PBWwO1XXtUMkB5VEEHxwIjFuY9e6C7mz0ZvNABqmL6EwYkLWmHQhcm00Kd3WuhGR28+aMamiUsIHYMHpCmhF/FX3lmKNI8yrKLuKboA9pHlXKRYY+pLmCbyS1HaMPnyimYZ2ZCdK8aWDKx6Tuuu7iTIwcsiSflhk2cNASjRNHK64yinuwMEva5gC4VQ6bPNgcUCfFktoSrXCQZbQuS+qSUrY8F7BzaKoqLrE0cEE9AZWdOJzXsgfkoYTlEeKYgHSxs4MpArRRtp2DQldQrJ6XcxUJUTpXOThIImpL9JlEARBR3oNpbbtedZtF5twBJeoITB9179zBsx5Gyik+A6pAzBVJLRVHZXrSk1wS6E5bcEZqLMQ3PcHPunclygjJAIaKnoDjRcL7TUedO1TuSgAM1abBU40cUILETQ+he8w4FDmlICD06OKAbUkwJihVWhKwragnFFZBwDZT4j5P9rLjDkEtKbJ6BTtR9xD9PMQdAVLHOvolx3wAGErG1PgJ4GQqp6EMy3HTtc06edUiCvSEKilZSKxRIAaLKBDQz+0IZEBb6RC4QAx9qhwWmAGZlnT9xN4Le+PAAPyrjK58REB/xVornxDsFdTXWZt29ko8LOqkdNk3rCx0UYxkSec2HewVHrVFXpkW0kwmh72+r7KsR6zfWMjA3hR/5pwpupbjdpb7TWI9Z/ZFr2e5X0XnjSUM1KoSSWv8e1kNbJGeXirJxk35YS+gvTG9G+sR9pVRdLAxET/Il8L2Taz/LB8VrNcl/rvsYla+r5GPipNPIbSPZ3mepbG9AtyFmt7Mxxx/7vtt+X61/s76d+SjqJI/a48Cw60RsBuRAKOEUc0LMqLDoqJGSVKjnTT7fDsHRa1DXhySLEqhMPFF3VbEF9yjETOoeg/GigVkRQnswZ+OiVk3qL9kaLTpLhkaOGBaKJ1K5Y829o40ejWjWo4VklsV+1FdiTTWWR+uuDil/+iBKT2xzUA3h20wc6UnuOEUZEM1FR50QoCoBEqNIQMSR7XlUl8US5WSP4dZAnY9MDU5hnLklpaf3fcrbUoX14PU11C/3EqJsmlWlgHDDfULBU/3AH2tkLtsA9Gdgs9qSctUpWsQKI1n2nCoqpNiXM1Hl02xX8/0YvQ5VHmOy7G2CW1X7aO8tOVkR6suHS2T2rQuFAwOklJ5Hs3fcohnvUixJMDWeg+qAgG21ntQ4Q3Y4mPVN22e59WIJUlUA8PMCG/V147cthjDJYFLo+tMTbYkg8+2dNmBgGy1N1Z3Xc8xrfMoCZ80JZcDD28BlVK/RCbEpns1o3VP9aHMpti5Q+FWJAqKQo1eubDj7lV96AuJblo09LWj1SRf+kjIXYNK9Wr6wqPBNVQCwSFRRytIvtRXRtZlne7LG0+gcHJ8VidG7FjljdEq4RLgWc31x1RnUatyYp25KBbTe0hT7W8ORfcLAo8AUVflANoz0S1Bcj4znkfkLmkoUINCI1cJAmMGSXP9LJmAJQaBHGQv3wLjUtqmuef1ofPLDEnvARWIojVl2Qhry2Q1aaKL/KK5fuwylurSS4p6D6M9Sw5ZvvKB/KJ8uPEW3VCeR5gZbz0qB88lC8pOYSvyizIuNHnTpXKHAmLzxmtcdHFBi9dBdGlJekpfIoMxHFQTGWSdnxCl2s3GBSWECQtXgoPaFKNxoRTKOhLXo63A4K2DOy2NTJudu3P7yqOzJjcMHcrTDvliXPJLI1wW3NHIpEaR3C/+ux3DNE8lcdU8oPc9k8yb8bIzAZ7kYWEZnOu5SFgUa9TjqcyIHW91uYy/X/Wdx/vRBCyyzhqzyCDDuXL5iFLwJB5xRtm3WV4GSRKxAr+jlmSoBT4Zbe757YMkWxdLv1O/i+PXsFFh7JeSJ7vBfr0m9RL18o6Zlk9L7YpylOD5Dfkgq4RnlhVkf8ZzEASJZz/524eb5vjj42cW3x6fnt5/pbH/f/5ZBj56/0lH+vwf);lineShape=1;" vertex="1" parent="1">
                    <mxGeometry x="477.9767839518504" y="435.3923262320243" width="158.46043280505432" height="266.2431377651187" as="geometry"/>
                </mxCell>
                <mxCell id="76" value="" style="shape=stencil(lVjLbhsxDPwaXwlRoiTqnKb/ESBObdS1A8fp4+/LraHtimtPkNvaq5HEITkkd5Me3nZPr9tNDG+X8+n79tf++bLbpC+bGPfH3fa8v9jTJj1u0sPL6bz9dj69H5+vv1+fppXT04/Tz2mH31dcUooyoWL4c/0nkpR/f3y9rj/sj8v1hXIb1ldqeL3kYT0zlQgBQUdApqgAkCmXEdAoJAAQ0hFgNrcMATmMgEoBGW0njDYkptCg0TyyOm1RAUBJHUApAaMlej+L+SEAQKE4niBCFbCUA5WRVrHQAEZnc1wdAJmJQWiUTMojoJACG2ryfiiRMrChtv56Bmin4SZAE8l4JTtTQLRqpjTGUlViEEtaKccBoAwzThvVkVY7MwNaW6TkAJZAgKW2cpxtwcDo1khGG2wLBdFqAOe4VqghQO3pMgOUAgiNlroKLQANsDT5YQwNuyRKIA2Uogcgx9XoE+gDgOWDhNWVgA25dSVdGo1yWvrrJa0CAJHUAcxxQMhyorgODQSw+jBmXDOpBFcqoUfODEhQl0olqR4ggNYqN05gYIOaCokHQJkxXWIPqMBoIzE0z1JG+aBUV34QYAOH0BNs4eoMEHaEk2/L2gLi224QXUIoFWD1JH2O19ZT5J4j/JUajL5qVxoBCx7uRZMndhbo2wArgisjIjjBMoJXNCXA65Rz6h2RUFZ/FiBW0xyvDGuQWFkcTzC9RRXCmhEX4Cq9h7rXALXxSibQGdnAvqTUAquchF4PZgBusazra6OnS+kRfxvAvhcwcavgSjH5K1nThdpENhlwAGsckQxI77Xnrk9h0eLgHWe+L6AGFa/GUyuLeukuEYvOWMH+7Mt0yrBXX5V18wqD/VcyaRah8hN8N2bTCWpy2TcB5kMkYXE1LmViNC71CFsMcIISrVu3GBDRnLGarSihoaF3pvNtuoLfCZ7sl6MEU68ROL2MCWdrgOXGmHZNZ4DU2yCb/f6o1kyxX/x6wI65ZrU/mkWmSPf7C5BQG2K5uvWoVZs+FoxiwlCtUvXlm/vccG9q/tzHjg/X28P/Lysv+8Ph+mFm+d5/ibG/rl9x0uNf);lineShape=1;" vertex="1" parent="1">
                    <mxGeometry x="241.81316633220695" y="655.3524580144463" width="11.866725932174859" height="82.08348689386185" as="geometry"/>
                </mxCell>
                <mxCell id="77" value="" style="shape=stencil(7ZxJ0hzHDYVPw21FzsNalu+hCFEmwzSpoOjp9kaakfVXPXR/be280I5DoqsqE8PDA5Dv8g+/ffjp1/fvUvjt29cvf33/z48/f/vwLv/pXUofP394//XjN/vTu/zju/zDL1++vv/L1y9///zz97//+tNauf70ty//WL/wr+9yMx0zLKkU/v39X8Ix6n//4c/f13/6+Pm6Ph8p39anoxZcX9NtfTkCrx/396lHDbDefq7f1rdjTlyf62392C/4bH27v38MR8goMOZdIB6lgUA9YrsLpGPQK9Wj3T851qPQHrUjikDnQ25Hvx+CaUVlgXl/QorHHCDQnRrlI9O29qPfz80UY9JHjyPdD85OutE3jKPcXymHI0cUaPdXyumI/Erjvks5H5Neaapy53p02tZ5pLsu5X5UUr55FPmGyR891R5K2Gf/TKDf7aGkI4MHiMEM7K59pRyJfMbcJn8KtG1TTwXkI0y9WEC0r9hP8CvV+yvV+OoJ6X7UtbBRm27Eu0A7MunGOPpdv6vpI5mcGcT9CS1u5/xMIIpAPRJ7gSECc7vnZwJioz2zF2hqct2sll6pHUHigzkmOriynfUpYCZHBpH1CTOwF7D/vn+0/USBJ4yhNrpiDAk09cYrZMC22p6IAZkA7dKI229dBALE6e5M1L6BwqidqwR2O5kKJ937EatuKwWIbnsi35BYoB75rnwz7pN5LODAhp19IYGs6j3MLdBH5yPeT9q0tcFJ97Sdyinw4uDspO82Pcp2ns8EorO4Bn7JfISAjaVdoN4mIFBgMMhtDgqYAH106xsenW5mojNuTU+6n+75sUDde3IRiCRQ3Ct1tIdmTmWqAOlSM+Qvr2S4EbS1haNNFciwrXVuX30VgCdYRKvNCcBJ176xyEWgAP6pp2O8CFACYWFcHFk/0fVjgayu0gQmvVI6unyDuTYAJwZFghNo8AQDOwIdTIBeqYydtF21FXbJ8Jf4VhMg6FCq06WBrtIwZHYCFKfLGfevJkofnTZyvggQSCxx29fFaxSwacPmo6gApYp57GO6OjJ6QnfeO2Beltt2vRcBcmQrg7lvq3lvcgK5KJQeCVUjn+joElASPSFpwmEhq4Fq5Khp1qjoBPIZxi9RtMIupbl183+M05bcSso+OKCkrjyFQQdKB0xAeAoDJwPOIZknFbwU9zMfC1RNBwxgDTgHEwjyShntIZkTuO/S4ncgPiRHjy3cSk+IqnzzdG2P092pbM5iLuAcoqH7pgKEl2LfUfkUmFvhHws4mzYBCruxag60aAJ6QlHPd8n6H0tklbBHEIaLyQkMJCpidLrRkXqMwZ1cRe1bzKEIFFSmqVHU7IEw39h55MWkJ/z+2AzDxckk2KKuyGQURFfOY5irJ6/XttJcAyjkfM3Fz4ZqVzfKOdcXDG5VedPOBF9xQIyjreOiLfEIhDAUt1kaQeuz2rElBWRkWQF9i0iW5O0VLowS6ZtjPmpFz5WUdasvAogSVgYrBwAw5yIM89H3RoUumbO8qPZrWIYiZty45sJAEwcYNRcxi0iwPmxrOtdbCgf6EzYgOL00x4GggWZFEjjfoPZucWHieslQbX3C96/u90n/wy5lneszEp5B/YmtJ34nKLiOTOT5/Wcu0p3vWv979CcyUI6bhr/+PiEPzaDW91KAVOxk66nsFDXbt/WUocUH50VprK2X7y2b4X72/qKfFamvqP7KoBr7H/EP9i8ImjT+LsCM7yP+MJ1ljGfr7/Zu/i3B74ddEzzXj53FP1t/14fC+UBUctP8P+GNqJRATVhoiurfLH5RlTOpfdWJ9pW0Vt4S8vZJ99PiO2HirP6wveB9HNcVkEIsjqNMzFwp89sr4uGqmc9iKBFPRqF8mB1vSnMZXiUire/TvBINxL4fw9EGpA+P8Dm9j2d7mAOY+vuTae650csloSfqxhIeMbBVMSGDDJswuyT06EGTq1xVDJErwkUVoJK6uXwhGieDrOiyGBMotEuuMDuZUk6+INjYT2RXuaq77v+MWCnCMZRdy3pGDuk3ZAxNS5dklzg3zC54T2YMct6M88UaiNq34CXhe3A94wGVWdDf5eYS9IwB2eKjROQXHskSkuBcXgJ7MAHRJfOppK0lOCdcd4fHM5ZbKoi9oBe2IB9c2k2l34UKXN6N5YmsgapNtLhVPJDMe6CbKVXbOSxVx9DpdKlxbCiu78DAAnWYmEB3AsTeLAHX/4HbWtSmW2RdKgrwGqv32lZ5pYCMgAmITZsA1YpLVY5rCdDBuYaRFrjq05xqxF2ffiYgxQMTIFhemvvohLhqCTQVoPhgAmoPCZHnasiSXcoYskpV4t0ECGsUR+6tgjabaM5OgNi96lpNMyKBZQ/d7RLbQ3fb+sKA1ETTLok8FZCTjojISlFMubSVTrpqEtYCkrjrHLyJvjhpb6L8BOFFltcg5TsR3tUvkedrGuMaN/3+foHutLWw8nVNftpZj3vqBDwbzc5YnQCXZIrPD7mCaHFaEqbOBRAT0Iw1I6pcNXvBGpXBSXQ1isbKF7T/dTUqEKnusqwR0OIMJErZdCQGiV15rcGILDclqixxpVqaIWOBoZa5UnHZwLqgysHUU/blvchAN7jEL23tepyhDNWlWTACWdKkZdOK9mBpmWzr7K+Ky1pA7PgNK7WUfHpw83VTCmp1ARPlVly9e3BNxHUrmQCSklE93+zMOge3rY3bkLV1YrIPmJpYLpKCml9dV2dCoDFcth5RLVx9f9kO01Ziax3dcNMy3GoBhfd3tNtqF8Yyq8xRvOjndAjDclyikYu6u869NMWVfStTE7r/FnSILMnajtrDCxpZ9GcFZuJW1PmuVBLLBPr7iW1ez7dO3J/gRrqYrgqajdT0ouwl9lKY1vbzJVxWcOszzxAEncxYZRHcHynrr7ILfq9EgVXWwTKl+Ks3AvHZeimrdWRH/ijL/lGWva//fyvLCraMXCaLbr6yYZOgawuJ80UZUTovV+MKtsEEmZXk6Zyk8WVhX26bkRlAnthIGu8sZSF7z9qlWTKyGln5ruXPMf5qfOG2paJcVK1MLal/qwPbg4tmfC0iJK6urYv9leeWK+ZK1bV1dWz7qZqAvmDHHaHZI+IrN13cuWvXDWpZyh2wTVErFOMF3pb3Hxwfh5bdDd/SRMd0+LwhPo/B1X1fNOxGRRwzYmNg9MW0hJD7QZ21YDFtpXlSNuUyUXyUDJOXi45NmjyvFJvGPcsLCSdGlyitRJIrudExANQQaYFiuF2iOZkVu6OeAwokHSSYGRnilF3He8TsKrmazJhoPslR+2NwW2dzCWJHXTIPUFzGSh7VTFp6vwdfqbA4AGkVKVjESX5oMTPnFtxcccSbLXyBfJyTlc8oNJ1MY/42u/5jc6zUX5td8WBNdZFA046yzvcXrIq6K1/T6L+lbtEN/BH5YdhG0G9nr7EK5O4JdKXCQ0oZ28BdX3SvXNT0DEVlhFTURJcAUSZNW8E739tS3H0eJkABpbjhhl65ed+lvSYQCSbFXaE/BQoO5lfXr9fPAt5jgayjbCbwYnhUd6lg6rgaEt0TKIrW7sBbxvL1GrF1VzCQE6hT0yMTIO/9Vpy7PoHmu6PT1oKUckvOaxQ0UQPk4r174VFnN5lmykeer7krGDoPExmGV4tryFqsjhXnKokWbNM9YTAPHRQvdR656o7pWOOpdMlDdKWuiDb94PqChBCuJzcWmbEVorsLrkZBdqqfPdIXcEKObHkhKdd1dPfdtUKMyXc2NGUMZkA00921Kqv6Rt/QtWY/udX6bdb6gltJW4dz95M9n2mOFJdnQaBrijDcDSMUH97KJBcB8hqGg7VGyZ7PjkkvPUk4obP+27f8Uotwdj3FjW+rcZ7PLA4viHLDoy8m+Wdzc/Yv8m932Ya5NprJXbcGuYuMsDG6uQ6TyPdudeXw3+LqMwEpcqxQz1cl6XBexlx0Tbu6K6sS394krXKF645zKE1hKLCwgFQiVisPX8kmEagUpBrXE+RiLyZC5nDFo/jqyiqpFuTJTfldeY3cX92lpxfXNfTes2t702p9fnG9n7vprtHBNXX3K50le2gaFC2HJxLhjU06BSqS6LNqnE4cH0xAXymh917RQF4pIlifrndizfbTthZVvtiw8jGzXgK0Sjd8/WaSWh73Ei026b6tayyetDVpOjD5rr7krpLhPUpaDWvIgsyobG7h94866ZCx+GHrhcyNSL6vkRpRCkRW0w2xvbhNLm6X+7b+xfdWXY8+O6rpB768MWrz/osZpKQKF5AsWfoQdT0ZZfL7SSnJ0s8m6xFbJAW2ge8XTAqPeAbvd1/o+3K9/eHt9uBfPn769P3y4ev/623D9k/fbyrOP/4H);lineShape=1;" vertex="1" parent="1">
                    <mxGeometry x="246.7956844086009" y="636.8864168845464" width="273.1626089796375" height="180.04195195561124" as="geometry"/>
                </mxCell>
                <mxCell id="78" value="" style="shape=stencil(lVjLbhsxDPwaXwlK1POcpv8RIE5t1I0Dx339fbk1tJGo7AS5bRyOlkNySGp3cvd6eHjZ7zy/Xi/n7/vfx8frYSdfdt4fnw/7y/GqTzu538nd0/my/3Y5/3x+vP398rBYLk8/zr+WE/7ccLVSKQvK89/bL46S///D15v96fjc2wdydbAPFAqw9+TTYJ8oBGDPVMfzCyXZti/qP4/+O3IMAd6PAIGMFRBGBi6Rc5CCiyOgUAQc6upxA3imgoKkQXUjQIiRS57K6JKPzcktABtApoiiVKjmASBMASVOC2ksPAnEaRuQK/FYGVJg4rKeJ2Op6jvzNiApxZFDZFh8iSmOLsVMGXCIQmEMa4okINMhUR7fkKWxeh/AJGO1Fm6BfhcgQnmspZJJ6jZAC8GFAVCFCgirdhQZy1ubDnLJr5XTAQII65u+OkAGenCRirOAAkg7TzFaQAWAqVg/sI+2jS32oI2teu8Zg7pwxH4KKfCHiYO19yCi3JS12mtDAOJ0FNjaJyAEsUpT+wDOT1NFlDaINvJVpvMdKghpuu1fgAirRxNjJH1XbQtWQAQAzUGeOGekZDdx0HdiYZYJIED6ysFnC0Ad1U39bhEmipIO72IBFfUKJm+mM2uxA6klOzuXN8BSLcnaozQ4ihODCLKgBOYkAP9Xdn2WoZQ/Zx8pmZQJbr7e9hadOB4sI26VejfTGClh3UnXqelxN13nfDeXPQLktqt0kz8B0kEmgE45IJ2g/WcEhAAnf3RNit1+hKamLiOm5+kuUEDhxWgXW42bRy6pdMbE6fKAlsJlfRrzsOypaGxq1EfSKj+0/ivAmdWZ4aBSDnHksGwbyKXY+k9/XwDVqoBk3iBtEd1yiW0Lw8tFtveFDypD9zMjB8ggeZKRgZYqWrSTveQ5mOVU2nHNnuHGmafthWFAtTuYqaNbNCjTnKw2GcZHry41Gnsk5SJtwHT26E6bqTprj253rvWqzn90iQ927mt8kL2q3J6PlrvlPmDjWdFA4GlGOfLIoc9+5fjQXh/ePqk8HU+n2xeZ/v/2E4z+dPt8I/f/AA==);lineShape=1;" vertex="1" parent="1">
                    <mxGeometry x="341.08901667670693" y="780.3653988300146" width="11.897703643510795" height="140.65100725011962" as="geometry"/>
                </mxCell>
                <mxCell id="79" value="" style="shape=stencil(nVjbUhsxDP2avGp8k209U/ofzBBKppQwgd7+vnIzDpF2c0L7Brs6sSUdHUm7yTevj3cv200Kr2+H/dftz9392+Mmf9qktHt+3B52b/rXJt9u8s3D/rD9cth/f74//v9yNyzHX9/2P8Yv/DriUqBWByqF38cnkTj9ffD5aP+0ez63LxSysS8kyF6oN2MvVOSyfc4U3X0SlQgAdZ5/AjDVfBlQAnWxAJlnrgOYgnUhJargSkV/z14pVQoAwJlytwCh1ACgUbFZyIkacLpGysUCKiUEYOJoAUKVAUAoW6dLphAuA1oisU4XjRKgRquUgwUIBXClJj5KHEnKZUBPFNkCyiTLOkDJb9mqmUF56I3YcqkGKh0AtH5s4qrGDTgtmaq9Um2UwAlSJ5knoEUMEF8PrVAFYY0hTCacEJ0i4Lce4eLaVaeQ1zLDfgJkqAIKKDauvc7ArQO6p6uoV0D5RFNtTxANEygIBWTrtJ4Z0QmVmnhAQwD24qphSMhpFbrkARXTtSxOEFQQTOLU+J0tl4qUuz+iAzKpDLB4ACPd0ERkD7iiTKH4RKAu2pi6FRpNPmqjekLrHpBBXLXAmrtSpQ5O6Ke+fwYogBuqfT17ACJT775DXAFIXLAPX0kLrISF00gF6qLkcFj1dRIPQInT19FdCVNDa7RbOb5CPhV8Zg9gFKUwX3+wgLRpubZ4tUbzVImPykBYsA8Ljdaol2MsZWN6YJ8IJJZao77ksBz/D6A6buAOoX3W63eY4/g6QPNg6Xqly7XFJDpSCXq7AoI7QTs1UuM0iXA2C6BJVAHdXknjFpAP0bd2fQKHY/EVpCNTA+SrunPYGq0ZFrVO09FGSQdyVNRjyLM+cJ9StQ4IPnHMVNAK0f0ixwmST39vOX6jsPJpcTsb8Ds4YYzzVgR0hWgIwH6r0eUOLYv6WuzoOtZHQO/x2jqtCyqa18ceZks0h9kB1hfkvtj9KiSfLtzJXinplQD5dL11bVSfIKd1gY42cbHOTWodED2XYp4tY71El0MfXDnypPKJq8TgPmGxf1OE5m47iVM1L5gXd3nYeKIXl0AdmGvgijNHysJL8wQD78bzMHe59VHBqxBu++NTzeLnEW/KDMW7PVoLY/OZCnPgW7fvvhgDbPnjutbfiGv3Xz+eXbXXP96/1D3snp6OH/rO3/sve/ro+FUw3/4B);lineShape=1;" vertex="1" parent="1">
                    <mxGeometry x="246.5728425384791" y="795.3979402512152" width="18.6082675381042" height="106.59473190210429" as="geometry"/>
                </mxCell>
                <mxCell id="80" value="" style="shape=stencil(rVjZbhsxDPwavxK6KInPafsfAeI0RtM4SNLr78utIWdJ2WMH6Nvay1mJ13CkTb55fbh93m5SeH172X/b/trdvT1s8qdNSrunh+3L7k2fNvnzJt/c71+2X1/2P57uDr+fbxfL5en7/ufyhd8HnAhJW1Ap/Dn8EymGf398Odg/7p7W9pVKN/aZSgX2iUSMPVOW8/a9Uc/GvlED3++BorWPgRpwoAVi60AslPJ5QA1UiwV0KsAFjlSjAWiMMvChZGLrQ+rQh1xJ7Aq5UI4AEH2WS6AAVtANJAdgYgSoFNnmWeOGAEzNhpUZ+qArBLeCwDwsW7I+1EwhQUBLFsDU0Qpam7a4q8YNrdB9HrQcQwcAbU9brU1TiUpjqtaWx5rnSoNtLbVKCa2QiG2UmvZDAYBM1SZOm7aiai2+RbuyCEOAI5nOVEEeFFCtD72PHjy7JQuQSAk5zRStD6IkgHxgSjZKwlRQlDIlmzjpuDTiYNIjQCih4lMWyh6AwpoKlQnQAfNFGS2/AgjouJiHi1cC1IX+kR0VP94uuByp8EdieqTdK5MWKIm3hzx8wj6CwmbPYKIDGPkbqCQPQM0ceYyyFQC1moY0tAkAGEx9kAnQQG8upDolIaBWS1Ndd8qIVLXXpxWQjDmxglAEgBM+yCDya6MkI/fX5kHXRM08ZToGrDJOFJMMZXNltaoPyOmpG1QyfKjbhAKo1VPdXP+j/SQMdSagutMp5RgeK0+m4PyNYwqd+X51g1nZCA218XY9l9HEGcrjaI8VWxzZXCsLyL7d+tswmwbflYs2AswSvGq+IL4CiZNSWN3FyR7LxzzeXqlPi6+HCwJ4UkUXFLaeUqy9SngU/2naXzgjFC+69BDCoP71hGD3o6ecAvYvvr+y4HyVQeKrg1pEsyz4waEKhpHkal6jadDQwFed2d2BXxUCyrEm2Z1/M3VQdJzG91ZH8gy6hvsgqfczP7ojqFqm1p4hS1fxtJKhx0vT2pgqbwCWa8WfGwPUjAuJRGePlL6SVPb7QSykJCjs7CP4vpKs+P2jePbm44/HvAQff/x9HVpx2j/qyukqIcAp9i5xV/FH+xFP68dD9hlZM835AA8dH76Eu2ivD+83fve7x8fDheH6vb8h1L8Ot4v5818=);lineShape=1;" vertex="1" parent="1">
                    <mxGeometry x="256.71421981495814" y="768.3135184799171" width="11.655223009221345" height="157.2425542519186" as="geometry"/>
                </mxCell>
                <mxCell id="81" value="" style="shape=stencil(nVfLjhpBDPwarla/7HafN5v/WGnZgEJgxZLX38ej0cC0GypKbsOMC7ftsl29yU8fu5f37SaFj8v59HX7c/962W3yp01K++Nue95f7GmTnzf56e103n45n74fX+ff7y+T5fT07fRj+odfM64W4jihUvg9v0mU5hefZ/vD/riy50axdvZMtQD7SLV19kq5PbYvhQp39jFSy48BWSiFHiDLX9wFpEZF+4jNgwAAk7oUKSkCVJq+rQB2yJpADIlKDyhMBWQ1N9IewIUyOFJRnyVJpCCtXIl7DzVQDo8BYkFLD5DlkHcB9ll6gFoagActVHtqaKUAAC2Q9ly1N6UCgHEz94ACqRFDWE5wRShFULnWKCcPQNxoFmPpAY0S8pCXBlsBBAShdoDqAQ0cSTNJf6RVHu7XWonFu1AwBmwsjVELmEvGTh6CiKDWon7wWSEE5NUAoXpAAHmVtjTMFVCpoKDT4AET3FoouFJbU4Gu1kCteEBBpRaKaQCAOrQ4xCDECgBMST2gIQ86dFCFK2WiGntAAxvCANWNASMLSOv0fwO9Awq6LEtzBYAewp2mVhCDMuWxqUGWjBopDgDgobLf1FPe0MCPCxFWgAyCtgYKw6xEK2Vq0aFwCcTwXwB3JF7oeB/AJG4IBKhnJPoWVTw1bPMXp7BstQPymcRSt6krDDoXrzZs2gqYraaYYk8NyRRB0CbZcg+wqATNJc9uE0xoeCfKPfUmRQaSOqz1hLd0WuTaSlMKmtx+H0aG7RwtHX0AJosjcJAycR+B1RjJ6EKxb/8C5R4HX4GA9WSi2Jw9g4RO9Y/OPgHKmV51qj7A/IgxmJ09WrVG4ObPA+2rX80BboQ6MC7AnjStUHz+oba43g9u9qgBbLp7hkJda/atOXtGDcCLULnZK6jvv95T/25vD7dL8dv+cJjv1Ovv/hJtr+YLeH7+Aw==);lineShape=1;" vertex="1" parent="1">
                    <mxGeometry x="437.31571238180686" y="784.9931321332972" width="11.26414616181546" height="99.81297518964516" as="geometry"/>
                </mxCell>
                <mxCell id="82" value="" style="shape=stencil(lZfbchoxDIafhluNbPl4nabvkZmQwpSGDKGnt69caljL7N/J3bLoW1un3/JGHt53T2/bjef38+n4dftz/3zebeTTxvv962572p/1aSOPG3l4OZ62X07H76/Pl99vT82yPX07/mhf+HXhKrnSIM+/Ly+Ykvx98flifti/LsxdpRAH+0TM6/Y+2+87ppDWAYmU/QhEqgAIgcoIeE8JADFQDgMgTDGuAylQGleQSpzXgSyURqdDplTXgeJIRiBGKgjIFOqYBiEBPlRHdfQhVaoOAJF4BHKkhADN9FgZRTPtAVDIpxEIJCCsCtQ8AhkmrlaKI1C5l+MaUAzgKQIfHHMv/ysRyaEwVcoyAoVKgIAfa6O9AS06x7XFAXmdKGcLFLRCsIlQoKIVhDhOAKhvLVfP05ZAbZTaZWsBJBDWUihOKwhInNaa6aBWjyBKDUgWQMWkW/rXYAvAIR80JsaH3MVwLazBWSAB+dbE+WyBiACt/joBqJbSFCWslRqTMDmNDoiW1ykPKNOtRYMFMnK63qklKAKln1ALICDpy33HCyAjpyPFaoGKZEZ61G8HNcOjXYvJVl+FDdHE109OoA4q9mhvYcLArDMMwqQ9Woy4Fjg8fBwoPeyLA4KBVpY6pdrDlmsqYFZg8kgF2EZJvUJHe1th3JKe1AH5UOwQp7NARPNM6jK0mDYK2pJ0Kb0CWl0gD/nakYuJCSVOhzgzAMVEHnRQiiQjEArMdPveqAJSYaZDskomrm/y/jCdrN57IQd0Rsd1GfPgEkXgtNNMjys417t8ZWKyDZS62t61Z5LxXNdRGRSSlrY1d2BCnKY3hkOx9lU05glEk7tE38zR1cfZU4T74Xs/V10Kb+YOaKPMX2cQ99Cnp4U5KE29tdlrJCrMZOds3Tv4erYKx7ATi72vcW+D+3r4sSvwf8314XbbftkfDpfL+vJ/ezvXV5ebvTz+AQ==);lineShape=1;" vertex="1" parent="1">
                    <mxGeometry x="512.9401733300831" y="758.4291178531107" width="29.598844626308164" height="140.48100762019567" as="geometry"/>
                </mxCell>
                <mxCell id="83" value="" style="shape=stencil(lVbLjtswDPwaXwlJ1PO83f7HApttjKbJIpu+/r5UDbshbU+Rm2PPRORwSGrgp4/jy/thCO7jdr18PfwcX2/HgT8NIYzn4+E63uRp4OeBn94u18OX6+X7+XX6/f7Skf3p2+VH/4dfEy9RTJ0U3O/pRcnk/N83nyf8aTzf4T2Ty5oQycV9QqiUNSE74rJP4EotKkJyVHifIJ+DU4ToKAJC9sRBEUKjWvcJJVDTBF/Jt31C8zZpRzUBPFOqBu8cwCdK0eBjAPiyyngu4za+UtG2iPOLbXyjrOOvFEA83i35LYpKREhROaFpQqIGbNRTKJrQKAKjdo20piKSRwQpgi5yYKqoakxZJy2yBmDUbqNqT2Ck0krWIF4Hzq6i0srZ6IRaqJk6iDWASkKoOgcvvQC8ISFFnUOBA6Y2ShrPVHBvOmOM+cBtvDQ/m16DtohU2yP4TCWbeFDJxNjMNl/Uy20ehnd6onwbNROPzF8UkAxPQxBL4BO87rRuOjReij2ha4QImfy6cVAOjxLKEvFShUoVlDlnymateUrAp0nGi27NHGChY6RoVjPPa2h70/I8QZepzfPu3d7lsup10g2HJEZgLau4twFZRSQzjhzehIm8TqHbF4xUts3WzQjWSKCom1m8CDOe9/CCT7B5HGXdnLIkkLOdbR0Z+Rnc11YLQeZxAdNX7lJe4yO8uTirZ5WlCfB+jnbxaIM7M9j9VAqsrzjUDLul73b889j99/94efh32X4bT6fprn7/3V7O5dV0sefnPw==);lineShape=1;" vertex="1" parent="1">
                    <mxGeometry x="352.4197878635896" y="760.7525873893251" width="31.962165557147046" height="16.011655583475658" as="geometry"/>
                </mxCell>
                <mxCell id="84" value="" style="shape=stencil(lVjLbhsxDPwaXwlJlETpnKb/ESBOYzSNAyd9/X2pGptYs/YYua3Xw5VIDoeUNnrz+nj3st2k8Pp22H/f/t7dvz1u9Msmpd3z4/awe/Onjd5u9OZhf9h+O+x/Pt8ff7/cDeR4+rH/Nb7w52iXpIZhlMLf4wvtovr/zdcj/mn3fIIvYmXC5yK9XcZ3sfn7JYvWy/iYJNtkUIPETAyK5D4bVMmBGDQp8wqWpBEXUpQy+2xdIjPIkuYVWpbCDHzH8wrNN9mJQZM4O92jJLKCRtE4G6i0QgxU6uxDz1IJMdQkzJnunpl42SD7lvJsUCUaMahiigaVrFBUYkUDlgenGkapLl6dNzCpCZ1mBpYx054HI/RuQTI4HaUTajSPepu51GnF+d/gg38iEYPu5TKH1evBSB48JnHeklecES6NvM4rVC8pwtZuS8mfyEwmXHIDWCF7HpiOmdgcJU3SSeLGCrPTKSxxu+R0g4qj9eNRhQqNtBoGvgKelZvjbf5+WLT/Er43wCshqvubEB+vkCIDPjB/V4Lk+ETxWnA/nBFVAZ9Zfk0a4hvz16TPYhR5WdrSxT7wRqRoMHreT5LI4wmN1ls1L4BogK+MP87/APgrIpEzfp/xuS7uneyf878VjA+Lv9dXx/hfwRfAK+NnQQUKdGwZ9Yj8L4wPFVU6SGJ88F4aAR94vhp+n7VK50/Cer/Cz4L1q7xnrPWN7wfi6frJ9eRz+L7I34f+U/3p0oGfgY50MQRUxNHDGEX70uJOuiTtYR17kvdhY043DJJ3+sazrHMVmC55PG+Q8cTSrtSZp2neUnPlIwatnhvR2EwXV6Nypj741NjWky/ZUl31jsFGkjiffEHcPZWBsM9n6xTQwEi79+m9gDwGLgB5HSa+hFZRQwMlZHL6w0jkfGQ9bRxnE8aVNYXkogQrFHo69QN2h0QoHdP8sKlgELhBwrnLCRzYCbtLmZ32Qwk7ncZVZ3ACszxEXSbddxUw2ttiwFmtRjpc2NL63nXpvTueZwbeQmRbLkrO4gOexwd5SUyd+XD8CHR4WSm34xPHzynTToU7YO9xfCYJWB2UtdPhPWBv1kZ7lXeyjPjKOIonfccXsp+IfBh4xlAU4IFnNzqreDY6DCY8v3o82eHms9d21/H+8HFH+LB7ejpeMZ7+j3eK/up4H6m3/wA=);lineShape=1;" vertex="1" parent="1">
                    <mxGeometry x="411.97729117450604" y="720.6191448304721" width="110.24441315476429" height="91.38536463431001" as="geometry"/>
                </mxCell>
                <mxCell id="85" value="" style="shape=stencil(lVnbUlsxDPyavGrku/1M6X8wA5RMKTBAb39fnWZ8OF7nbIY3SLS+SKuVrBzC1dvDzcvdwevb++vz97vfx9v3h0P4cvD++PRw93p8t78O4foQru6fX+++vT7/fLo9/f9ys1guf/14/rWs8OeEa01aWVBe/54+yU1c+v/J1xPg8fi0BVSpYQAU3z85DyjiAFAkKQEkaW4AVJXaCCBKrCMgSmZ38NLaCKiSHAE4CXEA2BIu7gNqk5hHQBJPdqhFFABFCvFSDeLHO1goQ9kHLF4f4+BURckWxoQ2bVHIrbOTmBCgJHLJS9QRUMWTHeJ86yKB+DUYN0YytSxKAD6LGxPC6OWIl1yT5bstwEki7HOxx2nDvkiO5JxkSIgoxROAiocdtKfIeX5LGu1LksISSBTslV65Sh7DnFM/4Y69jlTNnKlF4mifEg1yljo6NJl/yHmME6PAxCyJBCB1b6z2QRw5T5Q2UihqF80d+zDah0LjG6SO/g+JcjpIhPV9LxM79m6Ux+A6Q84nmdTRn8YoxgcveVzfIu6Jrng8v0WEybXv2rza232JP31n12qv3cPnExL976oUlvGYjy5Lo+uHkW/O7puZPfDZrRE/a69994/SQddXFCw7PnH/mtzr8lII+80cbktLq2KyKC1i9m0G88DUHDsDpZnl8apc2Iz4eBiWV1Ydp7PTNC8BzDNZPaIquwsi5RyYs6YsYLPhaR8a0DO+c25PodC8kdU9Cni4kE+1gbmn6epBLmlULSqgllKI+CmSwEug5lNUmdQoSp8lAFFKRWXlrbxio8DrssO6o7152zEvFcxpKygRV1fC94BNkVJZCpIamCe6ektgzirymeRjjvy0eRopZuWGRDVi+asSSDZZNwSMNOUgrrFeD6rZusKOPTTsVl0z4XDqp91U7wvd39Qd8PPnkThLf0RSMEmF7iZSLth7GgSh0BqV0Z9Lv0/8M3XHQamEZPEgrp4/K7G7t0ddJf7PWMGtO2ZyXKbzN6mEn6X3bmu3bvGirxloEez1wN6sFUcy9jph3W5D0UzmH9ayaHfHCuAXNkCBIVGixdlNFc4eiKzBNEABQOoacx6wFrXNE5eNGqzDTWPW1MB76oSPxFr4I0KRR+1Cfcmoi833sdHeMAMyv60vwb1xCTwkWuplZ28gA21Vy3RYl90EKBKI2JU1TBsAexyUMs1XKq3y1fditNmB6XtN2DE1/rw3IkBnsIwg2fzDnrejhC0zIhJpYw5EulbKJWOOn2agdI4beje+nRGxHSLmg0WGvV3MiTDcK+u4b29SDM/2XOkMtE0jTQOwvqVN0m0Az+KwcnMDYLVzmV/CDoWOElpFXVoAhHzzAH4BsMA17JIXAPNSOxMH1gAYAEQg8zGuAerk1sgBbdoh05I1DRUMwfT+87+EXAbYHx8/vNwfHx9Pv9tsv8cfauyj04884fof);lineShape=1;" vertex="1" parent="1">
                    <mxGeometry x="245.07825405594122" y="678.7838210953828" width="114.93597764824653" height="147.83898688802765" as="geometry"/>
                </mxCell>
                <mxCell id="86" value="" style="shape=stencil(lZfbchoxDIafZm81tuTjdZq+R2ZCClMKGUJPb19tGcNazv4Md8uiby3Lvw6e5Olj+/K+mdh9nE/H75vfu9fzdpIvE/PusN2cdmd9muR5kqe342nz7XT8eXi9/H5/mS3npx/HX/MX/ly4QDXMELu/lxeOivx/8fVivt8dFuaeiXt77ykDQBeIvgPmJcs6IEI5doAE8rwOBAVKB4RAzq8DUf+WDohCJawDSYHepSTkwB6yEPcrZE8+rQNFo556IFOsAEjEvUuFyTsA1HZMVyDCKFVPJfdAogpcqoFyLw1dsyAgtag3oDJFsIdaSAygayKgUnU9kCkDLc1Ar6V5TQykaIGKwlpswuknAgIyVbFABuLTsOYBQBlXI4X4EBBsEZhdQiet+cDDpkHVuAlhGVYM+OEcJEKA+7o0SwMDKVvA402H2gMJi09LZbYAlEakwhbgDLXkBpcEhbXYMqNARNKo5IuNksMpmgcgog7kXPvg4qhRg9AlygDcqQJWG7XFYTVM1QIJH4QfMgjqO9pqvIjDmprSUAYK8kla3BdARAC34rsAPNIrD2WgULyTpI8Brqlz0SESboth6EEMZoGSW3lfdDmUEdpmpXdJ+yjs1NxS8gpIK26fTxval/so5UIJzTN1GE+4pe3nwJBy80gEpBGqdUmHrgI2LZovfVh1iKtgYuJq50qJcCbTwdb3m+YIx5Nsq7HOvgFE1bUidLWnCDYwhNQTA/ednVkdHMacrWCOMshMTRs25gEcr64djTmDrfr2sZs5KhNsp23dO6jW2peTNUdKa64uzEFyiW2x6jsSPokz5gI0o8WpGHNUcR+8rN0114fbvfBtt99frpXL/+09Ul9d7qDy/A8=);lineShape=1;" vertex="1" parent="1">
                    <mxGeometry x="428.7705165829784" y="799.2638766783618" width="55.87396957763508" height="117.97909743892706" as="geometry"/>
                </mxCell>
                <mxCell id="87" value="" style="shape=stencil(lVbLbhsxDPyavRIUKUrUOU3/I0CcelHXDhynbf4+dLdKTHVNo7ddaUYUXyNOfPeyfXjeTIQvp+Ph++bX/HjaTvxlIpr3281xPtnXxPcT3z0djptvx8Pr/nH5f344I89fPw4/zyf8XnitgqQzi/BtWaEMKH9Wvi6E3by/ICiCVEfIFbRdJ5QMgo5QE+SAgIAer3wDX9SfX/vKKp6hZY8nYL6Ob5DF4Yv2G67iU4HCniCQAgMW8UqeYDnIgQfUI35B0MBCRiCftFIhR4QC6C1Y0qQEhAZ1iGqBGmRBENQTlG5ZIJ9n1b6yThAgH9bGwEFpcwP0Fqw7KMpDGku7NZAo0wzkw5oQ42KSkdEUJOgGBS4eL5AjH4AGFzBsZwT2laR2PkX45O9TW3h/K4Khm60XgvOtjv39S+sRWw9ohjQQBFqQAUrQ/I2s2SggMI51ZwQOKpsrtEFhCnBU2XlMcsVQMLJCbWNUW9AK1p11SLPJbPpfQhRW2/ZOy42wam+tTmAGDJpNpMv6R2lDCoIkCtm7IKGCFRo9sPsEaTbJHd6FBCmqbO7bHY9dn9bxCoojPgio5q6Gn/io87V1IfkYFcJ31tS2liGeUWea2A7yq+GDYFo7SFeiuPXxn9HC3uq/D+M1E9mnjDAmrI5TkRO35y/7+Jzenubdbhn+LvfHac+WlkmR798B);lineShape=1;" vertex="1" parent="1">
                    <mxGeometry x="268.36052258059385" y="925.249420607417" width="8.926408500702564" height="12.620417176774708" as="geometry"/>
                </mxCell>
                <mxCell id="88" value="" style="shape=stencil(lVjbclMxDPyavGpsy9dnKP/RGQLNUFqmLbe/Zw8Zl0jnnA19S1NvbEmr1doHffd8d/vteEjh+eXp8cvx5+njy91B3x9SOj3cHZ9OL/h00JuDvvv0+HT8/PT4/eHj+e9vt8vK5dPXxx/LL/w64zRKagsqhd/nb2KUEv5+8+EMuD89XABSlZYsQCUXAlAZagFFWiSAIMMdqYv2fUBsMqIBpCh5EECWESygSCRBIyejW0Cf32wChhQbsybpZIMqOdv1Q3LaX18k2BTlIrnur29S7e8XlUTWxyDJprRUiaRoIEG1GSpDOtsBRSsGUPNMwjYtkgxLvDomFbcBXZpNUiuibR+gIIEFdFCRHClH6TatHdQmvZBB5GEBgx6pZKk26BFpoWvwTBpp7rkNKL5wI1JqtyBqm2cEGkPLkzmvQTcJ5EitSbJH6kg0SSvKFOwO2LOTGHqSbHeodZZyG5ClOHp3qaShe/U7FLQU2wHUsJKR04xqW2IQdLWaoVyTIOyWGpCdQtIK5jh6Q5oTqfRYBc07dDQfQr+2vqlbnwiRRpfsmEdH1RgSXPNIIkXGepdR6CbrTgC6TVBMfPAEVNl2G5SWaRK2cLNtGbcsSQjCahKk+UoQrp/jq9LulsHt8LrnXp179ICuFBCzB9AYXpl/EUNhO9QpWRdZioyrZZ74og6ZkQllctzQSa89gJugsCm0faqos25BIs9St/05Jhv3ylAs9zqdDCBGHH49K0JfzVvpnNpu3MbAAxizVS7dMEvp8MYQRdMrAJtS0CIy1R4rv12nod4DuOl5xT4vgPEmQPbEwy2C1kG9ZdBBTclicmyhc6N+GDbKj9tCCwcLos4BwKaQtMLZOSFu3NLDY0Q33PitpIHMttKIilmGtqoDKtNJ0LBu7hqAjmVcgjl0FhpkYSa9rszhxQTbc7iOfQsfmYduXlgRBFMZuHQn3UhTILKnONKqEJVUbrleuYtDnhNsGxClOm5wJUbPuxHa6sz0NiCtLHHiltirxnK7IiEUSbYKcNCVcC95GatpKuHm+uBnFYjCLg0rn5TrfBXYWe8MACRp0PMntz7R++0qPzDbkXW/VzzsyOzCMrqd5en80UM9q2OmLz0L59w7TJDGAKtR1ainQoTd5jRTa4ucDtsEifpODb5pAqUQppjjEJcujd7uBKpcWO8etgKVazDMzag4dWZvfX1TfpJ/N0OLsfOrz0+hQ3n5fRtvvRavH4BUFLG+eHuqfH3yw0mUF6w5swaKEBF982vqfwDw4d/j7afT/f357ffy//6xF1+dH4r15g8=);lineShape=1;" vertex="1" parent="1">
                    <mxGeometry x="247.7594907261173" y="914.4542479490331" width="96.9042928939748" height="35.47716483180989" as="geometry"/>
                </mxCell>
                <mxCell id="89" value="" style="shape=stencil(lVjLThxBDPyavVrddj/PhPwHEktYhbAIyOvv49GqJ2PPdpHclsE17bFddrkPcvP2ePdyPHB4e389fz3+PN2/Px7k04H59Px4fD2966+D3B7k5uH8evzyev7+fH/5++VusVx+fTv/WN7w64KLQi0vKA6/L09yJLk8+XwBPJ2et4BGtRlAEoptDuBOmQ1AEoU4B0gjti5xHU5eBaRG0QECNeBSblTEAJYwhDmgdIrdACplYF/VPlmPxolX7VulZB0KFMD7u5BUZ58TsK/EwflTO7Df5UwfFFAUYfV3TbKmAJ3QKNgyyoEKAmRKNslFX4EAQmxPqBm7FIijATSGWWiF2FaFPkkgDU2pZV1qnQRQQT3ONs89EldYqMG61DE7i36iDWtPMEo5Ubff0NcwTNlZLKBSAWFNkboljxZLBwBZo74COiUE0BOiB3RQ30p3sXzYVPx1hFAQf0QBmYt9F6YGfYpKCPZxjQiwj2uigsqVqotShF0vj6a7VremHtgHira4q8YUfMCux5Q6GDuzdx0jEcP3i3t/hF01UHWjs48yuZ4AElsSWecaeL/mq3t7BnNQZ0z29gUN2hGN1b5B6gtVWz8lUEdzeRd/Ge1sYu+GZlFio87iKabdT7D/Nr81jl42i4+t/yrUgf9M2YmEPCp8ll/29glJr9H6V/tEFbw/7L5XPuCLf38YHWPGLxf/BmdNGLJvtc/EQBUFL1p0WKG2rhrISYo+GDSJZ7Tx1/pnyMfq+KJjAdizF3WLPay3UL0/AvqVjDG64SOK/1q9m3gWUG8y5s8/2lfPd+UXik/3Krzieoi8A+CGFfcTieHqoUPYC7QEFZ3GyPWsloe2mCoJGyTVjA016UjNZk2XBZjlMopmC0BtNPqNbpGxIA+q6Nwg1ihVECXVjG2nrFGUdPA2S80W4MKinae63oW1x9KabeK0maIls63ryaa6I9rp9ATX7ip0SdVScgAZS9J1/mgx22/IGRNOi9mWhuYe7b0q7d2eyQWOQAVkW97KQdRTl03WfrSyHEZJNY2T4hGqCt3F3XYQE+SDqgj/DR26pGPGNT7Gg1wJ5JSC8Piq2ZWIG+XSh/i8DliV9JrpMpycdT5H0WXRQ2I2efWi1ZqQ2kl+l1VAQ/uKqvXdCQ2dIL5VLoITtXvxmS74XiTu7hTKKgpmAHfNoTM6AU5r9ffdUgFHFo/deKMyEnKJ/RqoXQOt13GvS/BQXKLkAOuYnObBKSWGdzv/f2v5MUB//L0kfTg9PV3uWLf/95eq+uhyISu3fwA=);lineShape=1;" vertex="1" parent="1">
                    <mxGeometry x="471.4325333199108" y="895.6741135600032" width="95.59436689893391" height="21.77702960549709" as="geometry"/>
                </mxCell>
                <mxCell id="90" value="" style="shape=stencil(lVZdU+MwDPw1edXYkj+fOfgfzFBohl7LlMId/x7lcgmxQrbDW+qubHm1WrmTm9f9/cuuY/d6OZ+ed3/6h8u+k18dc3/c7879Rb86ue3k5vF03j2dT2/Hh/H3y/2AHL5+n96HHf6OcTVTliGK3cf/Far+38LdiD/0xwW+MPnU4H0hn7cDUqBcmwARcmk7IDLV0ASEMK18GyCZSntCrORkO4AdiWsC8szC9ymR8y1HhQrIKBAbfKUE9hfi0nLqHDkHbkDC9oDK23hPQSxeyjbeUXb2wgHUzBEbfCYGBM23m/GRCtzfG0IDhYjw0fAjk2w3+PFtAarKHOTP5FqJVmUY8KmSrhbPIH+xLTDsX5HgTI9VhveNE3sLfhjoTasTV/yDfCJVg9cVuL81oTy1xAaeDb5c4ScavVUKwOWE0gpfkaNQaut1rYE95bVDgITc1N5LB4J4CZbQBFzaTYY54xMJuLBbNUCAY0PzWQkuwnxsAzAFaCg/w/tEuR1jWT0DdIyohMyQ8dCCgiqs1ZDOKeS5yVNs76CyRaaeKxU7uh2ogfagGXtq26BpVAKeDR5pWvE1WTzKR4duNnhB+ELRGzwyFW0pb7qSMuDzqwXnAlAGFR48wVQY9sDCE2YNwSmjB5iHjTYl0KjijUbzNAc3CWovrAyDph9Mti1YnWxms8A/eVtex+vH10P2sT8cxnfw8n/78NWl8dEst58=);lineShape=1;" vertex="1" parent="1">
                    <mxGeometry x="260.1189554507898" y="688.3461550785789" width="43.23718240201356" height="29.362552118148642" as="geometry"/>
                </mxCell>
                <mxCell id="91" value="" style="shape=stencil(lVfZbhsxDPyafSUkUudzmv5HgDi1UTcOHKfH35fqQo7FrSbI23o95PIYDqVF7l73Dy+7hd3r5Xz6vvt1eLzsF/myMB+e97vz4aJPi9wvcvd0Ou++nU9vz4/r75eHhmxPP04/m4ffq12t5GOzYvdnfRMo1X8vvq744+H5Fi9U0oCvJDzHl9D/7nifKee5QU7EY0AaUfVzg5QojAYiFGVuECOlMKYsFMAXgubgB4MYyKW5gQYgdTBIgYqbG7BG7AaDrAZxbuDF5qCFLqCsifLYBm2kLyAFcmPKjSiAF0yxWHwC/rkX8AZfUcIUN/FU4N9RzRaPaOcossULIJHr1bjiS6/wBG/rmamCeiqeLZ5hPGz8p16xWb7j0NRIFTDUb+KPFED9/X/8M+SP3/iXgPCJLT4BvPI52Pp4iDeypXg0waogYvsVAZ/Vv+F/IYH+PVs84g9TNvlWirCevMEX4N/3LXGVdaeUhQTy2w/AgUwbgYjAvw5A2RQIJKzRRotnjB8VWhuMBkAFwhAi9ZZM8GFDOAcF4nP4YAeyYEH02uFRQYsnBgrXRn6MKHu4MsRTGCmRVGVASQP3NX3dw9p1sIejUB5JJHgKdE2nsct6vIkgJF3TYk4rDs5NYZKxrG2Vgz5U38fkmjQ5hM+WeMoUMDdNp4LBe7Bo2t4qBo/mXscq2HgcoJHizQHTQRapLJjzouaL8TEbPDpeNpkyB9ie0Axfx/gZ5nujm+8G6YMPjAUVKFzt4GOGgApOOIzSHuBm+vQN4kO8PrxfV54Ox+N627n9315v9NV6NZL7vw==);lineShape=1;" vertex="1" parent="1">
                    <mxGeometry x="264.4196877014638" y="693.4286189658537" width="76.34897297247403" height="55.60952733867089" as="geometry"/>
                </mxCell>
                <mxCell id="92" value="" style="shape=stencil(lZbdUttADIWfxrea1Ur7d03pezBDaDJNEyaEtrw9Sj12vTI+DHfGfIqP/s7uIHcv+4fn3RDDy/Vy/rn7c3i87gf5NsR4OO13l8PVnga5H+Tu6XzZ/bicX0+P49/PDzfy9vTr/Pv2C3/HuNYox1tUDG/jG6Ek/158H/nj4bTkI3HteBZqcTug2AdKFxAztbYdkBuV1CvKVIGkVCn2KWglqdsBmqj1knIgBTkIU2xdQFFikAMnqrkLqCaSgSTKPW99iSBnpRA9n0HKQlE933Sbj6RhxaOEKVXPo54FXx/jNSNepOcr1B8oqOclQN7Vs1CG+mM/Qc2GGtQ/UFnxCvTzVI0FH2C/vB6bwITmgeOKL4hv7PUwqKdSWuWLbCVREF9/9Ptp2o4FX0C+idjVs8KNV6qr/UL1V4rJ8wnwZrLseVT/OG337LrBRhYUiKmuFx4YEFNYLXAGvBlm8zzDhWH2DUigAXN2iwajgQ6rBhfo0GFlWJkyNIiv8czU+gRqIgUJxOJHqDC0RLUW9yVNn+yATBY1n5OJCuhBTt6FRKc2fnzWp+mQm896hbZbi2+b1S2DPWhK2n/BjmbwAePdHpgTg700G5TmeEF6sjeuMDnrFl+8HrTGNsWuBfNJ9TFfiZPXg/RXKtXxaEptyyU4vqJ62mWu55kE6TeXEsdXsAQLG5xHjhTdX81n+wYLbsBX78ef8vbw/zL+dDgex7v88v/+8m6vxou/3L8D);lineShape=1;" vertex="1" parent="1">
                    <mxGeometry x="286.68493002040873" y="717.5752077387756" width="48.27148528647899" height="60.646161655094375" as="geometry"/>
                </mxCell>
                <mxCell id="93" value="" style="shape=stencil(rZbZTsMwEEW/Jq+jscfrM8t/VKLQiNKiUra/Z0wo4Am5CIm31D12Zrl34kHOHjar+/Xg+eF42N+un8er42aQ88H7cbdZH8ajPg1yMcjZ9f6wvjnsH3dX0+/7VSPb093+qZ3wMu2rhWJpuzy/Tiu6kN4XLid+O+6+8Vmo1I4XoeiXN4RKMXcbYqaA3kA5dbyGmOoyn2wCtcKAIrlq+QriEcoy48My70mC5UNZ5t0sHs0XxM8kJl+tZ0Q8c88ncgx5E0+A9WdKseeFAjjfUXI9rxUTVM/S66c6WJ9AwpYX0K8405ujCOLPxMXGj+pZyImtDwM9FCrO1h/VpxKb8zUjh87PM/3g+G2+BcaTZ3qr5IF+IqVs+QL8GMj39XH8KfEFAeWZ4RM0ZAw24QoNltgW9EOySwYzCSc4cpU3gtARBvngreAKEIQjbwzsT5b+Fz5oA8wXQI8ADUvJjogmKmQBtm/4HDI/8856nmGFNMHqDO9Bh9Wxzp6PFKoNDcHyKN90EvAXL6ADTZBseKRoFXyOpp4ZWLh94XpehzYY0c3hffxCFTmSZx+xCBXUXtA3LJ1MscRLP0QztORfb02/8/rwdUW7Hrfb6Yb3/X97pdOl6TooF28=);lineShape=1;" vertex="1" parent="1">
                    <mxGeometry x="329.1662790780215" y="736.5337297689055" width="30.999824456979468" height="32.33015628811336" as="geometry"/>
                </mxCell>
                <mxCell id="94" value="" style="shape=stencil(lVfLctswDPwaXTEgwOc5Tf8jM3FqTV0747ht8velqtIRIXk9vcn0LkguFwA56MPb/ul1Nwi/Xc6n77vf4/NlP+iXQWQ87nfn8VK/Bn0c9OHldN59O59+Hp/n369PE3L6+nH6NUV4n3mlUAgTS/hjHhFK8nfg64w/jMcl3pH6Du+YfLpNSIUS9xM4igoITCF1BGWK8TYhMjnpCN61kU2CLyTaEYKQA0vSTL50hChUwAySKfZLSkpcAIGJe0IWuAdX/44doVSVMpC1aXjFB3jQgZzr8YUcA1EpRIv/56xtTSmLxWdwylXwPr7jqhlYkBBnO0EBEziSZPEJmKLKvRJIwYarS038TBnimS1egIV4dWCJkkP4wBYvQE9ns6xESmA9joqz+AD0lBZtgffQQNbQsVnwhkG9Wnz2KAFMRk76gPiBNK30B/qEtrvF+SqML97iUQ3ylFZ+9sAPfiNfEijsShIsvgC8rPSpeOifoBafYT7mVT56mC9SLJ5hfFarvwcFt+LNeSUqIL+4VY8FHvmBbSO+g9fWpq943yrGJj5bP+QCW5gL7fivBIYHMLWMfobkyANHq7cpE2vRRikQbJMMDGcI0Sa91qIO9hCjrSpVtwwIKVDoZ3AFlomciI2s7X60fUGre+59wZSALSreNO4qESiLtWpyMXjUNio+WjyDsj65WC0exU/WdnfiZ3u9rI0T6D9de5zVB5SJ6dqz0h/pWVoXuhoCpuXi2vNJCOimuEUod1ZknwToYvPfT4i7+Prx+V55GQ+H+bmz/N++b+rQ/DbSxz8=);lineShape=1;" vertex="1" parent="1">
                    <mxGeometry x="374.4325319244422" y="673.4286100617228" width="52.988742108664155" height="81.28097367230703" as="geometry"/>
                </mxCell>
                <mxCell id="95" value="" style="shape=stencil(rVbbTsMwDP2avlpO3Fz8zOU/JjFYxdjQGLe/x6VL1xhiQOItbY4d5/gcKx1dPG1Wj+vO49PxsL9fvw43x01Hl533w26zPgxHWXV01dHF7f6wvjvsn3c30/fjakSOq4f9y5jhbYrjBDmPUR7fpz+OIOHnn+spYDvsFgHJA3EV0CNE3w7oA8S+CogJyBknQAgVnjMwt/ERsC6IGbJVEATUeM5tvAcOGt+HNt5BdLp+Mhid6ZvxsTDWwGPdMe5/wqv6PQSDHyy7Mx4LY4379rHC5wzJ5DMp/NzxRr983d8cgY37Bq1oyY+m3ugL/lTht/is+5sZnMEPa36Ez2zoWdRb+4VnBTbwSek5ACYLj6qen/hh5a8MweivqPeLv6KRX6qlegKhSNYglIr9FgdYI8vrA+QCySAUgVET5E2DeacbQGQaUuUn8CaeVH4HzqjHFTkuBGoNIF92Fwbgf8STOKCeKCGaEzQGCLVEvT1yxwlVBzhIxogTAlPtMYRkdEAadHLUGe+senrteVvRIpis67E6JoJ0yjNF49/jcxHwTCg4Y8SJoVR+KqZu4ZPqMHhjRCwcXgKSPUO5jPxZc8D2BdQjwqHpeWEoqwCRuXXCXx9OvwiQxfmddjtst9Mzb7mv33Xya3oT0tUH);lineShape=1;" vertex="1" parent="1">
                    <mxGeometry x="471.6932488751206" y="684.0274436815837" width="28.468230042440382" height="21.393925612320572" as="geometry"/>
                </mxCell>
                <mxCell id="96" value="" style="shape=stencil(lZbbTuNADIafJreW7TlfA/seSJRtRGlRKXt4+51sNJBx0h/1Lk0/e3z8M4O7e98/vu0G5ffL+fSy+z0+XfaDux9Ux+N+dx4v9WlwD4O7ez6ddz/Pp4/j0/z77XEip6fX06/Jw5/ZrhTSNFkp/53feNLw/8WPmT+MxyWvpNLxIiTAIBXKvYEKFbluED2l0hm4QClfNwienEkhEvvrBl4pcGcQMrFeN9BsT0hCCeQgtYjaGeRIEYVE4jq+9kUA7ygUy0cHMmglX/AF8tInLMzEDDIm7+0BGSTAlNnyPiHe9QUtmQpoWY02WF4j5I3/RAHGbxpcImXoP3rLK8hXSA0fYD3rTgXLRzTSlPgW3pFf8ShfR6Ws8i1oAbys6gmW3lM08dR+gXp6CnE1DzAeI4vTvAGZc1a0pnkG/l0TzeW+AP9Kvp+37xcyJnsAWhhp3paKAiSOyUfLC1xIWS0wKhCv4knwK8ArBU3EkPfZDpwHDbiVF27hfn4CXGvJdoeDlayYm8pvj1BpCX5+xjwVoBGBrUjULyFaslhVvS+qU6jSKdoqSW4uNg1yTbEPKbVF2r5+BHtALTOQocqXZHgHMq5NDd7waKrrkEk0PNrKkqxOMLx5TEvCNh5Un2xbzO2us80Xq7sMVaLyqfcvsL+T6PS8YtXi1d4rlKHpgJ53pDjhGAwPB+jW+/G3fH34uow/j4fDfJdf/m8v7/XVfPF3D/8A);lineShape=1;" vertex="1" parent="1">
                    <mxGeometry x="445.1309605665772" y="691.7402843539312" width="54.82485028377437" height="57.34126941687941" as="geometry"/>
                </mxCell>
                <mxCell id="97" value="" style="shape=stencil(lZbdbtswDIWfxreEKOr3uu3eI0DTxViaFGm2tW9fqp4Xi4ZP0Tv/fLQp8hxKg9y9HnYv+8G71+vl/Gv/d3y8Hga5H7wfT4f9Zbzq1SAPg9w9nS/7n5fz79PjdP+ya2S7ej7/aV94m+JqpSAtyrv36Umg5D8f/Jj443ha8EXIc8d7TylvB6RA2fzAk5PtgBCp9n9ITBWk5GXOeA7QJFFKlUrP10IB8IVK6PlK3m3zmUKxfAYLiFRWfC2gQrYFjU+gQJTE8gnwTOItz2C9jgLbekpEvHM9rxWriGeTf6IE88m15yNlUE+Vl7M8g34JSep59Qz4fiTHlo8MLDOrd/l95EnibPN3gK+r/COlAOqjDWDbgIAD/vV/0WEBGWmAMxYr0GJ1ZYFCFVg4z28Xko5oatmp2CwGFqBDri8pu/8q39CQ1XSdVbuh0bzypAANudnhiwIhDWm2ZgZl6Bk3z/CFJAr0cFxJyAEJfZfnQNIrqDBuQCLfB0StKJBE1B73GhINAEvOOnf7OdSqBuZu0bHZF5WpoH2pWl8yNo2zg8LBfaDy7PIb7xHvqSTDo57pWDPrxZ65jfEbz2CfUQmzN3wAmm4zx9YH7cNtW8ym/mhfahbvx6L/YiqudkohBxSnPyjV8EhA3z38fc3rxe2k+TQej9NBdfnenkz10XSqlYcP);lineShape=1;" vertex="1" parent="1">
                    <mxGeometry x="458.12427896133295" y="741.6329285535098" width="25.271231644809177" height="47.59957739373431" as="geometry"/>
                </mxCell>
                <mxCell id="98" value="" style="shape=stencil(lVZdU9tADPw1ftXoTvehe6bwP5ghNB5CwoRAy79HqWuak+Pt8OY4u+eTtCtpkJvX7f3LZoj8ejoenja/xofTdpAfQ4zjfrs5jid7GuR2kJvHw3Hz83h42z9Mv1/uz8jz0/Ph/XzC74nXGhU9syJ/TG8yBf7z4m7C78b9BV6Fco+PSk3XCaVQah0hKdW4Tkhf582EoiSyThCmnDqCFpKyTgiVpHaEVqkFQMhUc09QUvQFoSQ9oVGugMBUsie0vE6oVHmBBzdK1Bb4AkKOlMVH3EARmDQvUtoQnmOPL6QQH9z5VpMEEkrRxZuogAIIcS+6JlTBfbK3geEDsIFScveP1IALQiBZfIBBAUIirp6QgZNDoZh8iiIIwWzjNZoxQSkUX+SEfFbnznChogxcYDF4Jyv2mYXortTmI9bq8NcmFwRkffX9NLBpHdQhky6cWaFSlxEEoFQTUvQpEqA8Xjinzl9cc7LDFwrwfN9LMzEQxXfx1ntr37psZlUgUwmU+ozazEIVswklvSaS6RoQSvI5tf7N4Eq1eecIxCv79hXnA67jgx+ZphLQTS2DLkU2r4DmNHsjm6pA81L1CcKeaQtRMNSEtcIo/j6gr5jEkjo82lnMIq5bf7Xv63hbH/r8xDkB1/HWEnrF2bRBw4AXrkzQlN9dA/+Pt4d/O+fjuNtNK+vl/35HtVfTfiu3nw==);lineShape=1;" vertex="1" parent="1">
                    <mxGeometry x="489.4386726300413" y="760.7866669907064" width="14.810910375186268" height="38.03532285022834" as="geometry"/>
                </mxCell>
                <mxCell id="99" value="" style="shape=stencil(lZfdbtswDIWfxrcEqX9dd917FGi6BMuSIk338/ajYWi1qPh0uXOcjzbJc0TJk3942z+97ibHb9fL+fvu1+H5up/8l8m5w2m/uxyuejX5x8k/vJwvu2+X8/vpefn9+jST89WP88/5Cb+XuFop8Bzl+M9yx5Nfbnxd+OPhtOYDZen4TEW2+eKo1o6XSjFuB2RHqXQBrrZH3AxITLUPCEIlbAeEStKXED1VkJLPFEIXkCLlsh3gNIHcBRSh6EFXifuMtM0BvMBbEWYZHeIlWz5nUABFZ/kKeK3XDzzIX27kg1zElMZ6QT5MbuAZuJqH/pcm+RZv6tVVkGA+xfIe6MWDvqk5aqOfni0fQT7S1FzxAfhT12QaeOhPVy2fgb6eCtv+CNArkATLJ/D8QM7UW0hA/mHwZ6GMJkRTf+U3B/TSGTvwCa7HHCxfoV7cP1+Y4QJQAxX7ggKGLrf5ty4ALjA/DBSBC5ijFSCBgv9Vt+IZLkgrsM54WG+Mlmc4sO7j49BPRw4MINF29A3Ntc2Y245TS/cZJd+G/O0loCn1HooCPRozxb4Grzs98ERSC/RTQs8SyER5OKtIhipXIe5ljiSg5hrtPsZt8N3mE7lkeA9Um6dgNjzMR3cJmw9axcpXvofXXc7mL8ClylebP6x3EEz7CcbofCrp65U2B7b4annkuNUU/AhA55TxBY7CXQW4psh/NuiT0/envF58HPVfDsfj8qWw/t9+Guit5bPCP/4F);lineShape=1;" vertex="1" parent="1">
                    <mxGeometry x="397.50335249786053" y="700.9062075013246" width="60.79320158640462" height="72.63283650397693" as="geometry"/>
                </mxCell>
                <mxCell id="100" value="" style="shape=stencil(lZbbchoxDIafZm81suWTrtP0PTITUnZKIUPo6e0rurMFy/AzvVuMPussa5Knj+3L+2aK/HE6Hr5ufs6vp+0kn6YY5/12c5xP9jXJ8yRPb4fj5svx8H3/uvx+fzlLnr++HX6cb/i1cJViOUORfy8HgST/Pfi8iO/m/ZV4UKqtly9Uy31AMrXQAZKI630gFa8hZUpAQ25UuQNypaz3gSqkvc92IkBDU5JeQ6tUgAZViqkDtFAATusQVgOagDwwE/c2qXmNVbTea20kEQKiPaDEAQCNinggg2Iyi0vxQENxLZRd9V3icJvIlMOgAuRa02rytRNIg1CLPq6aICDNAxED0QGVEgqTUB7Kr6JEJArBAwGlOvkWskAXUK/2t1YPoJ4zF3nQIEhDo8AegNVnaVIPaIMNUYawokFjgHe6Pmo5dcXXiLFJeailikwyp4d+EAz4OWMNhPqhrNV/BSjSkIfBpLiBErWhRQsGeBhM4QEw+ICAZkPAZZopg0wXa/m++GpZjbz9yonPQ2HYD4l9HpLpBD0ddZ0R/17qso6222+QDbK+lmw7QMsD+1lsYYbiwdlDCYq7AEVYp7w21kU8wNvd0A6UQfSZWi/OcLTYZcWJo9sjSXXiKLP2fnhxBnlN62VX4iCQmYI48YAK2c9EpgRsL365Y7gX/ec6+1DcPi6b89u82y2L9/X/ftO2o2VLl+c/);lineShape=1;" vertex="1" parent="1">
                    <mxGeometry x="367.0447237081946" y="692.5434609329855" width="37.84796641929074" height="54.30789021653618" as="geometry"/>
                </mxCell>
                <mxCell id="101" value="" style="shape=stencil(lZbLbuMwDEW/xltCIvXiutP+R4GmE2MySZGmr78feQylFl3fojvHOZRJ6vJKg9w87++fdgO758v59Gf3Nj5c9oP8GpjH4353Hi/1aZDbQW4eT+fd7/Pp5fgw/366n8jp6e/pdVrhfY7TQlGnKHYf85tC3v9/cTfzh/G44IuQxI5nT5q3A1Ik77oAUfK6HRCFXP+F6KjIdoBkKr4LqN8MICWvFKSv+VrVlwGBfOh4VeICMiJRy6MKmGJfsXeOnAMVUGb7gQwScqTF8h7ywaxfiEFHa7Zm/Uw+Qb7fMY2kAfFs+EAZrp9SzwtlsAGexNTLpGB9bjOy4CPcYI0rHuyvtOoWfIECDdHWG0H+YZVPoAj6H4n7Ga77lYFLxKauK59IQX8CFTMwhRzQWyAx/VFyyCIoRcsn4EHcxnXBK+B9+3c58JC3etY2cRt6jsX2JwH9uDZ9i3mMQD9Xt1nsFzJEt9J/bBa55Scm/0AO8H7lJwL96sd8agdEC8gZJiTBKiIqDAhqJRECMZBEYrsHwu2Y+vokdnYofU0SFF33iPuUqk1iXpPhGYi0aiYVw6NDrGrSnDIOtrRq3ovhBTSo8jkbHplonUExDW1jt8Xnnucm8y1e+2uEUEAm4VZjGeAUf5rOVaTQJSYT7NdP3xVsbCVDhf70bvk9Xx8+L7KP4+Ew34OX/9uLb301X5rl9h8=);lineShape=1;" vertex="1" parent="1">
                    <mxGeometry x="431.5676930478894" y="685.842038762265" width="49.28760043450916" height="34.15583846735535" as="geometry"/>
                </mxCell>
                <mxCell id="102" value="" style="shape=stencil(lZfdchoxDIWfZm81luXf6zR9j8yEFKYUMoT05+2r7dYEy+zJcLcsn2xLPjr2TvLwtn163UzevZ1Px++bX7vn83aSL5P3u8N2c9qd9WmSx0keXo6nzbfT8f3wvPx+fZrJ+enH8ec8wu8lrlaSOEd592d5I1TrvxdfF36/O1zxpVLNHc9MLq8H5EpcuwDvyDkQwCQmIBP79YDkyXGfQiJO6wGRyYcuICQqsh4QLituATFTBUvylVI/QyoUQZW4UuhzKA4mrXy/bZUpgJw15dLzlQoYn21NlUe6cJT9wIOE3bD+Shnyfhg/ABW5JsoLX6hi3lleQH2UN+vJlIGEdDeD5bkgXqTnE+WA+Fgs/7/CK3xJlhcwPhPHYXyoH6Nn5RPIlynxUB+wX9yqccUnUH/lTX1KU9Qa7y1f4Hps/SvUj5pctnyGPDvLV7y/fT3ZYdtVAYmdoABD0Yaslo9QoDwYCjo33GBA6qC4IQcBIYtWvlpeYEH90DAFG1y1fIQGcR+v1ej5UtqpdltAGtB3cNYEgKPrDMWcYZE8qJBU69ExUETn8HAIBIGmlfQU60UqHrpids0ULncJaUZzO6BQ6PuY1ReBb+l9SPrGzLDvVcWpz/mTc760TfrgURtrV7Hcx0uy6wGym7s8G17AHs+2ZvPNeD0mX27Gscbb+2hz4ttt4IaT3kMfGifw8CY3J9ArSMjhgpqTTHsASHregGR4dHG694L/Oa8PH18TL7v9fvkYuf7ffn3oq+XLRR7/Ag==);lineShape=1;" vertex="1" parent="1">
                    <mxGeometry x="377.8377490660039" y="678.4375052262517" width="141.25953676479025" height="68.44856400366098" as="geometry"/>
                </mxCell>
                <mxCell id="103" value="" style="shape=stencil(lZbLbhsxDEW/ZrYEJeq5TtP/CBCnHtS1A8dtk78v1YFci9O5RnbzOJRE8pLiJA9v+6fX3eT57XI+fd/9np8v+0m+TN7Px/3uPF/0aZLHSR5eTufdt/Pp5/F5eX99amR7+nH61VZ4X+xqJYnNyvPH8iVQrH8/fF34w3y85R1JGXjnqLptgxzJ+cHAJyq8bRAzxTyeSCiDHUKizINBDCTABwmUxyOlRJy3DVylOBoUpuK3DRLV0YWqLgSwAcnogaalAJcdsRuTwEwMgsrWY92gJsSHYPkMHGbyq/V9QTynkS89iVs8W55BQJWXkc8k0F83VkFVUUXES7K8h+snE59IFZ6/OssjwTnyvFpfEB/W5wf+OkorHgs611X84frFxEfzC/3NK/0koDc9v4mn6hNVvO1yTf+wIN1qfVxfxt/7BRzFboAEoQVZLR+g4KwDBbZ1th1IeVwAls/wntHzGEGnOwXji+UDjqe3PBLcZ/lkG2JRQYDzuNIvxW6Q1WGwgQjVMcPJ9yb2/2tSO8LY46J2edAjot7To+akUgJFk0MP+fWq95TAkaq2xXGHjPliRwOVCRCd8sUZnoGotUbMtYSLsg1Pdn0Hcqa8qWLufWaLN9c2w1up9YQxPq7LcIuvyfBo/Zsmdc0wyZ0NiuELmi5r/32VHOxaLUDR8KhoWgLMbNkzuJngT03Hd3l9+DeKv8yHwzLJ3/63o7t+WsZ+efwD);lineShape=1;" vertex="1" parent="1">
                    <mxGeometry x="278.9094099464967" y="695.9091629680283" width="138.54717956124432" height="60.38655087427151" as="geometry"/>
                </mxCell>
                <mxCell id="104" value="" style="shape=stencil(lZbbbtswDIafxrcEJVGn6657jwJNF2NZUqTptr596Rl2LXr6i945zkdLJH8ehnD3cnx4PgyeX27Xy8/Dn/HxdhzCt8H78Xw8XMebPg3hfgh3T5fr4cf18np+nH8/P0zk9PTr8nv6wt/ZrlZyabLy/Da/iSTx34vvM38azxu+CFXX8N6Rk75BKuRLYxAyxdo3iJFKaAykUuW+gTgKvjFIQj70DXyg0vpcmBI6wbqgUQuuzweKOz4Dlz3l3PCOmRhcyFEVe0AFHmuKdheKuc8zxTZAtVCFvIuW9+D+q3crn5cc9r7fiq4mEiA6JqktHykB3hFnyzNIsKPSKq4KJXB/v5y+4SOITyBJu++D+Msuv3GJWIfPYvlcQE0SJxt/VDB6elvCml8B39emYuJZKIAuJCQmX9rGYDxNS1E+JcTzvr4A78m7HQ/8dSTe8hnqP0fL4/ryu/oVWL9s7pOhnpU390mUQf9hCju9FdAQ2TZo5bG/X+OnBtEKIqclJf8XRLYVkzQGqGI8uVaioi0IGOjMim0OQiCPJjEvJbtOjUQFnKA9xFQBQ5FqDEM1vICkqQZM1fCyW/R4o2o89D56yIYHolPNmxQwDKjyhQ2Phsa0BLTxXMdsj8/O8AXdv9op7+HQ3iwNq4RgF9UDShtQgVNjapps+E8c+NJu+TmvDx+L7NN4Os178PZ/u/jqq3lpDvfv);lineShape=1;" vertex="1" parent="1">
                    <mxGeometry x="316.5645865464244" y="701.67454147781" width="50.123717569451856" height="46.72851628937292" as="geometry"/>
                </mxCell>
                <mxCell id="105" value="" style="shape=stencil(lVZJbiMxDHxNXwlR1HrO8o8AccaNcezAcWb5/bDRUCyxnRrk1pZZIikWi5zk7n3/9LabvHu/nE8/d7/n58t+kvvJ+/m4353ni35N8jDJ3cvpvPtxPn0cn9ffb0+L5fL1evq13PBnxXlHWRaUd3/XE6a0Hjyu9of52NlLImfsIzEAREc+DgDx5AIAVFr+6wBBKLmvAamSjB5ipJq/BhSmHAZAdlRBDtUTjx5KJs8AUKmOOdRMpUJAKSOgUECAQtWNgEouAkAmVy0gegAIjQgdoCAP+qyjB3aOHKhcKe3CzkVNAJCIgwVkULkim0IoWwD7iqcQbCEKeCYlk82hkEch+UadjhsJhSSNCR2A0bNGiiaHRAk1RCFOFhCABy21yxYgqCGk1bX3gNiXbuSQkYdCUTavhOiqzNn0aAIt17G5LzXuahELKKAQGkE276pXFADQUm9kIIMOUinLyQKgWNZG/x4AklZptK+kV6CGCBQ3yhRA0tpBZaMCUGeY6qapAwpJAZumRoAcbNIFkylJE9/PGcQUQeF0jhrBjwmOxeAojDoTQpust0c729GukzoDACerlXriQOF0FRiHnKcEWnrTbh7KnrPNxo1Xt6O3ewkTg2D0KcZgHKxvaJldzQWIUWqycDVnpI42VTxnWWdU+o59IPE2HMB+LXuMNlvAA/5spqs9JFq1M5ahtH93qf2/vX5cN+iX+XBYF/D+f7tx69G6rcvDPw==);lineShape=1;" vertex="1" parent="1">
                    <mxGeometry x="479.5437030595165" y="659.2142785789295" width="14.011696033472845" height="68.93991269523872" as="geometry"/>
                </mxCell>
                <mxCell id="106" value="" style="shape=stencil(fZbdcgIhDIWfZm8zQAg/17Z9j85U606tdqz9e/tmZ0c0uJ47xP0I5JwEBl59bp8/1kNwn6fj4W39M76ctgM/DCGM++36OJ50NPDjwKvN4bh+PR6+9i/z74/n6ctp9H74nlb4nbmSKZeJCu5vngmZ6jzzNAO7cX8FVKEsBuBKrgKg9oAE8gkCbLeUhEoEQKSUDZDLeWYRKIl8MEDRmHwfyBrBG6Amyu4+kDxxMoB3jhwgYu7TVAsVkFcWCs4CTBEoF4RctKeOxHIf8IXYpikHikAIf+MNUW94AGSSaoAoFIE3AlOyeWU+p2E5S9yfQZcQILVuQOwZdJNoS9Ls3wA5u2XZTIHECqeJ9kDpSaauRiNVcAY1QhdBzeLBli5WazpkSsBLV25uRaqWRyFawTQzRRIQYirJzq5atkBqLfouwqUxLBepthWb10vrWZY6UOAeyKCCtDV625mm9gmUC4Wc3VLJMMIE1BsA2FW9JraVlQB7n3c9oMKhCLEvIM1zBPZ25/umNQ1tVEC2G+fFCC8g398O2hNQuQlVu752DBfA+q0ptnqO5JFmeuIuo9DY7KjY71UxdJV4EntifPWorW++R/dC4t7V3DlIB5cHx2bc7eb3yvX//QNFp+bHDT/+Aw==);lineShape=1;" vertex="1" parent="1">
                    <mxGeometry x="305.5502118190384" y="593.5522991528553" width="4.672539772115215" height="4.665236216357243" as="geometry"/>
                </mxCell>
                <mxCell id="107" value="" style="shape=stencil(fZbdcgIhDIWfZm8zQAg/17Z9j85U606tdqz9e/tmZ0c0uJ47xP0I5JwEBl59bp8/1kNwn6fj4W39M76ctgM/DCGM++36OJ50NPDjwKvN4bh+PR6+9i/z74/n6ctp9H74nlb4nbmSKZeJCu5vngmZ6jzzNAO7cX8FVKEsBuBKrgKg9oAE8gkCbLeUhEoEQKSUDZDLeWYRKIl8MEDRmHwfyBrBG6Amyu4+kDxxMoB3jhwgYu7TVAsVkFcWCs4CTBEoF4RctKeOxHIf8IXYpikHikAIf+MNUW94AGSSaoAoFIE3AlOyeWU+p2E5S9yfQZcQILVuQOwZdJNoS9Ls3wA5u2XZTIHECqeJ9kDpSaauRiNVcAY1QhdBzeLBli5WazpkSsBLV25uRaqWRyFawTQzRRIQYirJzq5atkBqLfouwqUxLBepthWb10vrWZY6UOAeyKCCtDV625mm9gmUC4Wc3VLJMMIE1BsA2FW9JraVlQB7n3c9oMKhCLEvIM1zBPZ25/umNQ1tVEC2G+fFCC8g398O2hNQuQlVu752DBfA+q0ptnqO5JFmeuIuo9DY7KjY71UxdJV4EntifPWorW++R/dC4t7V3DlIB5cHx2bc7eb3yvX//QNFp+bHDT/+Aw==);lineShape=1;" vertex="1" parent="1">
                    <mxGeometry x="305.5502118190384" y="593.5522991528553" width="4.672539772115215" height="4.665236216357243" as="geometry"/>
                </mxCell>
                <mxCell id="108" value="" style="shape=stencil(fZbdcgIhDIWfZm8zQAg/17Z9j85U606tdqz9e/tmZ0c0uJ47xP0I5JwEBl59bp8/1kNwn6fj4W39M76ctgM/DCGM++36OJ50NPDjwKvN4bh+PR6+9i/z74/n6ctp9H74nlb4nbmSKZeJCu5vngmZ6jzzNAO7cX8FVKEsBuBKrgKg9oAE8gkCbLeUhEoEQKSUDZDLeWYRKIl8MEDRmHwfyBrBG6Amyu4+kDxxMoB3jhwgYu7TVAsVkFcWCs4CTBEoF4RctKeOxHIf8IXYpikHikAIf+MNUW94AGSSaoAoFIE3AlOyeWU+p2E5S9yfQZcQILVuQOwZdJNoS9Ls3wA5u2XZTIHECqeJ9kDpSaauRiNVcAY1QhdBzeLBli5WazpkSsBLV25uRaqWRyFawTQzRRIQYirJzq5atkBqLfouwqUxLBepthWb10vrWZY6UOAeyKCCtDV625mm9gmUC4Wc3VLJMMIE1BsA2FW9JraVlQB7n3c9oMKhCLEvIM1zBPZ25/umNQ1tVEC2G+fFCC8g398O2hNQuQlVu752DBfA+q0ptnqO5JFmeuIuo9DY7KjY71UxdJV4EntifPWorW++R/dC4t7V3DlIB5cHx2bc7eb3yvX//QNFp+bHDT/+Aw==);lineShape=1;" vertex="1" parent="1">
                    <mxGeometry x="413.88352480731965" y="587.7189861645741" width="4.672539772115215" height="4.665236216357243" as="geometry"/>
                </mxCell>
                <mxCell id="109" value="" style="shape=stencil(fZbdcgIhDIWfZm8zQAg/17Z9j85U606tdqz9e/tmZ0c0uJ47xP0I5JwEBl59bp8/1kNwn6fj4W39M76ctgM/DCGM++36OJ50NPDjwKvN4bh+PR6+9i/z74/n6ctp9H74nlb4nbmSKZeJCu5vngmZ6jzzNAO7cX8FVKEsBuBKrgKg9oAE8gkCbLeUhEoEQKSUDZDLeWYRKIl8MEDRmHwfyBrBG6Amyu4+kDxxMoB3jhwgYu7TVAsVkFcWCs4CTBEoF4RctKeOxHIf8IXYpikHikAIf+MNUW94AGSSaoAoFIE3AlOyeWU+p2E5S9yfQZcQILVuQOwZdJNoS9Ls3wA5u2XZTIHECqeJ9kDpSaauRiNVcAY1QhdBzeLBli5WazpkSsBLV25uRaqWRyFawTQzRRIQYirJzq5atkBqLfouwqUxLBepthWb10vrWZY6UOAeyKCCtDV625mm9gmUC4Wc3VLJMMIE1BsA2FW9JraVlQB7n3c9oMKhCLEvIM1zBPZ25/umNQ1tVEC2G+fFCC8g398O2hNQuQlVu752DBfA+q0ptnqO5JFmeuIuo9DY7KjY71UxdJV4EntifPWorW++R/dC4t7V3DlIB5cHx2bc7eb3yvX//QNFp+bHDT/+Aw==);lineShape=1;" vertex="1" parent="1">
                    <mxGeometry x="413.88352480731965" y="587.7189861645741" width="4.672539772115215" height="4.665236216357243" as="geometry"/>
                </mxCell>
                <mxCell id="129" value="Actor" style="shape=umlActor;verticalLabelPosition=bottom;verticalAlign=top;html=1;outlineConnect=0;" vertex="1" parent="1">
                    <mxGeometry x="590" y="645.42" width="30" height="60" as="geometry"/>
                </mxCell>
                <mxCell id="153" value="" style="shape=stencil(lVjZctswDPwav2J4g3hO0//ITJzaUzfOOO7194Xq0hUga92+yRaWIq7Fkpv88L57ettuUng/n46ft9/3z+fdJn/YpLR/3W1P+7M+bfLjJj+8HE/bT6fj19fny++3p8lyevpy/Dat8OOCi4WkT6gUfl7+kU45/v7n4wVw2L/OAEKVrX2gntbtGyVr3wvlum6fiaOxZ6ZY1u0jSTD2TSjkdftAXK19oMLIPtj1a6TeoL3df8lUoP2ft8M+V2rA30Aixj51GP9Izdlnyn3dPvn4x04M1q/Ui7XXCIP19XW0gALXjzLKcdhfM3K7frIviEAZ2JdIye4nURVgz9RtQVfKKD6Fkt2/9heoTy1HtutHLXFQoI0p2QqKjQLoMNaCtBG6EyIWinZLmrMKtqQtHmyTqdMRkErvo2auXZAogKgqSVVXRbgsRKi5vowUYZ0uOr9oZdz5hA2Ttn4HqVYnms1cqdhrpsAeIIBcpC4AbQTuNiD56lYAI6fDeD0DFOD0MtXqAwMfOo/+ugLK4PDbgDYIfZYHlDgF+C8kimhLjbrzIcChoE5HG6UsxCAPXajbDsqdBJWGkkTxADTXpAwX5wAQVllMcgUgp7W8Q/NONwSQwYyzsKLSUIDYKGniEPUpoLuO02kI2F4BvoEKNfQFHq9n5d0Az2iL8qLj4JbygsnutGj0fD+RAKJvGQphBkC8pC3KxTsN+Z69CrsD0JnVXANlPEa1Nm2UVLmiWmrZj1Ed7IhmKnvlplqrg0yrcMxWiqm0SsBpjUm1UYp1qMvb2qcMnruK86EWb2u9MqTjVWxTAkHV/YoThypfwQf0dOHU5x1tolonO21ScEcv5LDAsS5emajc7miYDP/mch4RN1XbOpr1ijSAlwD1ymlrAXJarOEiitnzPNcxKm4Dqne5J9g5kT0L9w5Fhp5AHEcK3pICXJZ1GDVAeVPRWKeVl5HE1S+4easAQcek7DlyUnMgD3qsaA4gUGQom/ACgE4m09E2e0AHPB8XmngmetcIwHHeNIJxbWT2AMSqsXmSnFQBopi6uJDo4wS4xkn/d+PxDwB9+HvB8rI/HC73M/P3/kJG/7pc5uTHXw==);lineShape=1;" vertex="1" parent="1">
                    <mxGeometry x="323.5175750420001" y="805.3223149629828" width="34.50949783824558" height="56.99231369503309" as="geometry"/>
                </mxCell>
                <mxCell id="154" value="" style="shape=stencil(lVnLchw3DPyavaJIgs+z4/yHqyxHW1Ekl6wk9t+nJ1sYD8GdVvm20qJ3CKDRADgX/fDt8dPXh0sK395eX/58+Pf6+e3xor9dUro+Pz68Xt/w6aIfL/rhy8vrwx+vL38/f779/fXTZrl9+uvln+0Xvt9wQXrdQCn8uP0jV6nt///8frN/uj4f7LOEMNur5HBuX0XbbB9kkN/v0nWy1y5Fz+1jlJJnQJXAAFny7LHCg04AzQ6wAxC0cg5ATB0AXmkkAJU0BykVGeRI+Lr1GaDSxzlA1yMFeiTEZPvuAIjIAznSFnUHqDIyAXQZDlBEK2FesrzuADhNqJfL4kOSRJzOIN8c1oi4pXNASdLnxOEXyANKtQObfZNAglqDJ3cx8t63zz5EKoPZN0llpoVUYt+ChDEHiBZnyzJmf4PJx337YYV1sCfx6Umay7BEEv9epEbnbyaV3MH56ONJzj+i5Dn+hfJnZOPjTz4k9vvVq/UQJfEZ3cd/qwBSlDEEr+8oY1YzY1iGDsoyGAD9Zc4ZghSZEyrqSDqkEJb2IckpfKZl07MvYx0yCK87xHPOM7Smka7Wiv3eToxoje4+IEpzgG4Ce1bKY3a6Qh1JqqEVbc50HRIZIHlqNKUKX4aX09Zpa4aLcZa7HmmmS7FZZQc0yaQPFjV93gsIBUHIhzSV2Qfwl0lMzl4iUSGsl2N+SuoBjbW1ZOPKAcBUMkdPPugC7YNR6pyH0SSy1gyA+igFIqzbkVwe0CpI4janswdEFiU1UdkBGPPYYLv0TgCo03kJq/KwQiOqB1QGqNadDk4rEQEAfFiLjZb3Ac3IfEicssQ1P+aBGkxbt3XCOd15HnbmHOjNSjQXPz0DwKYwJE7dFBP4XAIylbA8gigZ6NqiB9DMpUU2Oh0dUEH+Ce09QHU+gF7vPMEdqVjbO/MhLTWqLNXJrwBbQTD2qbTsAYkdKS/ChKJmT/hlQPfjzAh8B1hWMfSsRPKAnrV2Rdp387JldNsXz9YSl2nMK2yuRGePc1FjXmGAbXaYfajV6HgfUPyEVSNVAQwvTr4Llz4ML9HNcFjeSB5aMxd3QLJx//6UGD01sCSz6XtbT2bpw96e2H4yjJuHWTqQJ2BB6XMeEr/LAPsdW7ctna1Yyz4Qd2m7D6i29R+XbgaIyxxKRwfkrcz9oZp0ni2tjkmNThq1+3Lj1QZqV6erfElPfkmPkfIOY3Rx/U3pgAjBcCeKmV7SQcMcjbAl0n7YjDSH6yRW/9DhONcOiMpqB93KSVKK1izO7p/czWTivUR1eQKoS3wAD9x2gkxndg9Y/cyqkV6J4cTuvgGHrETDEMTsNt1qgT67/PRP6DbFnl2vumpDZlhYQeYx03ubtogkNa95mW/GSzljp1NGjOXOjRMp2Xp3sGd6lPz0WSCQLKJeXsoesRN7Jxewr6T6g91cHOxZpYXl/OGd33d9FvYsX8sNVB60zGA/Swv4UIh44TyOoM1u1U7s3fsC2LM171ffqLxvjw8/X998uT493d7+HL/3r3vwr9urIv34Hw==);lineShape=1;" vertex="1" parent="1">
                    <mxGeometry x="440.5970227302623" y="797.0748395564203" width="85.2797255962837" height="68.56969667143221" as="geometry"/>
                </mxCell>
                <mxCell id="155" value="" style="shape=stencil(7VnLchQxDPyavapsy7bsc4D/oIqEbBESKoTX36Nha2bX7UyHnLhw20zUY1nPluagV19v33+5PqTw9enx4dP1j+OHp9uDvjmkdLy/vX48Pvmvg7496NXNw+P1x8eHb/cfTn9/eb9ILr8+P3xf3vDzhAuS6wJK4dfpQa+S4p8n707yd8f7C/kkrYzyKo3IF0nw/igx78s3qWGQb1W67cvHJAaAKJYIwCS2AWBFupIb+/vGK9QunZnILagjwG3U9gEaEFCaBKKSqmgfAYmqpEVqHAC5SyBW8hNaGgFK/aZxveIGCPSE1BGgVSoDmPRRJVcyFOqHYAPAz0wMkEUBUCST4Es6nZBE2R2SpPEOsa8BvwfIAND1yZ5KZQyNGKRXAvDoHwFdIosMrxhjBTAxFqsmZQy9KpmEavbsyWMgrQo+X2CK2KiPUotWd+n4fvcJeb9laWBQGkRNsUIGqcT+Xg9LA3klieb1GfQJEon9e1/r+Vk+EPu4vKbXvT+j/pEUO5evGe/L328G8oW/v6E+ncSzy/exvEeawjFs9jsDjDj4GUCiLXbWKPEI6hgRXpa4vKE8y8jFY1OGkaro8iWAfGMR3deAP8t3FqF1LVBb9+Py3rmwYlVGQTpSik4d7AwlQkAkmjLOUDDkCs1JMyQI0XkSOcEUi4oHaSNR7QCdAMyoDogTwFgd1SkL4toZngc41TQEBJL5DjBQyUsFcdwCGE/wbtz5CcCKHMC6sQOAs7jjOom9xUoNAYUkmwOSIUA5IE8nKLPSlu2XKvFYahkBjZ+A+dBpDfaeHCY/NHbpCZA2GrOrUkEAoyE2EWaP1sw9DVV1SSCuUp4AjauUZgA/IVQEMEpu29RxAUjs0p5AAc1qHAAputAL5umEze0Fhr2o1BAQXihkczFmVUORgTmAVo1XAyZO6A2FWck7EARfjHTSaQXNymuA99CMrD8wDjDtFZR2k16kgRNoaHfDKSe8xGH+s2Ai/58F/3MW7GN6RX2Y/hVrtdKq5XNpRf3ZmmyZe0d7ZlFG7/JKhC7mfGJPn9unPUIk9ilThTApxP65rgn4l3sQWxn4xaKFlSzd9gAXYwLjIMuiBKp6Xn2+t79Clbxss01lxslooafkDj5pKTT8xFWq6GV/BSvU3ldsvEPaSutfmlUTZZv+b+CzWukeUfOU+X3d+z0PcMeNd8iJznfLjgxyp9Hi4ifAWr1Emj1+hzA6zvODDSJu1gbpFmkHdE9Dh6rG17Pb3m1LUJ8pSbRGw7ncOg2+qDg2N75L7LhY6IHuBqfVY8+0Kytmj9MSNquFteJu8p0y/jDNs4Ev+wLW+KXr0gNgd3rmGTvy4OJzF92Rj4byjBYFnJY7H68DjoEuX6h9gLN0/mFmfr/RDcSsv9GmE3Dp4l2djU9hCritNO3591VfA1+W9x/nT483x7u705fLy//jp0p/dPrMqW9/Aw==);lineShape=1;" vertex="1" parent="1">
                    <mxGeometry x="384.60057128392896" y="775.6743820848201" width="203.5888465931082" height="72.24261176700293" as="geometry"/>
                </mxCell>
                <mxCell id="156" value="" style="shape=stencil(lVfbcloxDPwaXjW+ybae0/Q/MhNSmNKQIfT299Up41MkxkvzdjBa21qtLt7kh/fd09t2k8L7+XT8uv25fz7vNvnTJqX962572p/1a5MfN/nh5Xjafjkdv78+X36/PS2Wy9e3449lh18XXCQuCyiF35eFzJT735XPF/vD/vXKXih2Y5+YWpjbRyZuFhAoxzkgZUr2BN2i8ByQE4VqAYFamwNKpGyvVCmCAzhQFesClQTshZrlNFAH96mNurdPZW7fCnF09gGEoAnV5veXuX3PlIOzZ3D/3ojZ2DNVcH+JXhKxUkWaU4KsJHKBEZbuI5Z1BYRMhLJ1oajokA9C3caANSrghBjWIK2qKyQgEfQISQbQNJcyBLBNhM6UgLCVJrGBkEwB85rslXQlIkCj7HMTi1WqF7ceAQsS+2xTJwoGxOJp6kgcq9jWQNRRBWcAl3BVIwcyTgHdZRDDkqQ+JCtw1atUCBBX59fgz+LgaNWcE8RSoxo8ICG5dirZAioJolUGJ6vTaRSGGaDausFxlLZpyrnArb3iPwFNuxGuG83KuyesJXXaRlrCiMyUVuu0hrKjOqOBs7Qul7wjDfEASOuHAWGUoZXWTAK01Oso72ukG0wg7XHBsrQkEHBamyg7QByRmXZpeyXNuAicXsaA6gFo8FnmDNcWZdTn2SDTbYqWQAJOUBfZAcqoI7NZLDmAQIBOe+W28qE+yr7x1jD0OxlY3XBSK2y78abrNsjRDUVq34Eu4hDBVTNBvUGz3VZJFVYEjIYxm672AQ5XwdcX5acAmWpqOj7jYHhmb/3lCqfn4Kf5OzVbZ1mrh6L7Qz7LTRNJkB/X/JfGiR48frrQrsagM3/0AXbfXj/+vfZe9ofD5bF4/b9/HerS5WWZH/8A);lineShape=1;" vertex="1" parent="1">
                    <mxGeometry x="358.7672568196165" y="832.7657001955417" width="81.63310780963525" height="6.6087686785283495" as="geometry"/>
                </mxCell>
                <mxCell id="157" value="" style="shape=stencil(lVnbchQ7DPyafVXJlm96Bs5/UEUgW4SECjlc/h6ZLQ9jeafJviWz6rF1b2lO8ubb/fuvd6fI316enz7f/Th/eLk/ydtTjOfH+7vn84v9dZJ3J3nz8en57tPz0/+PHy7/f33fJftfX56+9zf8vOAqldpBkX9dHkRK7c+D/y7iD+fHWTxO4oVauUE8RCrw9Yln+UwqSJ7TLK8k6Vi+UMmztpGyIvkos3ymFo7l7df5/lEpZCQv833E7APfz/N9pFDgY/lETWd5he9PpPN9khAD/2Zvn1Rg+GSqs30yUwT3LyRtlpeh0UE8xFnfbBEF5BulMIczQ/8q1dk+RYbFrsqHQDKnV6kUIgCIt2hlEpABliDuhCqUQQqESnXOyVrGk6uAyBTKDNCRRtcBFsOzF1okQSdYGM1ubmkY+jqgDi9tgEIK4lR4WH0DNKi0pJFXA6CBAohssdCbS5FGiuBKya5UPaBWABAqsx9UKIDgTs3HkgEyyk4mVQ+oIJayWSl4gAKz9nR0Vtpecb0A8Kj/O4AgwPbzDpAQoPpo7QDghxqI2QMyKGI1LX4wALhStViKt5xg+ZUWQAQ6NGucLvgEJpBFPy/BV0Bd6j8v+QAB5rgl4zLQwQDFeZphc9M80mUrAoqrvZGP6gER1CU1NrQAGDhOqycMHYCUbp7BGCAhx6mnGGalAHLaAC16PzBqWcxLQkSI6EfM9d6ihVFs6GAV+3BFSjRqS8oVbFevg0ULupJlUPOACIqrxYZrowZgUL51IYddBxRMyXd2s1JD4ZqWEyIs372qOB0CKb6Sd5wVdJRyyaecARjpkBeyobDemx9y8QB4wkYh9wB0QvOs1QCCrKQjI/eFCYWGLj2LqaIr6WLWAAexDnCejoO7vx5QkA7Fz4ZmaDTrdbbj6r2OcfF6k9PRx3eAAqpGy0sR0FGfrwPYz5/dDOCE3tkXHRQNxGmhApsrrwNWDocBnf+UBYBm4oXO7DrAEYmrNx1hNDHmW+xqY6GungNaG9Wt4gEVkem8lD6FNDFtXXMDtNH2jiaIHDwAdWqRxax4G2Pjq3c15pU2Z4kLpgg7Sl8gOLPy6MRHs6LMABvM0AYh6BhhNkCGSocybrybRlHKhSXlqkLH2ZDvdmg2UaMRXD3TtZEdMYHqQ68opNLZ171SIJcRXzJKhEQjjqFw27LgyA6el9jciIYNHrm+2xJheddvU4FbGfbUzUZrNNsv/FZw4+Fh7U0+w7mbKbktYIAhzb7YxTaWQAf2dzSv7xEBWwh+u9KfoCT2q4/QIBuJy1Y4w1Iavb7B5l0Yz8Ft6aA5xa968Apc/N4m4LLu93MB7sJk0LIhzmMcO1jYsjrxBMWzfzvqMNkzLtzns28v/6AFY/X7usuU1TJI1bpaBhmy+k0wdlMdBfJ1QXD7VxYsbn/8/aDz8fzwcPketP/dfwCyR5ePR/LuNw==);lineShape=1;" vertex="1" parent="1">
                    <mxGeometry x="332.70396654818046" y="872.7500900539142" width="92.43216391835176" height="84.42076076438366" as="geometry"/>
                </mxCell>
                <mxCell id="158" value="" style="shape=stencil(rVfZbtswEPwavS6WXJ7PafofAeLURt04cNzr77uqQFlcSRMU6Jssz1B7zB4c5OH9+PR2GDy/366Xr4efp+fbcZBPg/en1+Pherrp0yCPgzy8XK6HL9fL99fn6ffb04gcn75dfown/Jp41ZPLI8vz7+mNoyR/X3ye8OfT6xIfKdUOXylWgM9UfH9+pOAAoZL0BLUoA4scMzH3jEIlwk/U0BEkfWiT6whBKGOvQ0+ITDkBQiCJPSFRBYRSqaSOkDwlRFCL+0SnQuz3CTkR91HK0t5sElKyX8iZMiCoi6EnFFUj7xNCbC7OhEQeJE4i+d4HjVsF0vBi1aeZ8QWoz5Ez9ZBbZrZNotC7MKoRuKBZ7ZW00Pu2RU1oiw8U5AGxs/gIQsQUxOIZ4rn0+NJO2MM7G1BUOtwUsMAjETGlXnQ1UUT9hSRYPDpfJdxXsrbMkpEgrL+KB1Uj7d+FPagsA8UVHsU/tmwu8BXoJ9reqPFPoK9oSZqCKSSo6Kmu8BXYHzYKLMCCzCs9F3C+p8oWX8Es8LaN3sfPjt78Cp9A/FXPK3s8rC8z8DWeCdizmq6aX6QHPX+lBwENTvuJya/OEdjfHFu8B3pzrfoW9VX/I17VtZ4YAD8m2DiguwEaYmI91qknqAJ0iK3magQtKEobQfPkLrBmkhZN3yRyIAcI2TeL5+2jwi6Raxu7MyHANlpC2zVmAsM+XeYlcV65Ilwmqk7W3qRQ25ttgtjS1MxEJKVA3CduXExBbeoXjFhVjh4TXJ+HccEAUVKnS09wCe6Zla1a3Sz47Twku0FJ24X38GZg+rZ37uK9wTuMNwuFgzccxUd7g2K0iGfi3l9uK94ePnuD98j+0iRzxzPCV+sv3i/HDTpbPKoCbuPrjkfzXhUn1h40n0aFehN/VPf/fOP9EK8P9+v1y+l8nm7ny//tdVxfTVd5efwD);lineShape=1;" vertex="1" parent="1">
                    <mxGeometry x="428.38505851498985" y="884.8687131052156" width="51.542345507438085" height="65.85492175579952" as="geometry"/>
                </mxCell>
                <mxCell id="159" value="" style="shape=stencil(lVbbUuswDPyavGpsyZLtZw78BzMUmqG0TCm3v0cluNRqojO8OY7Xuu1KHujqZX37vBowvBz2u8fV+3h3WA/0b0Act+vVfjzoaqDrga7ud/vVw373ur2bvp9vjyePq6fd2/GGjwmXCQIfURg+px0MIPV752YCbMbtOQCBQgcggcjLgJqBSgfIESItA2IIEHoTOUMJjokCQh2gJGAniEqQegs1QHYAel/JPYAhO0FoXmvvkjpZcRkgsd3XAGd5mEWkCpysiR8vZwF0kSYNQsQBBIhi0yRlGYBsK6eJS45LSJAvSu1aEFs5ZVOITgzYqNMAwhAdlxIC9ooQ5YaTJdYYegCXdsV8qVUwvUucoTqVzsWmlWuzOU9XdSD2MRCIp6ATEU6A2hrDPEDJ1wsic6PjIsBoVDuJU4fKlt4aVXEs6O9g6J0AncIp1XLfmVRAwSGfMqf0ldaoigNQanC0gOT0GSVfMJoWqE7QSm8xLiGwU2kVEPUuFQFxLPwZcNG9Sbutp1Crt5jdkLUV91SNBOSUuTTrpwz544daAzqJzS2ZxmvmG7pNVf2JvT/+6NHxmtCcd8eC5ofMeXLiZbzIJ2RHl9oNjcxUZd5gYzsJM7CnymB7V4yt1yy9SMxYi9JUtDSb//jm+T9AF79PrPtxs5leaOf/7ZNMt6bnHF1/AQ==);lineShape=1;" vertex="1" parent="1">
                    <mxGeometry x="355.39624582374495" y="913.5829331832376" width="5.992217895931162" height="10.842154984559784" as="geometry"/>
                </mxCell>
                <mxCell id="160" value="" style="shape=stencil(lVfLctswDPwaXTEkQYLkOU3/IzNxak1dO+M4ffx9oWqoipC1mdxkGSsQWCwADvzwdnx6PQzBvd2ul++HX+Pz7TjwlyGE8Xw8XMebPg38OPDDy+V6+Ha9vJ+f59+vT5Pl9PTj8nP6wu8Zx1R4AgX3Z36hb9j/e/N1tj+N55W9D5RdB/CZStwH6PeC7wGevNsHMFOVDpCI6759VAeld0Ae2KdILnX2jhw4j0SS/vuRpl979jmRN+eJFAGgREqx5yCTB4DK5PoMRUe5AEAll/uULrzfZ9ktOWkIKSSgLqq3LopWCgBkb2mohQLgTQ/AfZo0LMkAkCg6C6ggTRIoeQsIIAbZZKlmSHUq5I2HSAV4SNlSrYmWBABCtc9S0bSCLKmHbIhL5FAMleKG6QA6gHgqPdPFUQDVNymu95CVByTRTBI3AJCl7CiyPRKD0shazGKDjgIAsTWtVVpReU9tY0NcAsSph9rHoKVRAQ9ZNW+qNTXR7knUEKflLaA0pLYQVwJiBBCbpVXnuY9gism6SEjUS2tc9RnUXVWjIjZNGVCtCmIjaq0WQIRqtBgFVTjiJg+mmKT1hb0YSugBOjNQc/W2k6kgCuLhs4Bc2tRcJoq2KqBR/V7umZ5aFfKwmaNRPqq+0HvgSB41V52jZlLHtqzc301KC3Gp79q2lfsAZ7eloEMJbUvOtg1dHhxa4Kpd4Di0BWdnF2gTagGogED7ruTF2hfUZuyY5tpius8CCdvvV0Cz7pPZ2qMFbkn4Yq8ZRQkiNvYJdiTXBsdiz5SBNl0bx4u9h8vbZilRRpAy9Tym5HLrHjvxGiEHgRUX2mRdiSaC/Hz2SvKxvT78v/+8jKfTfH1a/2/vS/pqvmvx418=);lineShape=1;" vertex="1" parent="1">
                    <mxGeometry x="345.4813934671108" y="916.7623288587863" width="30.064778493492668" height="26.304336042376463" as="geometry"/>
                </mxCell>
                <mxCell id="161" value="" style="shape=stencil(rVfLbhsxDPwaXwmSevKcpv8RIE5jNI0Dx+nj70tjsYlF2YMU6G293pFEcmZIbdLN6+Pdy3aj/Ho87L9vf+3uj4+b9GWjunt+3B52R3/apNtNunnYH7bfDvu35/vl98vd6cvT04/9z9MKvxecKUk9oZT/LG9EyZY3XxfA0+75DNAzlTwCEglfBzSlpBGQAaAy5RIBtVwHZJsAmZIBAFMLMVRSAEhKfdxBlVSvA7RR4QHgS2gGgExiAyALMaiDStyhMEkDAP97DLp0YhC07yDjDrVSQ0fKZDIAWqUsIK0SqeHsMpDWlKj3EVCpgiOlQmVMa+9koA7JidAGgHmi0ZEK9VFAltdEXwbklf3vgEoFZUmJ0wjoUEBqxGMdzKiCHbSs+nrXAzMx2sJFPW1RQNRilKYgFNBV2hR1XZe4DJiCsESGAYF9XuoEgnaTCIJwMjW0Q6Me2OeCQJLjKGoXREeVc2cc6dpdIsgFPK0TAIk68QWNFpAl16hIDJoRvwtJimkVkFbXqASNMlUsagmVTqQdatTGwlmhBtLqGrUgaq89OhLHOriAUAtS994eAahRa5p8xqhh8mlwsr7u+X8AjWqgkmcVMYPKmKPWKIP1OfafausJr3zPocHxaubX1h/PX4QaksLa/c56uoEKVOqjELxBGsiPCOkYgPuygA1OpjqNVhnNMYV4HBoq7CSu5dAXFBpebqtbrd+73YAKz7Mh7lPz8OmcBaPkPN26I4Pv5/HZnQjE67MBx/Mju3bbCZQQONm66wTR+9gJrNQFW8fzJ0rAtj66/Dul4Wh+Nkd8EIhBgS8AfJQGmpxPZJARc8TCK2c/mVKXHZpqL9RMIelmUjgA+eg/X9o+AfCHjzviw+7pablinv8f75T+armPptu/);lineShape=1;" vertex="1" parent="1">
                    <mxGeometry x="444.1054954382121" y="901.5248887554546" width="28.29437111551647" height="36.42750295120754" as="geometry"/>
                </mxCell>
                <mxCell id="162" value="" style="shape=stencil(lVfZbttADPwavxLk3vucpv8RIE5t1I0Dx+nx96VqrCpS1hR9k+WhlhwOj93Fh/fD09t+F/j9ejl/3f84Pl8Pu/hpF8Lx9bC/HK/6tIuPu/jwcr7sv1zOH6/Pt99vTxNyevp2/j594efNLlEpk1HgX+OF9D8vPt/gp+PrAt6ps4EHymkbLpVaNXimFrfxenpvDh/yNj4qXhyeeRufEoVo8DIOvIvPgWow+EIiAN8pWn9EAwYElewDlkwBJKCqRzYCDYHBCbVRsyGESlK3DVqkZl1SlpFLrVK2SU6BSgAiUk6s6DKPqO4bREo26MIkIM89+xiqUAGJ7m2kaRgoDR3Q2runVWkQbNCzMVAaMnKpe60qDQ3VZvXS6AXTmqlYtU40IFrjYH026NglppRXBkh8dbC+cKkWYJBHQ1kEXZBBolhWtIKaViG4FjlFheph/t5CGgy6mLrULK3TJ1AMhbINugnsk615l2qHMXShZF2qOA89EUd/ggCXNE2uphsPOW6VaLRaagE2b5Vatk1AeWNQD8Lz9Jgt+vBy8winjTD6wmYQruQyTLXSFG1z1U8ERJP2LedSp4Iak1B0M5HxFFU11eSPgPLTXLsgKiVcpNUZJMjrfQOQuTYvFrNe1SU8R9nyWjQ1wKWaxyY1T7kyFHzfQIYD8xwt1ICBOlBs5hLD9aRol7BDS0c76t85U3K7AA893l+wVnIN2j6BlmIbfWhWH9ZSFD+0dMmsIOhpxSveAOVBAqXVCR1oqQ7SFyGgJVrH7ipk5JCuX83jGSRB26LNgbQx8+4H7FcZjTcAPFN3+AxrTSVju6okuIGuurBmBPnPY7oulu4MKpNXk2f0sw16xE228WKDfaeGTBWIIfqBkCD8P+9r/4Trw9+r4cvxdLrdLJf/+6ukvrpdQ+Pjbw==);lineShape=1;" vertex="1" parent="1">
                    <mxGeometry x="337.1434205174269" y="920.6334233257412" width="37.49661077893393" height="28.888913277274696" as="geometry"/>
                </mxCell>
                <mxCell id="163" value="" style="shape=stencil(lVjZctswDPwav2JIELye0/Q/MhOn8dS1M056/X2heqgakLRJ32xJS+LaBchdunt9fnjZ7zi8vl3OX/c/D49vz7v0acd8OD3vL4c3/bVL97t093S+7L9czt9Pj9f/Lw/Tl9Ovb+cf0wq/rjhJVPqE4vD7+iQKxfL3yecr4Hg43QBSoVQNgAPFtA3gQq0YQIokvA2InYI1SY1sDQAypWAAWZ8AH2KhEA2gCHUAYKFmna6BagBREkp2h5qoAqfVxSAWkKn3bUBmitbp2ijUbUAJFLIF9LHEOqBRShZQiWUboK8je6cjSFyL1FweCjRJAdHmIWtYIzCpk9iwyjsA8SalTA0kTi1ma5LmvoAoSadio5RmI9cBxVNUNJUgSpOLdbEDoKhoWG1ppEoVFJ+uFxdRQqWh6zkCJaaAZKZStiZxowzKOzWKNkqcKSKT+iDkDGAI0Cj1ZqWyD6/WAULVEihiH6QuxFg5CAiUg4+SmpRAtSpdglUNjsRIZmQUwgyQIc/rgEzVMo4rCWDcBLBRSoE68mFhkjIOFZ9KZXeAOtR2M6zWBy0WyDhNXPOAjmpJfPFN5Zhx8TkCNRIAmNZzFC1DPDcJ5HxIGLCkaB+5/6AI6GzA2AfXUDjBHjcJmZ01dDjJuO1Wx+kGZ42ltr4DyIvxRwcsRn1a+42laEyQcbX4pqg7oCg1NcnJTB9PVgFdRgu8GeEqcLrPtTm3LIE7xBC8MGUtL7SFmuymE001aHI9eyca4+mkjZlwBvQxHKwDgleyKXBghzo3nBnQ4Cxdkh/JbgK3Xn7Ry7EGDrFamNh63Qv0Wht5sULTE3V0INDXtjh6oILG9eyVSSs4AaHRQdhGSTODqm8eReZSYthQ1mq1AgfEz/aTmgPdi2qQ070KhTIuREZtFFAW6rIjqIpMRicgJYM70BCjqliMxXEc0rZ6g+ugAQ7F2hqY3fewQwc/14dxBtyiQRJvD6JN8jxTf1E/l8GROWNUkP0L9ZIxs28dGtwxPY8Ebn2fHQdGo9tc38kEPvVkP7RFDRDgpMzSOQMYysp/32R8AKA//l2cPB2Ox+u9y+17f9Gij66XNOn+Dw==);lineShape=1;" vertex="1" parent="1">
                    <mxGeometry x="345.14297618588716" y="874.3247249591234" width="33.44840339850066" height="28.259332739494084" as="geometry"/>
                </mxCell>
                <mxCell id="164" value="" style="shape=stencil(lVjLchpBDPyavapGM5qHzo7zH64yDlQIuDB5/X1EyGIk2K74trDTO6NWq6XdqTy8rZ9eV1NOb8fD/uvq5+b5uJ7KpynnzW69OmyOdjWVx6k8vOwPqy+H/ffd8/n369Np5enq2/7H6Qm/zrhRabQTKqff53+yUKp///l8Bmw3uytAFxrdAyoVWQY0Jq4eMEj7MkAGMTtAsR3GMsBuS3EAKdTyMsBO3NUBaiYuAFCIPUsWlYIdSqaWPECpAVqFqfkdjGgFtFah5lnqFR6pWdA+cb1QTiDThYqntV2Ivg+o1DygMozBAH34xDH1Bo80gjQSJQYsMdWgViEBWpJOGuoh48TVWTkzgJU6Ahit/kjciEEeJMcS5UwJFVCJWhp4A8ubLwehijga1EPIpCgJmcSfJ0HHqI1qCuuRJbVEwuE8iJ9mKvLPt0JQsL5RCcUMNdR65J/T/IQlQCRUqKCIbxjiQRkVv0RPNY4ExZwiR0bSADtY0v65z1WlKWDJVDFGBAxgL6KUNB6pgBhM1xqKP83+sVQ4w8fAfS7WxdL0R+ICLdJ2yF4aikOQuIHVKravFrIA15s/cizNjrJcYzO30gTKrnq7voJ4T+vlA+v7RQHv1oU0ZONO7oF/AQlWWx+sxcwPSEjtdqgbnRv1XQCnC4NXTbCgLXRO0UUTAjuOmojD9KLQ4DXFJjiwrIf5mz+S5nnaWHK8cCQjDllkvZlerohbKp3kpWTEKaCpcOyz2mAizEKzt+2h0F+Y575xAdh8ggyJ2NPaMwzhRkrtMlbeD5lSGJxt/AGcWgDBs0ufG8t9iiSO5tY7UVcoOrelKwtWEEKtse9Ys0Vz8IlCf6QOO6FJX72OGnwbGY3SCOsFUDRGtMgGc2zFmeL50euUcnxRUHgeq9zQ+S3rjNyiUA3TC36xMEAP81GdXzWWAKFuTBSCOMpxorWhXMDIaSSFEdWKm5EqrNK9KqzTok41epSRVV8Fwv7wm/l/AOzi/UPAy2a7PX9HuL4fPxzYX+ePDuXxDw==);lineShape=1;" vertex="1" parent="1">
                    <mxGeometry x="413.0850288770321" y="876.8773782854021" width="25.04568436488171" height="24.97398922852358" as="geometry"/>
                </mxCell>
                <mxCell id="165" value="" style="shape=stencil(7VjZbhsxDPwavxISqfM5Tf8jQJzGaBoHjnv9fakaWq+42TECNEVR5G291qx4zZDSRq6e72+etht2z8fD/vP2++72eL+RDxvm3eP99rA76tNGrjdydbc/bD8d9l8fb0+/n27ayvb0Zf+tfeHHCZeEhBuK3c/TGy/ky+83H0+Ah93jHBDIjQCpVCsAVJIyAFKkktYBORPLACieogOAQj6MgEhe4A7Gh1IoRwAQqiOgMnkAUKfd6EPFJiWmZACZIq8Don7PjYBKPq8DQupRnzLtHDkQVykUvN2iAq/F2czVKQ4vApipOOu1AJN8ojimugYqAQA8FWOSvvHrgELVFF/p9ftyaRDXsboLJRCj2MnS10fuX1hZn8YItawAh1Mv5Gl9IAH2eGfJo1lEbPOR4lhHGgMPIqpJTqPLHGBIxVuT9BMBKEZwFMYgsacAdgjVZvkCICq36sIkwLaULZ8vOJ0D5WVYgQAU1+k+TxyqbKG4LA0Q1hJs4lrtgVpStsdRMNQrVKwNYNjmoNOqojL6oFIPnc4LDVPRAyblZE2qQowIJ1ZXVZIyKI3oKLMFoFpqUR/zoN0H1RJPaZr3N0RR3zVrAgiW1WKFW5swkjHW1mAAKgtgBxW+PAKUUoiiWsx5VI0224AdtCGaWkqOEkqcTjJjaegbODawHa7aDohx0vvr3AeQOK1NM8m0KIGOW4tVbzUygsTNhoR5qhGps9VKdSuDLZSRYTGOwTC5BakZNjntycakRjmwg05Xbklq1FHYTrlNNhCpfef8XJgQqaW35bn0AR98JR5NauIKdng14J+cTcYd3mI2MX394mwiZoc3mE3KwqQLswm/xun/YTZpO4y1FPDpRw+d2ZxbXTfy/dz6d8+tYy29n1v/wLlVAWY2qak3yZfzYGPUJg3ggfR/Z3xD1z6LMcMHcsCeaVY7l0VPyoo9hmyqgvhcP0peoIoSzD07k0TC8VZ7rRnRPTnUqJKtOAcbm8pnELMecSb47t55PQpPKFYdGXaEGPpEd44no/U6i4zxnGRgTYf8GM/apW/t1PbKe8/LAH04X7Pe7R4eTre08//ttay+Ol3pyvUv);lineShape=1;" vertex="1" parent="1">
                    <mxGeometry x="406.41901744518646" y="927.7540607743815" width="6.621947484914017" height="15.328012688630906" as="geometry"/>
                </mxCell>
                <mxCell id="166" value="" style="shape=stencil(lVfbcloxDPwaXjW2LN+e0/Q/MhNSmFLIENLL31cuY4oEZzN5Oxy8R7fVSl6lh7fN0+t6xeHtdDx8X//aPp82q/Rlxbzdb9bH7UmfVulxlR5eDsf1t+Phff98/v36NE6Opx+Hn+MLv8+4XqnXgeLw5/ymUJR/L76ez++2+6vzTaglcz4ySV4G1ErcLaBQL8uA0qlZAEeqwEJhYhsCVwptGZCFcjCAxNSBBdHvFQto1BgAAjXrkgjMUso+raJpCAAQZxInQKMqfRnAjcQBOiWQJdaciGVGpQxiiJ0qG0BNVACXYqVmXaqNEqAGB2JroSUKFQCyd6lpDKBwqXi2No0qAkD3gB5IQOFEyWzJ1yNMqyRP765Bg7QqoNnCdZk2lwApW0CB1NAYmgPU2bRLWRKXpQ4Lp3XI7AGwHzRLlksxBAoIoX9nb6Ig9qmSRQto0Cdln7eA2cdpfu8CyFCYFJCbLzWjGFSGrM50ppIAQBvCkSnONCzpjFMybYiISq1KZgHacgW1XPZ1UEBG7FNVkRuXgAWV79580BHpPXsl07RmZCFRdU0tcO4qoLi0XkbGkktyQz7BQXsVaFM976dVyeyC/qBwMtX9CtBR4SKFG9lAQX8aENNNT+e5HNzfHWaE11RCBogdubVBQUdfNOtqJKJtiSnY7+vM7Wj38YJRGmR2jLNTLoAwx8t9gPj5lgsJ6P+oLLMh5Ah5p6KX7GyQAicod5/U0eCI2Tdrg75Bs2TMaJvWYRNY0BCTDVor2UCWdFkTq2G6PSVgYSxrNuixqIPurNkP9Qp33KbEcQbmuLt/vvvRE6BEamO5DVc7DXTCGGTRnUc1G5Oy+/PA/zGKgzufkP/VT51AFfnfKLubFSXACFU2sf4w7OShtf58R40cbrRI1xMUcPedL3CfGiugLViGd6TPXlU/Pq8P/+/FL9vd7nytvv7f36P11fkOnh7/Ag==);lineShape=1;" vertex="1" parent="1">
                    <mxGeometry x="327.92802232725376" y="950.4282635391244" width="27.50300108160036" height="53.32632208198402" as="geometry"/>
                </mxCell>
                <mxCell id="169" value="" style="shape=stencil(lVjbcloxDPwaXjW2ZfnynKb/kZmQhmkaMoTe/r5LGSfH4rBt3oCjRdZlV/LZ6M3r493LdpPC6/Gw/7r9ubs/Pm700yal3fPj9rA74tNGbzd687A/bL8c9t+f78/fX+5OlqdP3/Y/Tv/w64yrUssJlMLv8w9Bkv794fPZ/Gn3vDCPWXqe7KP0eN0ej93/q/RG7JvENtkXUbtur1ksTfZdAjl/DlL7fH4EkAig+ABOKSAeLInNEcQqrRMAQq4TADUo5EilSJlrkExCvg6oKILz0EYZ1wHVV0FVKgm6BX8krZILAWQJYQKgMp0BmoQ4AzItXI9izgOCrgSQJc8AlLIGAqgSbAaglIQMAPS5WUvigC5xbj7UvpKgYwg+ryh+IISDizoHUcE40q4IosweWpTCPCQfdYMHEgQe19lDDyMP17pP53btKonktarPa7ehI9co5wGVptVU2kwIJLqQZrI4OuFNNt5rua5MTTR6F42kKdvg8AIQSRBZPat7Gy2/DkiSXJrKUMN1AJTJeeCshofoYkCpiZQhBp0FH8LApAxZ8s0UxBgArHaE6GPIrJcaYtk9wEjh0EzZPICOFBuPFzGwoO1iDUCWOh9arfo6GKmD9cGXBeXYpgEPTo7RS43ot+Gx89AksRjy0K0FH9iygXkQLkjNdoHcR4hLAIkB24ZdeGBzFEPQMw55Yx6SFHckDHsmM1GakxmTzDnt+IDWYHzAkXzhoCPsSCjczAe0N+MDKBrcCOp0Df0wAO0dHUWxALGJYoPyi6kYSQyY4+Y8ZDqoscS5yY5BzaSyJb8x4S8YH5r6QY3BykYWAHHWpdLoGMWR0syHAj1ni2j09wHoSGGrLig/ezjJAiFQtSEqb3tlH0r1n4XDiMkkhtN+P3vQTmPAFhkcII+N/5rcO+XTQLsVIyu7K0eRxGQm++bDxY8FrW3Mm8UtiCmfXgxF3LPYtQlXXXNXv0wHCu6uzXlIogQQg0/r24q2HoKXgDI6Zf08ot48EvPozY0uoMGv9Zle7LGRZ2ceSYteXEuUXgGC1wlIEz2M06E4uu9KZrJrBCpCaax/769IWJnUd36gS7b5vYhv/cUTMYx78br4fOz1zj/N8eH9TdLD7unp/CJq+dy/ecJP57dWevsH);lineShape=1;" vertex="1" parent="1">
                    <mxGeometry x="450.5510092799666" y="941.0566972387962" width="37.67194358472625" height="62.620667221133544" as="geometry"/>
                </mxCell>
                <mxCell id="171" value="" style="shape=stencil(rVbLbhsxDPyavRKkSL3OafofAeLUi7p24Livvy8XC29NBZ62QAEftDJHJMUZUpM+vO2fXndT4rfL+fR5931+vuwn/TClNB/3u/N88dWkj5M+vJzOu0/n09fj8/r9+rRYLqsvp2/LCT9WXBcqsqAS/1x3jGn59N/HFXCYjzeAUqnWAChMAgAmVEsAdKZu9wFaSHIE+E65D0idEkeA71QA8KTzCEAhiVHqEdBI5D6gUmvRXqmDFJQ4nt8qDIjJLNozFXC+lyieXxO1Dm6INMZfMlkGrBhrnDu8H9ncbwCjDBwsGWgEJMhTL0GVEaAgZTVqg4dMrIDYPCrBk26gCGZj0qXAkOzdtVanEdKaCyXWrTnVgRJMKcWkW6MGPGh7pzWjAm5JPYA0SscQ9WzMQZiJGZCpXHO8cdGBi61Mm32m3MAtkQ3nM2Y3cTy/KQmowpbeVmZXG4hHrqzZeOT9BnQL5/Gg5i3C/2Kv3j0ji7yhVVCx4mKPpDCqIIHSxxsV2B6rXUfS1Z5JAatrJ5PBHjGu2UhqH2mgYK2P/dp1Bwjk02KYyoUyKIAPyDZqBjLC5x3HCSiZKpDMjQa3GgsJdlFiTH9Kwkdq9OC9A7HCVasxCX86KCjDPz92/gLgi99vq5f5cFifZrf/j28x31rfcfr4Cw==);lineShape=1;" vertex="1" parent="1">
                    <mxGeometry x="467.24296814489685" y="1001.1807503183927" width="9.102343122452112" height="8.879264327384817" as="geometry"/>
                </mxCell>
                <mxCell id="175" value="x" style="shape=stencil(lVrbbh03DPwavwq6UKT0nKb/ESBOY9S1Ayfp5e9L1dB6NTo7Rt9Sd+dIosjhkNRd+fD966dv93c5fv/x8vz7/V8Pn398vSu/3OX88PT1/uXhh//rrny8Kx++PL/c//by/PPp8+t/f/s0vhz/+uP5z/ELf7/ieg2lDVSO/7z+JUkQ/e8vv74CHh+ezgAJuawA/wkjgBxEVoAFqwSQQoEVeuhCADEkWwC5hNwooK5byjp/4mpLqiug8xVy0LoASgqdHbqglYqEWvg99BVgoWYCqCGuAEnzJ64Abd2SSNBEABrqemhpIbJDW0jrlmoKlZnVQlvvodaQmJVaqKtrVL84dtM9xDUeNIcSKUDWM+g7W3JnXt1bfU0CSDGGGBeE5dDYzfVgq5lMZ9ReAVJeAb4nZiYLfT11yzNErnwjr2doNQi76hIsrQCbDnwV1BByjQdEa5NVTgC2pbGBbYXCAFvIOYB5X3Pe2g6d2BlSEDCrhk5W8HuFGHUAuzhzss4IyGRLVtG/3Qx0BWcyRQBzPvd+hYsTymSW5u8dgEIvziOywqE9i5EAUt2sFOmhVSbRnSKOOZ/TUF19yVoo5B40BoMV3L2JWWtDcnXWMLKlqpMZT4BIDl1LSKvzubMoW8GlgCDACBtLnzY5A4hriGEaHf5LxIa42kl4aBaiUkLdrFTYCu45BQGdOF9pSJV+05XkXVcKEczagpIzuBaBLbl7C7mHktG9naka0Q4lopUGFxJfytuhnQSUbMklXoMtKT1Drhu3GuXWvKesTpVudvZe48GFZife6kI4riu4DEwkgJJOqx+AylcQFH2e6oW4Rsqhr1YamottyXlpJePOma+hwDoJotvMhxLOF6jElUpohkc2EqAZ6xO/BCO+nZCT/JYr+T5iseFKpZD4jzMfn/InI5hNTnpyS8Seu/xs884vvgf7OKWyUE5bVkhTBl3YX0BAGxXQW8XqubSzzIlB5jUDs6dhBIzEyKTt5Knje6H+7BHToerJNM96TAKveF5kzJUKagXPi43VJF7jQG1YqSp0IoKEIHmG6W2AYdiXzomohQwlt1L2dQBotlKouEhHkjx1AVhR7wAoq9xXWKT5odPqek5OylZQzOQefY2tULGG8U0WRl4yY+vU72kkGtz5wKzp6G3cBiT0Jf8LU4Ud+aJTX62zn3WEPxVHMiPlCLbQ6OegjIRyo0wJfvgcvS7BOsRLHxLHgnV/mru7sExaYzJyvR+swOcs5BW1+3tZG+we5zVfkG7FzbBAcY6GNif1yYYlaaZNUQ8hoB4qgRomJHciVr5iQc2LJtv9nR11k8VKe0uKllGqJys2ZY5C+cojM3xOayukGk9CrLLCGkNo11emLH271Uh/XTH4OiuGN16lv153f2ddd0VOjVQiKRJHpALDQsHPmYsZhgf/fNc7Rwl9pV4SCKpQWI1T0Ye53vckCxWL75DmTEM55UmRRbjnYAjCVOkKeRt5DDXDS03o1TilZVb9ek0AFKi0mf+Wmo5b4z7nAIORBw+wvE2SinLANrZxDdm5WQ1mJJmLnb7JWqUdXr8mCHuX5saUtqKWd/HPsvRewdc64+8qfDIAjNbLLs8aJKTOAzTiCppoxdzwGrRQLjUcLijvs9cpug4CiO9owrbmGStUcgrux3T2Vi86ENgyj7SCFFT9rdC0KjgFa0ZdYut8jYkpua+9y5SpaO5YhPRC8/zICAUXYD2jN7499VyUBbIgt3TuEh6XZWv2JZYUtj5WO8afl2QEfSChfeC8VV4tz9bWbYDc8DtWX4zSCRybH3qXumYzlq76wFDFe+iwqUXJ+IDBKtUuZRs3WaFWKhWTs2U6UygNx9qWaPqXuFkpTTPcBpRJbycCY1lEKkokB7AAErsBYN4qW1WunVbCNW1JofNqtWylR6dVWd0OrTxPVcW84ABarnQk1mFWJssTiiRLfIpXsOfkzkeFf93mhIVPIm1LhpXqtpEr4QxKs6HtE7DjWcZtgGKXxGmGRZxtjTYnMtZy9t+DjDWYj7hGS9t8KtItteMJ0gnArDSG3juAuEYzlJLjDGxLDQcdjee4nraBVqS85GkcnoW4oenDk7r1/pWadX+UZEL7RH3rkHrEMa3hK0Da9QihT7cqkrEKP7Rs8jbxJ3SyFbjG3xiVKeAPgMyhxm1Ankc8AJEqRAfAUGtM0tmWtgAag3F26Ii8JDymHQCvPMaLOPbapk8jHgChgzYPIHjPUxJfwdC9R6uQ0YzO1t4BEBqibZ8YRJrj2qbIEq8F3ErQwnOtzMpDv2lcIdNG8RD/APAsyrxVUHtz5eDfK04MWJb274HGuNAYj2gL7oe9Gaz4gKlPiXn1fU9ooMxYUtErEh8Ljed52wyGzjAV3834JbP2/gBUBNBL21qYo1HBibtvANbXG9cAZ5DZ9Lq85//3WPp9gP/j7W32l4fHx9en3ef/j2+5/U+v78DLx38B);lineShape=1;" vertex="1" parent="1">
                    <mxGeometry x="322.195534458966" y="997.024546091767" width="154.2712765301892" height="85.64591525637502" as="geometry"/>
                </mxCell>
                <mxCell id="176" value="" style="shape=stencil(rVfLbhsxDPyavRKUqOc5Tf8jQJzaqGsHjtM2fx9ut3Ijyjt1gd7WMkfikEOKmuTuZfvwvJk8v5xPx6+bH7vH83aST5P3u8N2c9qd9WuS+0nuno6nzZfT8fXwuPx+fpgt569vx+/zDj8XXCLvZpDnt2WBifnXwufFfL87fDB3hWrt7B1JXLf3lViM/e8Dr9pLpuqNPxnsHxKJ9d8D+xgoJ+OP8+v2yVPp9/cU87p9jiS5sy8kad2+CPnS+5OJwzqg6n7cAWKEDGql2DNQTiikji8SaIjsKICk6RG5T1phmGUlkfsTSsGAS1AaoAaKBQCC1ZGemQDrqnk1wmBcCpVt6egRAfikHJ2zJDwSR6LQF1vJlNEJkaLJXG2RXgP4Xq6ZqVQIKP0JqibIQTMXe72Gppa1KJWedKhti+t5cDasQZ0ELlWxUVJAQIBI2bikbQrL1XSZ6KkiDpVc3wYSY9LV6jup+EBjmgFGGplEsEt9WDX3CUhDSac+01pTEKD79VHSLWBRS+ulF0Clgkgz1WwBgupBG5MBRJg4LdFqXGJy/xOQx8QxJJ21k/VXbtSwgjwkZ+/0iNu3VrDpfHM9gLCOt7SuOHDLjWOAlmgCgHHOUIADWhoHGQWgihsGpZkUiKp2uaErob4n9l4PQhkxJu51FLjdYNcJW3tJbVS5as+21kSHAOD/MDT42CJ8oz1TABoa/HGhFfdtfJ2eCPwf4qmXCGiPQ7p8a2a3qYEpAef/cSr/q7l+/HkAPO32++X98PF/+2DQpeWxIffv);lineShape=1;" vertex="1" parent="1">
                    <mxGeometry x="318.0874952902948" y="999.400231550987" width="33.74615021627119" height="9.09674764068518" as="geometry"/>
                </mxCell>
                <mxCell id="177" value="" style="shape=stencil(rVfbbtswDP0avxISdeVz1/1HgaZLsCwp0nRb/770DLkWHZ91wN4ciUfh5fCIGsLdy/7heTewe7lezt93vw6P1/0QvgzMh9N+dzlc9WsI90O4ezpfdt8u59fT4/T7+WG0HL9+nH+OJ/yecDWQ8Ihi9zateKaY/6x8nQDHw2kBKIF86gGFStkGpEK1B3CiLNuAmChIBwhMGbgUMpXQA4RcBABP3LsUM0W3DWCh2GcpZcoIUCnFDpBjS/QmoI+hZEoJZClQLR2gehi0eixxBQCFq5EqrwCgDlUor1xCMUgkZ/6BSQA1pLQyzYBE7AFAC2dcquRA4bxzbb8hBOdVqs3rGBYCZBuEriB+i9K/p6v+ZwZ5HWOsPUCoVADQpi4WICCGUikGC/CA3yVSyD2gwJYrnkK1aRWQpSxUfQ9gSNc1QPOG2Ld2qWZyCLAKWhONCjemddWjEnDhqgV40BAjNcQCGFBDZu1d9GhELZfb9gyIsNLrBqqFHAj6Vo+6piSflAEJUPvWQiOpXWObUmbYV7G6rsRSnUyoctHSdZGH/4TQO6KIdQo1nd5CRsEVgPLEpZ23ADAonZ8LtahEAokNNgSlPFJX10Ritneta7fse2YUbrKwYZ96f3KAdfZNg+ZRQ8uIxqWmu/Msk5qI3GYF1b7bdHxKwH8d72KfID0io1FG7GWiMXnAujWJfCRGNFXK9C5lLKvOqqSniOyZUl/juYi37ZPlqIMBl3li/rCHjezs+KkURVLBdjb0fxMKwzmGE0zNdiAJFJDWabxm3ibBlxT38SpF0eCpUtufrwcg/0vbnjWlNcVte9X+ftrxemmigP/1VfUJgH58POKeDsfj9AZc7ttHny5ND8Zw/w4=);lineShape=1;" vertex="1" parent="1">
                    <mxGeometry x="324.0346742675945" y="976.7913625298611" width="19.875062885372927" height="31.907631989201718" as="geometry"/>
                </mxCell>
                <mxCell id="178" value="" style="shape=stencil(rVfZbhsxDPwavxKUqIvPafofAeLURt04cNzr78utobXF9U5QoG/rNWfFYzikNvLwvnt6224iv59Px6/bn/vn824jnzYx7l9329P+bE8bedzIw8vxtP1yOn5/fb78fnuaLKenb8cf0xd+XXBaqOiEivz78qZSy39ffL7YH/avN/atUeXBPjBpXQfUQmE8IBRKug4oQqkNgCgUeB2QK/F4QrSgBADM4/EEYeK0DkhMJY2AQgJiEKEWBkCKFIFLUX3QqVKOAJBJR5eykAQAsCTWEaCkyKVALAOgWCnbOiAolTHoGolB4UKjVkZAhTEYQEdAi5RADOaSy1KrVFGWApU4AFSIQT8YoI1Z0kQNZGmZ1qkFwQkWg4xp1YbrUHxaVXFahTR6gALyWcs3XgBAA5mmpIVHIIRMIj7kCOyFcvY5ragIVMZu00yMus23s7EioP7vnTXbB0pAJPOiACZIBagw5bGXm0KJDEbrsWCm4wVxKHmZb3Oz3gdUX4I2y8EarT0nGE4eaxxPCmt+4NLUmmOWrDUjqIIBkqN1IcaK5waJYnmxLFUXtEkaIJLVwTNJIbOt0i6tgRmqsA109Seg6Vk6025CqOD7qevnTY4E95pTr9w1+b/Yzyy7YXYFNJqzdzNzUI2ZopuCtisAbQxdCWd7JgF9IJ3D81iWzsIVbXH5sX1JQBdor868iWBtDwuxS+YiAqgfmbZNKWCQUdRx2pxEUmH7mts5I3Yp2Uo6kmJyEpDCli0es2pTN6Kt1lwagw6RMihbsa3WqRcUr8Z+pgmk6ZX13d4+gGjBncVX+wjazMTZ9T2WIV2szNwXpfv2mTI7e0Hfr37v4n7gffvm165AGdlbecZ8Rrji6GL+2f6OBiwvhCh9dICbNbmPtzV7R7gCHbIE8fj9Cneif71pfmxvD9dr7cv+cLjcim//99dge3W5QsvjHw==);lineShape=1;" vertex="1" parent="1">
                    <mxGeometry x="320.8704948847601" y="961.8511714832086" width="29.812796283892112" height="50.639950455369444" as="geometry"/>
                </mxCell>
                <mxCell id="179" value="" style="shape=stencil(lVjLctswDPwaXzEkQBLkOU3/IzNxGk/TOOMkffx9obqURcjaTG6yxRWJxeLFndy8Pt697HccXt9Ox+/7X4f7t8edfNkxH54f96fDmz3t5HYnNw/H0/7b6fj+fH/+/XI3rZyefhx/Tl/4fcZpocoTisOf8z+FUvv3x9fz+qfD83J97K/7+hggoAjFMAIK5bANyEqljoBGLQNA9AAWKgCQMuU8ApSkbgPEDhAHgEQKwAZJJGkEJMppG8CN0siSKNUCAInaaHSyI8VtgJEYxh1SoQIcFzPpaHRmCsCGKKTjDuZK5OnIK+2ZWJANTFlGQKWEj5RGgCYqCgCFwngkbdhxgeKopWriA0ZbfJXxSNXiAYmvkDhAJQHSSNr9OgMaZCkL1egBTQBgft0BzWhASaB4PxggABuUqSV/JOSHyqTODyY+3gbYAbJjSfqe1wFMKXqAIIAlgdUOjI5knl7tkAGtTX0SqKkf8jqgEbsdMlSrAWrztAZkw5yrF2pFjjPAfzEvxYeMrsRjmmnxI1qdp82VERmdfCIzQAYFxV67VDkB0A6hJ/eFDQ0kAePEScMAyA/GOmdPq6IAUlKnJfsESJUG8CFaSEFM2/fUJbIME9mUI5wNiRhpKa5sENicNCtZ7AGMAiivcqvtgMSnlIq3IWB5O2kYSxH4oc1+XRYUkL1jCL4VMNcEgLAtiqOp4eRaqYxnmhSPPKfdxoW+Kwq5zwJqoOYAc6N5vQSlVc0y1wCWivre4cLbVhnNrjW+uOY6gleZyZIl2MJ6vFRXZwICT1bIVwAGNLF1YOppirhj8oACmwdrRKMTk0Cjm58HTHwMNsi9QC0CCIUo++/XCJUUfPTY0MVASKvw1NAb5Y31PJ6/GGMgr0ZfGnKFTYD4kW+auICH52FqnjQSrOjWpbtsIRVm4ah+cLDxCvVuvBocbIBDtcpscBXddC7ABhFP6jShIVJbH6ZmQIRhYFNrGOPGaEClJ4fO+gyYJ7TrgOK7w2m2BywVG2rHWpVhU1JWzWHEU0DoFPb11rQDXWj0Fs/T2fX10uPksh6lXysJkv16UJo1++wb+geury8+0nDVVPVdYcSXN+rvMRjmdl01kYL5tBhxdwzYv9VLOsGbHjt/Htfn3vBt8fm5y60P19vD5Sbt4fD0dL6IW773N2/21/nWTm7/Ag==);lineShape=1;" vertex="1" parent="1">
                    <mxGeometry x="315.91986151110314" y="961.1002720317924" width="42.145989385926214" height="55.01992051862908" as="geometry"/>
                </mxCell>
                <mxCell id="180" value="" style="shape=stencil(lVbLbhsxDPyavQ4o6n1O0/8IEKc26tqB477+vtwu1jFVe4rc1jJH4pCckab48LZ9et1MKm/n0/Hr5ufu+byd4qdJdXfYbk67s31N8XGKDy/H0+bL6fj98Lz8fn2aI+evb8cf8w6/FlyC5Bmk8ntZKBmh/F35vMTvd4er+FBQugOkAkn3AbGhNwfQgNjvAyyB6k+IqOSAqkjJxQtKI/EdJQ/xQvJpZYxXSrgravAlRYwkviJ4vkGRhQCMgCccOnqggKGiWteVeykV9S3IiOyEiFj9VATahFaRBkCBkio1QfZdSA2JcKhxrfoVQJXMXUEeUspIRApF0AeAIBHS2To9lDWikbJmS8BzsFli6symxeJHo9HGZVPnAAhUDcUy9hwylGRUBcFTCCun2/EVOqpZiBhaWs3kff9AutwFze+fUCqJz6u0LvsLlAE6xE9FqIjMUeXC8NJl82B2REMeHFLRmWMk9AFglsDU1pG9aSfbInNA/wggdaiv6yxYwsEcqPgq9YDMLh6FesewXrLOaUPwpK3QQmbJLqbBJmdrJmU1MQ7Dd9X824iEEMYjAnNi1CGlSjnYeA/xcc3xNmd0L2frfCXTLaN8WoaQ/P/Rgl3XjXiqjHZRTc9MbWPLSqfxH30f/T/ePt4fYy+7/X55y13/Pz7ebGl5+MXHPw==);lineShape=1;" vertex="1" parent="1">
                    <mxGeometry x="346.4346864963338" y="955.6381073291761" width="10.494819691429257" height="9.62244598637858" as="geometry"/>
                </mxCell>
                <mxCell id="181" value="" style="shape=stencil(7VrLchw3DPyavaL4Jnh2nP9wleVIFUVyyXIefx+wtjgeNmd6oxySi24rLXtIAg2ggdlL/PDt/tPXu0tw315fnn+9++Ph8+v9Jf50CeHh6f7u5eHVPl3ix0v88OX55e6Xl+fvT5+vf3/91Ff2T789/96f8OcVl7KU1FHB/XX9jxv/+Pm6/vHhabc+B0l+Wh9FG1mvksO0vkqM5+tLkDI/v0muZH0Vl6f1PognB6peapwBWbwngCJ+voFXCcRE6sTNJg1eHNlBoySdAVEyAzTxsEMV1XNAsx3mO0QvgZi1FaRFND+TI7UmafZDrPQO3pmZ3IRIbjzjeAsdD9wAdqZAAFnSfIlUqSOawx2yHbIQRySpdQaE4cszMuUyA5IUskPJ0uY7ZOMj8Zw9r8GR7NIk4syIWRGQCb/j9vUOEEnIhc3quztER7ih4hWtxLKAN8c19ENlVjrwWyAnSiPid+sZk4LonGSyl0K4vX27W++J05xUWO8o79zIiVskNKnEx2ts6qDVP3y+0ixs55/DwCKTxb4fQbKtLzQdmf0zrg/kPOZfeL7FHbF/FnW4ntnTAkTfst6vF1BKOAsZtFAbMXFsoXIQMo64IKYlipNEBmgjK+zCPhCSpoV1uVAxkqyuwg5VAst1XnRJjszPKYwTbwCVyhJFkAhWssrImOelzZ4ujpZmA4SAgMbNCtm0eEqNqGilcoMaRu8FQKmx5F8DJFIGjXx+3YFcOgbMqAZgMs8EETiueFqZDy/tyaVNyULSsx2Y40wF+jkezNOFsNUvYvgG+SyverBSHPL4GLDkpVJoZbbMCvqltNERnImFOAOqUYMdqaHgqVkyCdEYUG5XpTvEMow4ABqGjDvLfDrfQTMtV5Y12ky+LvFZTDdx8x1M7HqWl9poEDZAodK2K19oxOqtHdLsBxPsFKAYcY2LDKvhENPWdRRm1oRF0QCNhKj5IS870CO5AwArWT23LkdyJB4szeAdlDYABkBq1FsAyK1GDSY+41Yz9+TjSiDADlw69MIOAN5+WhMDTboBWF4y/RU8AgoD1GGT3R1u0Lssl6Z3MOYsMc2ScV4GDea4ysxqFQisVKWyNKNYsox8ld2hYqPUBwNMYGVM963RUYZ5OsDA58ck4YxM0JzYFpXpn4Zq3QCB5XtF4WpmSizk3gwwroEjEs8zfvSzG8CPPv+4jCoO3pQfyXogkPdW5FhFMbEB4xh1o06e9TTQZVWlnvZ5zIM2wCY/Ttss0A6ejpT80ugWpSqxLlI6U/mzDBtNVDKtvpl8p/hYY6mjP9o1cYn1lRnnvdYmFuID8zLOnyItcJ14aTkS028Ri4O1iWz48d/0lQUB733le1/5L/pKSwHIJV6u/Pb1jnxMFnuP9S3nQfizaSmsf5+Wvk9L9+v/52mpw46+H4gJhYJlsL8ZYoOSiK+30tbIHYe9G685d5xj7zwsOUJD0knN0m/FdqED2KtbxcYwO/4utmJFsDiIzG8J1UufWjPA1vvumMfytSaUtYm/f9aK6sLKViRyRLe3ZQPQqxB/e9tms8bNDMcAh0M3IwvL1zWj46xGsDfQJmLbbFbjb2VvGRUdZzmHDUrK0o+YWGel3GpYWV+7E3pbSYKYNrHOGhhjP2RJzyMuFezo6wjBs7YQ2U1zhkU0pLFIq1qsOKKLNJ77ZGg+PzfQOkniVbmPeWZt5LmWUsnzeRytgr3NDrA+s+mFQ83saBSYoAX16ChF+/DP43rGn4gyxI04PZtGVrwv5ecbf5pze719+PE7oC8Pj4/XnxHtv8ffDdm/rr85ih//Bg==);lineShape=1;" vertex="1" parent="1">
                    <mxGeometry x="449.3887138480866" y="956.1177703163871" width="43.16162724227934" height="87.23696060364887" as="geometry"/>
                </mxCell>
                <mxCell id="182" value="" style="shape=stencil(7VjLUtxADPyavapmNO8zSf6DKpawFQLUQl5/n3Y243hkuykuOXEzxr0aSa2WNIdw9Xx3/XQ8qHt+OT9+Of443bzcHcKHg+rp4e54Pr3g6RA+HsLV7eP5+Pn8+O3h5vL30/X05fT09fH79As/L7jYpOqEUvfr8sarhPjnzacL4P70sAR4SSNAs+SwDwhZqh8AeOMqAXgpYQDELN7vA3CAVAdAgk1HALAwHikXCcSCLz0mHVCyNAZQ0TIAmpOc9wFZShu+r9rPuG0giDcnitJI3jSIjlHNKq2RNKhEE1UvkUQ1lB70OW9BCkt0Ex0tRISNBAncc2Pe8EaVAFSqseA6ubYB0eYBgMosgPxqjxSJ07FuOJ0ZoHXizIBIKzSBacaHLKEQgJdgElclJwqI45HwxrEjefEGECSSsMKHOIY1JaoyiJIpuFQkMS6B/WksINd/Yk/H4mgBJZpYxVWpYx4gGolZaF0XF7IUSR4maoxRyk484VJGQY5O4w0LKw7gR2qUKo5xCVEfS7SULjzbFnJ3cT4SLBCZgc4Vo0uNJq4mqaaAKlW+Wm2mY6HK11BAow+ouEacblF8sxZYxbVsOxZyH4nTrfa8zlGCtpKG0pqlBiqOsRWAVlZ54BZ0bFnoQIU5Xazy5dRniW1AkjCGNXO2Nl1ZaF0Lt6mxitIEYOTLnWqLI1G2xk6EGYDph0glVMjkIc+zwR7AjA5IXOYAXVGDFlBYibH2EW2vRI3MxEapUWdxXxQQpYaTYNouMkP6Q1v5AAtKfAD5mhlbK6f3zM1FF32lgOxEFqkueee6lC66IsscTJhROnvJ7EzVhinHLrd7Sqar2ZuNAm8GVLXDesXQR0qurLoiypxFaXJxTPWUSz4wmaUJHSATC1OHMm20dW3btoAGkS0gcQsmcSjCSBKH+ac56wMLq8JFA0hUZxRsNQNToU5rWkkfX4I2dppAS+7/7DTGwvtO877T/I3SG3caiMBoAfsAczrUlWpwAHYaHcOKXu/JkTyEcbQA1WA1jWFn1OJFE9sErFocOjebvdXOV2XecXYOZHiBAY5NGt73VrAYrwILEVxeDw5MJ9FNRguQqUKYBx9Mv1LoGtNJ32V0zkKlmyhkL44WAl1P4qoWVBwrBW8Fw9EkQ6XNbOX68rGnkWbu4aSL2a7qjvYRzI7Jme8rV1Qzkvh+XbEnFaWY+DPOTVpkGiEXOxzXbCX9cmP3ezNd9Ca09725NvBciN5+b/06AA//rslvT/f3l1v25f/ttTpeXa7kw8ff);lineShape=1;" vertex="1" parent="1">
                    <mxGeometry x="320.475853217195" y="813.6072730124195" width="32.95551296265853" height="26.189404570980287" as="geometry"/>
                </mxCell>
                <mxCell id="183" value="" style="shape=stencil(7VhJctswEHyNrlPAYD87zj9cZTlSxZFcsrP9Ps0ooImh1E5uOfhGUWhg1p4GN+HmeXf3tN2oe345HT9vv+/vX3ab8GGjuj/stqf9C5424XYTbh6Op+2n0/Hr4f78++luWjk9fTl+m3b4ccb5LL5NKHU/z2+0SXG/33w8Ax73hyUgSvIDIHkpngLqeEIO0jIBJMkjoGCLRABVvA6AWiUVAmh9vw5orp95DfDH4hmgklmUmqTRhxYlVupDiSMgiyoBlL7fDChSGCBJLSOg9sxcS5wbw9qaZBZWtQDvnDgSJoS12RMqOaGKS3a9EheyBLUuB2LPqlSRhBavrw+rOkrUniBqyihIJK1QxLuxExAxGk8diyg3nmLt6ZmbubzV/W30OEYprK6L1NGkoDTFik4cT0DUPIkRkhzHE7zrby4n2dnerBJZURRxYTwgSw3XAclJGC2CjcznHG2dwiRGLyVYxguJJvq1DhZRZU5XZ+cCapf4XENnqzlI4glnV0RkrDwwBakjEHRKZj3bH3TrqrEnkKIAeRruCpKIvyAeN7IpypB12isTzr0vjYxNHFBM1SFjzKIqOlqEMmVDDVxVxhRjatEYqSRT174T1OUkY8BkCyjEpJrEr05gJlXsl60PlXUO8macLr35LgNK75MZEMWTZi7ZOg0+YmMTJ5iwFlHuQhgPgEGkkqqKN5XUS+taEtJYSOAztn/rM3XRymxIqZ0hjtIpZrCxX+mMQiMkM9ToPJg0h5GPXYtdW2/sxxhVkuBJZxkugsQlIw0el1FjQx4mZlLu0u9vAcEOTfCXY8pr1coBdc6rzhBwbJS/MASNeEmxc/7lMeut0zHRxongkrGQokpgcs13bTM7jbHCtEizUwq9xkwKzcojAFgzhJVUQB7e8MGYBD3TCOGh+s1dJztpxKRp8o1hhTxRdl97v351Wni/fv3P1y9v1QhGIxOpuHeMKS6JsrCz+08cSOLjrOYEBbJGW0lOZNxT+80ghxIJND7OyLtEK1TtHWFSLjRfRgLjjSM9lroEn9crbeKVtJvIl01NCSt2Zxre+35nWhgUGUA7NS88ZuoUJGGvmhiajOhSnxaLwe8Ju+MSYVgFYWMk8e9fFN8G4OH1A+bD/vHx/P1z+b/94IlX54+l4fYX);lineShape=1;" vertex="1" parent="1">
                    <mxGeometry x="494.79038982985526" y="805.2230894190864" width="25.431788912736693" height="27.01874192093601" as="geometry"/>
                </mxCell>
            </root>
        </mxGraphModel>
    </diagram>
</mxfile>